STARTFONT 2.1
COMMENT
COMMENT Converted from OpenType font "FreeMonoBold.ttf" by "otf2bdf 3.0".
COMMENT
FONT -FreeType-FreeMono-Bold-R-Normal--17-120-100-100-P-83-ISO10646-1
SIZE 12 100 100
FONTBOUNDINGBOX 23 19 -10 -4
STARTPROPERTIES 19
FOUNDRY "FreeType"
FAMILY_NAME "FreeMono"
WEIGHT_NAME "Bold"
SLANT "R"
SETWIDTH_NAME "Normal"
ADD_STYLE_NAME ""
PIXEL_SIZE 17
POINT_SIZE 120
RESOLUTION_X 100
RESOLUTION_Y 100
SPACING "P"
AVERAGE_WIDTH 83
CHARSET_REGISTRY "ISO10646"
CHARSET_ENCODING "1"
FONT_ASCENT 13
FONT_DESCENT 3
COPYRIGHT "Copyright 2002, 2003, 2005, 2008, 2009, 2010, 2012 GNU Freefont contributors."
_OTF_FONTFILE "FreeMonoBold.ttf"
_OTF_PSNAME "FreeMonoBold"
ENDPROPERTIES
CHARS 2031
STARTCHAR 0020
ENCODING 32
SWIDTH 600 0
DWIDTH 10 0
BBX 0 0 0 0
BITMAP
ENDCHAR
STARTCHAR 0021
ENCODING 33
SWIDTH 600 0
DWIDTH 10 0
BBX 2 11 4 0
BITMAP
C0
C0
C0
C0
C0
C0
C0
C0
00
C0
C0
ENDCHAR
STARTCHAR 0022
ENCODING 34
SWIDTH 600 0
DWIDTH 10 0
BBX 6 5 2 5
BITMAP
CC
4C
4C
48
48
ENDCHAR
STARTCHAR 0023
ENCODING 35
SWIDTH 600 0
DWIDTH 10 0
BBX 8 12 1 -1
BITMAP
36
36
36
FF
FF
34
24
FF
FF
24
2C
6C
ENDCHAR
STARTCHAR 0024
ENCODING 36
SWIDTH 600 0
DWIDTH 10 0
BBX 8 13 1 -2
BITMAP
18
3E
7E
62
78
3E
07
C3
E3
FE
18
18
18
ENDCHAR
STARTCHAR 0025
ENCODING 37
SWIDTH 600 0
DWIDTH 10 0
BBX 7 10 2 0
BITMAP
E0
90
90
E2
1C
E0
1C
26
26
1C
ENDCHAR
STARTCHAR 0026
ENCODING 38
SWIDTH 600 0
DWIDTH 10 0
BBX 8 10 1 0
BITMAP
3C
3C
60
60
30
78
DF
CE
7F
7F
ENDCHAR
STARTCHAR 0027
ENCODING 39
SWIDTH 600 0
DWIDTH 10 0
BBX 2 5 4 5
BITMAP
C0
C0
C0
C0
40
ENDCHAR
STARTCHAR 0028
ENCODING 40
SWIDTH 600 0
DWIDTH 10 0
BBX 4 14 4 -3
BITMAP
10
30
30
60
60
40
C0
40
60
60
60
30
30
10
ENDCHAR
STARTCHAR 0029
ENCODING 41
SWIDTH 600 0
DWIDTH 10 0
BBX 4 14 2 -3
BITMAP
80
C0
60
60
20
30
30
30
30
20
60
60
C0
80
ENDCHAR
STARTCHAR 002A
ENCODING 42
SWIDTH 600 0
DWIDTH 10 0
BBX 8 6 1 5
BITMAP
18
18
FF
3C
3C
26
ENDCHAR
STARTCHAR 002B
ENCODING 43
SWIDTH 600 0
DWIDTH 10 0
BBX 8 9 1 0
BITMAP
18
18
18
FF
FF
18
18
18
18
ENDCHAR
STARTCHAR 002C
ENCODING 44
SWIDTH 600 0
DWIDTH 10 0
BBX 3 5 3 -3
BITMAP
60
C0
C0
80
80
ENDCHAR
STARTCHAR 002D
ENCODING 45
SWIDTH 600 0
DWIDTH 10 0
BBX 8 2 1 4
BITMAP
FF
FF
ENDCHAR
STARTCHAR 002E
ENCODING 46
SWIDTH 600 0
DWIDTH 10 0
BBX 2 2 4 0
BITMAP
C0
C0
ENDCHAR
STARTCHAR 002F
ENCODING 47
SWIDTH 600 0
DWIDTH 10 0
BBX 7 14 2 -2
BITMAP
06
06
0C
0C
18
18
30
30
60
60
40
C0
80
80
ENDCHAR
STARTCHAR 0030
ENCODING 48
SWIDTH 600 0
DWIDTH 10 0
BBX 8 11 1 0
BITMAP
3C
7E
66
43
C3
C3
C3
43
66
7E
3C
ENDCHAR
STARTCHAR 0031
ENCODING 49
SWIDTH 600 0
DWIDTH 10 0
BBX 8 10 1 0
BITMAP
38
78
58
18
18
18
18
18
FF
7F
ENDCHAR
STARTCHAR 0032
ENCODING 50
SWIDTH 600 0
DWIDTH 10 0
BBX 8 11 1 0
BITMAP
3C
7E
C6
03
06
0E
1C
30
E3
FF
FF
ENDCHAR
STARTCHAR 0033
ENCODING 51
SWIDTH 600 0
DWIDTH 10 0
BBX 8 11 1 0
BITMAP
7C
7E
03
03
1E
1E
03
03
03
FE
7C
ENDCHAR
STARTCHAR 0034
ENCODING 52
SWIDTH 600 0
DWIDTH 10 0
BBX 8 10 1 0
BITMAP
0E
1E
1E
36
66
66
FF
FF
1F
1F
ENDCHAR
STARTCHAR 0035
ENCODING 53
SWIDTH 600 0
DWIDTH 10 0
BBX 8 11 1 0
BITMAP
7E
7E
60
7C
7E
63
03
03
C3
FE
7C
ENDCHAR
STARTCHAR 0036
ENCODING 54
SWIDTH 600 0
DWIDTH 10 0
BBX 7 11 2 0
BITMAP
1E
3E
70
C0
FC
FE
C6
C6
C6
7E
3C
ENDCHAR
STARTCHAR 0037
ENCODING 55
SWIDTH 600 0
DWIDTH 10 0
BBX 8 11 1 0
BITMAP
FF
FF
C2
06
06
04
0C
0C
08
18
18
ENDCHAR
STARTCHAR 0038
ENCODING 56
SWIDTH 600 0
DWIDTH 10 0
BBX 8 11 1 0
BITMAP
3C
7E
63
43
62
3E
7E
C3
C3
7E
3C
ENDCHAR
STARTCHAR 0039
ENCODING 57
SWIDTH 600 0
DWIDTH 10 0
BBX 7 11 2 0
BITMAP
78
FC
C6
C6
C6
FE
7E
06
1C
F8
F0
ENDCHAR
STARTCHAR 003A
ENCODING 58
SWIDTH 600 0
DWIDTH 10 0
BBX 2 8 4 0
BITMAP
C0
C0
00
00
00
00
C0
C0
ENDCHAR
STARTCHAR 003B
ENCODING 59
SWIDTH 600 0
DWIDTH 10 0
BBX 3 10 3 -3
BITMAP
60
60
00
00
00
00
E0
C0
C0
80
ENDCHAR
STARTCHAR 003C
ENCODING 60
SWIDTH 600 0
DWIDTH 10 0
BBX 8 8 1 1
BITMAP
01
07
1E
78
F0
3C
0F
03
ENDCHAR
STARTCHAR 003D
ENCODING 61
SWIDTH 600 0
DWIDTH 10 0
BBX 8 5 1 2
BITMAP
FF
FF
00
FF
FF
ENDCHAR
STARTCHAR 003E
ENCODING 62
SWIDTH 600 0
DWIDTH 10 0
BBX 8 7 1 2
BITMAP
E0
78
1E
07
1C
70
C0
ENDCHAR
STARTCHAR 003F
ENCODING 63
SWIDTH 600 0
DWIDTH 10 0
BBX 7 10 2 0
BITMAP
78
FC
86
06
0C
38
30
00
30
30
ENDCHAR
STARTCHAR 0040
ENCODING 64
SWIDTH 600 0
DWIDTH 10 0
BBX 8 14 1 -3
BITMAP
3C
7E
66
42
CE
DE
D2
D2
DF
CF
40
62
7E
3C
ENDCHAR
STARTCHAR 0041
ENCODING 65
SWIDTH 600 0
DWIDTH 10 0
BBX 10 10 0 0
BITMAP
7C00
7E00
1E00
1E00
3300
3300
7F80
7F80
F3C0
F3C0
ENDCHAR
STARTCHAR 0042
ENCODING 66
SWIDTH 600 0
DWIDTH 10 0
BBX 10 10 0 0
BITMAP
FF00
FF80
2180
2180
3F00
3F80
20C0
20C0
FF80
FF00
ENDCHAR
STARTCHAR 0043
ENCODING 67
SWIDTH 600 0
DWIDTH 10 0
BBX 9 10 1 0
BITMAP
3F00
7F00
C300
C100
8000
8000
8000
C000
7F80
3F00
ENDCHAR
STARTCHAR 0044
ENCODING 68
SWIDTH 600 0
DWIDTH 10 0
BBX 9 10 0 0
BITMAP
FE00
FF00
6180
6180
6080
6080
6180
6180
FF00
FE00
ENDCHAR
STARTCHAR 0045
ENCODING 69
SWIDTH 600 0
DWIDTH 10 0
BBX 9 10 0 0
BITMAP
FF80
FF80
2180
2580
3C00
3C00
2480
2080
FF80
FF80
ENDCHAR
STARTCHAR 0046
ENCODING 70
SWIDTH 600 0
DWIDTH 10 0
BBX 9 10 0 0
BITMAP
FF80
FF80
2080
2480
3C00
3C00
2400
2000
FC00
FC00
ENDCHAR
STARTCHAR 0047
ENCODING 71
SWIDTH 600 0
DWIDTH 10 0
BBX 9 10 1 0
BITMAP
3F00
7F00
C300
C100
8000
8F80
8F80
C100
7F00
3E00
ENDCHAR
STARTCHAR 0048
ENCODING 72
SWIDTH 600 0
DWIDTH 10 0
BBX 10 10 0 0
BITMAP
7B80
7B80
2180
2180
3F80
3F80
2180
2180
FBC0
FBC0
ENDCHAR
STARTCHAR 0049
ENCODING 73
SWIDTH 600 0
DWIDTH 10 0
BBX 8 10 1 0
BITMAP
FF
7F
18
18
18
18
18
18
FF
7F
ENDCHAR
STARTCHAR 004A
ENCODING 74
SWIDTH 600 0
DWIDTH 10 0
BBX 9 10 1 0
BITMAP
1F80
1F80
0200
0200
0200
C200
C200
C600
FE00
7C00
ENDCHAR
STARTCHAR 004B
ENCODING 75
SWIDTH 600 0
DWIDTH 10 0
BBX 10 10 0 0
BITMAP
FBC0
FBC0
2300
2E00
3C00
3E00
2300
2300
F9C0
F9C0
ENDCHAR
STARTCHAR 004C
ENCODING 76
SWIDTH 600 0
DWIDTH 10 0
BBX 9 10 1 0
BITMAP
F800
F800
2000
2000
2000
2000
2180
2180
FF80
FF80
ENDCHAR
STARTCHAR 004D
ENCODING 77
SWIDTH 600 0
DWIDTH 10 0
BBX 11 10 0 0
BITMAP
E1C0
F1C0
73C0
73C0
5EC0
5EC0
4CC0
40C0
F3E0
F3C0
ENDCHAR
STARTCHAR 004E
ENCODING 78
SWIDTH 600 0
DWIDTH 10 0
BBX 10 10 0 0
BITMAP
E3C0
F3C0
7980
7980
6D80
6F80
6780
6380
FB80
F980
ENDCHAR
STARTCHAR 004F
ENCODING 79
SWIDTH 600 0
DWIDTH 10 0
BBX 10 10 0 0
BITMAP
1E00
3F80
6180
40C0
C0C0
C0C0
40C0
6180
3F00
1E00
ENDCHAR
STARTCHAR 0050
ENCODING 80
SWIDTH 600 0
DWIDTH 10 0
BBX 9 10 0 0
BITMAP
FE00
FF00
2180
2180
2180
3F00
3E00
2000
FC00
FC00
ENDCHAR
STARTCHAR 0051
ENCODING 81
SWIDTH 600 0
DWIDTH 10 0
BBX 10 12 0 -2
BITMAP
1E00
3F00
6180
40C0
C0C0
C0C0
40C0
6180
3F00
1E00
1FC0
3F80
ENDCHAR
STARTCHAR 0052
ENCODING 82
SWIDTH 600 0
DWIDTH 10 0
BBX 10 10 0 0
BITMAP
FE00
FF00
6180
6180
7F00
7E00
6700
6380
F9C0
F8C0
ENDCHAR
STARTCHAR 0053
ENCODING 83
SWIDTH 600 0
DWIDTH 10 0
BBX 8 10 1 0
BITMAP
3F
7F
C3
E0
7E
3E
03
C3
FF
FC
ENDCHAR
STARTCHAR 0054
ENCODING 84
SWIDTH 600 0
DWIDTH 10 0
BBX 8 10 1 0
BITMAP
FF
FF
99
99
18
18
18
18
7E
7E
ENDCHAR
STARTCHAR 0055
ENCODING 85
SWIDTH 600 0
DWIDTH 10 0
BBX 10 10 0 0
BITMAP
FBC0
FBC0
6180
6180
6180
6180
6180
7180
3F00
1E00
ENDCHAR
STARTCHAR 0056
ENCODING 86
SWIDTH 600 0
DWIDTH 10 0
BBX 10 10 0 0
BITMAP
F3C0
F3C0
6180
6180
3100
3300
1A00
1E00
0E00
0C00
ENDCHAR
STARTCHAR 0057
ENCODING 87
SWIDTH 600 0
DWIDTH 10 0
BBX 10 10 0 0
BITMAP
F3C0
F3C0
4CC0
6C80
6E80
7F80
7B80
7380
7380
3180
ENDCHAR
STARTCHAR 0058
ENCODING 88
SWIDTH 600 0
DWIDTH 10 0
BBX 10 10 0 0
BITMAP
F3C0
F3C0
3300
1E00
0E00
1E00
1F00
3380
F3C0
F3C0
ENDCHAR
STARTCHAR 0059
ENCODING 89
SWIDTH 600 0
DWIDTH 10 0
BBX 10 10 0 0
BITMAP
F3C0
F3C0
3300
1B00
1E00
0C00
0C00
0C00
3F00
3F00
ENDCHAR
STARTCHAR 005A
ENCODING 90
SWIDTH 600 0
DWIDTH 10 0
BBX 8 10 1 0
BITMAP
7F
7F
46
4C
18
38
33
63
FF
FF
ENDCHAR
STARTCHAR 005B
ENCODING 91
SWIDTH 600 0
DWIDTH 10 0
BBX 4 14 4 -3
BITMAP
F0
F0
C0
C0
C0
C0
C0
C0
C0
C0
C0
C0
F0
F0
ENDCHAR
STARTCHAR 005C
ENCODING 92
SWIDTH 600 0
DWIDTH 10 0
BBX 7 14 2 -2
BITMAP
80
80
C0
C0
60
60
30
30
18
18
0C
0C
06
06
ENDCHAR
STARTCHAR 005D
ENCODING 93
SWIDTH 600 0
DWIDTH 10 0
BBX 4 14 2 -3
BITMAP
F0
F0
30
30
30
30
30
30
30
30
30
30
F0
F0
ENDCHAR
STARTCHAR 005E
ENCODING 94
SWIDTH 600 0
DWIDTH 10 0
BBX 7 6 2 6
BITMAP
20
30
78
EC
CE
86
ENDCHAR
STARTCHAR 005F
ENCODING 95
SWIDTH 600 0
DWIDTH 10 0
BBX 10 2 0 -3
BITMAP
FFC0
FFC0
ENDCHAR
STARTCHAR 0060
ENCODING 96
SWIDTH 600 0
DWIDTH 10 0
BBX 3 3 3 8
BITMAP
80
C0
20
ENDCHAR
STARTCHAR 0061
ENCODING 97
SWIDTH 600 0
DWIDTH 10 0
BBX 9 8 1 0
BITMAP
7C00
7E00
3E00
FE00
C200
C600
FF80
7B80
ENDCHAR
STARTCHAR 0062
ENCODING 98
SWIDTH 600 0
DWIDTH 10 0
BBX 10 11 0 0
BITMAP
E000
E000
6000
6F00
7F80
7180
60C0
60C0
7180
FF80
FF00
ENDCHAR
STARTCHAR 0063
ENCODING 99
SWIDTH 600 0
DWIDTH 10 0
BBX 8 8 1 0
BITMAP
3F
7F
E3
C1
C0
C1
7F
3E
ENDCHAR
STARTCHAR 0064
ENCODING 100
SWIDTH 600 0
DWIDTH 10 0
BBX 9 11 1 0
BITMAP
0700
0700
0300
3F00
7F00
C300
8300
8300
C300
FF80
3F80
ENDCHAR
STARTCHAR 0065
ENCODING 101
SWIDTH 600 0
DWIDTH 10 0
BBX 8 8 1 0
BITMAP
3C
FE
C3
FF
FF
C0
FF
3E
ENDCHAR
STARTCHAR 0066
ENCODING 102
SWIDTH 600 0
DWIDTH 10 0
BBX 9 11 1 0
BITMAP
1F00
1F80
3000
7F00
7F00
3000
3000
3000
3000
FE00
FE00
ENDCHAR
STARTCHAR 0067
ENCODING 103
SWIDTH 600 0
DWIDTH 10 0
BBX 9 11 1 -3
BITMAP
3B80
FF80
C700
8300
8300
C700
FF00
3B00
0300
7E00
7C00
ENDCHAR
STARTCHAR 0068
ENCODING 104
SWIDTH 600 0
DWIDTH 10 0
BBX 10 11 0 0
BITMAP
E000
E000
2000
2E00
3F00
3180
2180
2180
2180
F3C0
F3C0
ENDCHAR
STARTCHAR 0069
ENCODING 105
SWIDTH 600 0
DWIDTH 10 0
BBX 8 11 1 0
BITMAP
18
18
00
78
78
18
18
18
18
FF
FF
ENDCHAR
STARTCHAR 006A
ENCODING 106
SWIDTH 600 0
DWIDTH 10 0
BBX 6 14 2 -3
BITMAP
18
18
00
FC
FC
0C
0C
0C
0C
0C
0C
0C
F8
F0
ENDCHAR
STARTCHAR 006B
ENCODING 107
SWIDTH 600 0
DWIDTH 10 0
BBX 9 11 1 0
BITMAP
E000
E000
6000
6F00
6F00
7C00
7000
7800
6C00
E780
E780
ENDCHAR
STARTCHAR 006C
ENCODING 108
SWIDTH 600 0
DWIDTH 10 0
BBX 8 11 1 0
BITMAP
78
78
18
18
18
18
18
18
18
FF
FF
ENDCHAR
STARTCHAR 006D
ENCODING 109
SWIDTH 600 0
DWIDTH 10 0
BBX 11 8 0 0
BITMAP
FB80
FF80
4CC0
4CC0
4CC0
4CC0
EEE0
EEC0
ENDCHAR
STARTCHAR 006E
ENCODING 110
SWIDTH 600 0
DWIDTH 10 0
BBX 10 8 0 0
BITMAP
6E00
7F00
3180
2180
2180
2180
F3C0
F3C0
ENDCHAR
STARTCHAR 006F
ENCODING 111
SWIDTH 600 0
DWIDTH 10 0
BBX 8 8 1 0
BITMAP
3C
7F
C3
81
81
C3
7F
3C
ENDCHAR
STARTCHAR 0070
ENCODING 112
SWIDTH 600 0
DWIDTH 10 0
BBX 10 11 0 -3
BITMAP
EF00
FF80
71C0
60C0
60C0
71C0
7F80
6F00
6000
F800
F800
ENDCHAR
STARTCHAR 0071
ENCODING 113
SWIDTH 600 0
DWIDTH 10 0
BBX 10 11 0 -3
BITMAP
3DC0
7FC0
6380
C180
C180
6380
7F80
3D80
0180
07C0
07C0
ENDCHAR
STARTCHAR 0072
ENCODING 114
SWIDTH 600 0
DWIDTH 10 0
BBX 9 8 1 0
BITMAP
F700
FF80
3800
3000
3000
3000
FE00
FE00
ENDCHAR
STARTCHAR 0073
ENCODING 115
SWIDTH 600 0
DWIDTH 10 0
BBX 8 8 1 0
BITMAP
3F
7F
43
7C
3F
C3
FF
FE
ENDCHAR
STARTCHAR 0074
ENCODING 116
SWIDTH 600 0
DWIDTH 10 0
BBX 9 10 0 0
BITMAP
3000
3000
FF00
FF00
3000
3000
3000
3180
3F80
1F00
ENDCHAR
STARTCHAR 0075
ENCODING 117
SWIDTH 600 0
DWIDTH 10 0
BBX 10 8 0 0
BITMAP
E780
E780
2180
2180
2180
3380
3FC0
1DC0
ENDCHAR
STARTCHAR 0076
ENCODING 118
SWIDTH 600 0
DWIDTH 10 0
BBX 10 8 0 0
BITMAP
F3C0
F3C0
3180
3300
1300
1E00
1E00
0C00
ENDCHAR
STARTCHAR 0077
ENCODING 119
SWIDTH 600 0
DWIDTH 10 0
BBX 10 8 0 0
BITMAP
F3C0
F3C0
6D80
6D80
2F80
3F00
3B00
3300
ENDCHAR
STARTCHAR 0078
ENCODING 120
SWIDTH 600 0
DWIDTH 10 0
BBX 10 8 0 0
BITMAP
7380
7380
3F00
1E00
1E00
3B00
73C0
F3C0
ENDCHAR
STARTCHAR 0079
ENCODING 121
SWIDTH 600 0
DWIDTH 10 0
BBX 10 11 0 -3
BITMAP
F3C0
F3C0
6180
3300
1300
1E00
0C00
0C00
1800
FC00
FC00
ENDCHAR
STARTCHAR 007A
ENCODING 122
SWIDTH 600 0
DWIDTH 10 0
BBX 8 8 1 0
BITMAP
7F
7F
4E
1C
38
73
FF
FF
ENDCHAR
STARTCHAR 007B
ENCODING 123
SWIDTH 600 0
DWIDTH 10 0
BBX 6 14 2 -3
BITMAP
1C
1C
30
30
30
30
E0
E0
30
30
30
30
3C
1C
ENDCHAR
STARTCHAR 007C
ENCODING 124
SWIDTH 600 0
DWIDTH 10 0
BBX 2 14 4 -3
BITMAP
40
C0
C0
C0
C0
C0
C0
C0
C0
C0
C0
C0
C0
40
ENDCHAR
STARTCHAR 007D
ENCODING 125
SWIDTH 600 0
DWIDTH 10 0
BBX 5 14 3 -3
BITMAP
C0
E0
60
60
60
60
38
38
60
60
60
60
E0
C0
ENDCHAR
STARTCHAR 007E
ENCODING 126
SWIDTH 600 0
DWIDTH 10 0
BBX 8 4 1 3
BITMAP
70
FB
DF
0E
ENDCHAR
STARTCHAR 00A0
ENCODING 160
SWIDTH 600 0
DWIDTH 10 0
BBX 0 0 0 0
BITMAP
ENDCHAR
STARTCHAR 00A1
ENCODING 161
SWIDTH 600 0
DWIDTH 10 0
BBX 2 11 4 -4
BITMAP
C0
C0
00
C0
C0
C0
C0
C0
C0
C0
C0
ENDCHAR
STARTCHAR 00A2
ENCODING 162
SWIDTH 600 0
DWIDTH 10 0
BBX 7 12 1 -1
BITMAP
18
18
18
3E
62
C2
C0
62
7E
1C
18
18
ENDCHAR
STARTCHAR 00A3
ENCODING 163
SWIDTH 600 0
DWIDTH 10 0
BBX 8 10 1 0
BITMAP
3C
7E
60
60
F8
F8
30
20
FF
FF
ENDCHAR
STARTCHAR 00A4
ENCODING 164
SWIDTH 600 0
DWIDTH 10 0
BBX 8 7 1 2
BITMAP
FF
7E
66
62
66
7E
FF
ENDCHAR
STARTCHAR 00A5
ENCODING 165
SWIDTH 600 0
DWIDTH 10 0
BBX 10 10 0 0
BITMAP
F3C0
F3C0
3300
1B00
1E00
3F00
0C00
3F00
3F00
3F00
ENDCHAR
STARTCHAR 00A6
ENCODING 166
SWIDTH 600 0
DWIDTH 10 0
BBX 2 13 4 -2
BITMAP
C0
C0
C0
C0
C0
00
00
C0
C0
C0
C0
C0
40
ENDCHAR
STARTCHAR 00A7
ENCODING 167
SWIDTH 600 0
DWIDTH 10 0
BBX 9 13 1 -3
BITMAP
3F00
7F00
6300
F000
B800
8E00
E300
7180
1D80
0700
C600
FE00
FC00
ENDCHAR
STARTCHAR 00A8
ENCODING 168
SWIDTH 600 0
DWIDTH 10 0
BBX 6 2 2 9
BITMAP
CC
CC
ENDCHAR
STARTCHAR 00A9
ENCODING 169
SWIDTH 600 0
DWIDTH 10 0
BBX 10 11 0 0
BITMAP
1E00
7F80
FFC0
DE40
B040
B040
B040
DEC0
6F80
3F00
1E00
ENDCHAR
STARTCHAR 00AA
ENCODING 170
SWIDTH 600 0
DWIDTH 10 0
BBX 6 7 2 3
BITMAP
78
78
F8
FC
7C
FC
FC
ENDCHAR
STARTCHAR 00AB
ENCODING 171
SWIDTH 600 0
DWIDTH 10 0
BBX 9 7 1 0
BITMAP
1980
3300
6600
CC00
6600
1300
0880
ENDCHAR
STARTCHAR 00AC
ENCODING 172
SWIDTH 600 0
DWIDTH 10 0
BBX 7 5 1 3
BITMAP
FE
FE
06
06
06
ENDCHAR
STARTCHAR 00AD
ENCODING 173
SWIDTH 600 0
DWIDTH 10 0
BBX 8 2 1 4
BITMAP
FF
FF
ENDCHAR
STARTCHAR 00AE
ENCODING 174
SWIDTH 600 0
DWIDTH 10 0
BBX 10 11 0 0
BITMAP
1E00
7F80
7D80
DEC0
9A40
9E40
9C40
DFC0
7BC0
7F80
1E00
ENDCHAR
STARTCHAR 00AF
ENCODING 175
SWIDTH 600 0
DWIDTH 10 0
BBX 6 2 2 9
BITMAP
FC
FC
ENDCHAR
STARTCHAR 00B0
ENCODING 176
SWIDTH 600 0
DWIDTH 10 0
BBX 6 6 2 4
BITMAP
78
4C
84
84
4C
78
ENDCHAR
STARTCHAR 00B1
ENCODING 177
SWIDTH 600 0
DWIDTH 10 0
BBX 8 11 1 0
BITMAP
18
18
18
FF
FF
18
18
00
00
FF
FF
ENDCHAR
STARTCHAR 00B2
ENCODING 178
SWIDTH 600 0
DWIDTH 10 0
BBX 4 6 3 7
BITMAP
F0
90
10
20
50
F0
ENDCHAR
STARTCHAR 00B3
ENCODING 179
SWIDTH 600 0
DWIDTH 10 0
BBX 4 6 3 7
BITMAP
F0
10
10
70
10
F0
ENDCHAR
STARTCHAR 00B4
ENCODING 180
SWIDTH 600 0
DWIDTH 10 0
BBX 3 3 4 8
BITMAP
20
60
C0
ENDCHAR
STARTCHAR 00B5
ENCODING 181
SWIDTH 600 0
DWIDTH 10 0
BBX 10 10 0 -2
BITMAP
E780
E780
2180
2180
2180
2180
3FC0
3FC0
2000
2000
ENDCHAR
STARTCHAR 00B6
ENCODING 182
SWIDTH 600 0
DWIDTH 10 0
BBX 8 13 1 -3
BITMAP
3F
FF
CA
CA
CA
6A
3A
0A
0A
0A
0A
7F
7F
ENDCHAR
STARTCHAR 00B7
ENCODING 183
SWIDTH 600 0
DWIDTH 10 0
BBX 2 2 4 3
BITMAP
C0
C0
ENDCHAR
STARTCHAR 00B8
ENCODING 184
SWIDTH 600 0
DWIDTH 10 0
BBX 4 4 3 -3
BITMAP
60
70
F0
60
ENDCHAR
STARTCHAR 00B9
ENCODING 185
SWIDTH 600 0
DWIDTH 10 0
BBX 4 6 3 8
BITMAP
E0
20
20
20
20
F0
ENDCHAR
STARTCHAR 00BA
ENCODING 186
SWIDTH 600 0
DWIDTH 10 0
BBX 6 7 2 3
BITMAP
78
FC
C4
FC
78
FC
FC
ENDCHAR
STARTCHAR 00BB
ENCODING 187
SWIDTH 600 0
DWIDTH 10 0
BBX 8 7 1 0
BITMAP
98
CC
37
3B
66
CC
80
ENDCHAR
STARTCHAR 00BC
ENCODING 188
SWIDTH 600 0
DWIDTH 10 0
BBX 12 10 -1 0
BITMAP
2080
6180
2100
2360
2260
FEE0
0CA0
09F0
0820
0070
ENDCHAR
STARTCHAR 00BD
ENCODING 189
SWIDTH 600 0
DWIDTH 10 0
BBX 12 10 -1 0
BITMAP
2080
6180
2100
23E0
2320
FC30
0420
0840
1890
01F0
ENDCHAR
STARTCHAR 00BE
ENCODING 190
SWIDTH 600 0
DWIDTH 10 0
BBX 12 11 -1 0
BITMAP
7000
0880
0980
3100
0B60
0A60
F4E0
0CA0
09F0
0820
0070
ENDCHAR
STARTCHAR 00BF
ENCODING 191
SWIDTH 600 0
DWIDTH 10 0
BBX 7 10 1 -3
BITMAP
18
18
00
18
38
60
C0
C2
7E
3C
ENDCHAR
STARTCHAR 00C0
ENCODING 192
SWIDTH 600 0
DWIDTH 10 0
BBX 10 13 0 0
BITMAP
1800
0C00
0400
7C00
7E00
1E00
1E00
3300
3300
7F80
7F80
F3C0
F3C0
ENDCHAR
STARTCHAR 00C1
ENCODING 193
SWIDTH 600 0
DWIDTH 10 0
BBX 10 13 0 0
BITMAP
0400
0C00
0000
7C00
7E00
1E00
1E00
3300
3300
7F80
7F80
F3C0
F3C0
ENDCHAR
STARTCHAR 00C2
ENCODING 194
SWIDTH 600 0
DWIDTH 10 0
BBX 10 13 0 0
BITMAP
0C00
3E00
2100
7C00
7E00
1E00
1E00
3300
3300
7F80
7F80
F3C0
F3C0
ENDCHAR
STARTCHAR 00C3
ENCODING 195
SWIDTH 600 0
DWIDTH 10 0
BBX 10 14 0 0
BITMAP
1900
3F00
2600
0000
7C00
7E00
1E00
1E00
3300
3300
7F80
7F80
F3C0
F3C0
ENDCHAR
STARTCHAR 00C4
ENCODING 196
SWIDTH 600 0
DWIDTH 10 0
BBX 10 13 0 0
BITMAP
3300
3300
0000
7C00
7E00
1E00
1E00
3300
3300
7F80
7F80
F3C0
F3C0
ENDCHAR
STARTCHAR 00C5
ENCODING 197
SWIDTH 600 0
DWIDTH 10 0
BBX 10 13 0 0
BITMAP
0C00
1600
0C00
7C00
7E00
1E00
1E00
3300
3300
7F80
7F80
F3C0
F3C0
ENDCHAR
STARTCHAR 00C6
ENCODING 198
SWIDTH 600 0
DWIDTH 10 0
BBX 10 10 0 0
BITMAP
3FC0
3FC0
14C0
35C0
3700
3700
7D00
7C40
EFC0
EFC0
ENDCHAR
STARTCHAR 00C7
ENCODING 199
SWIDTH 600 0
DWIDTH 10 0
BBX 9 13 1 -3
BITMAP
3F00
7F00
C300
C100
8000
8000
8000
C180
7F00
3E00
0C00
3C00
1800
ENDCHAR
STARTCHAR 00C8
ENCODING 200
SWIDTH 600 0
DWIDTH 10 0
BBX 9 13 0 0
BITMAP
1800
0C00
0400
FF80
FF80
2180
2580
3C00
3C00
2480
2080
FF80
FF80
ENDCHAR
STARTCHAR 00C9
ENCODING 201
SWIDTH 600 0
DWIDTH 10 0
BBX 9 13 0 0
BITMAP
0600
0C00
0800
FF80
FF80
2180
2580
3C00
3C00
2480
2080
FF80
FF80
ENDCHAR
STARTCHAR 00CA
ENCODING 202
SWIDTH 600 0
DWIDTH 10 0
BBX 9 13 0 0
BITMAP
0C00
3E00
2100
FF80
FF80
2180
2580
3C00
3C00
2480
2080
FF80
FF80
ENDCHAR
STARTCHAR 00CB
ENCODING 203
SWIDTH 600 0
DWIDTH 10 0
BBX 9 13 0 0
BITMAP
1300
3300
0000
FF80
FF80
2180
2580
3C00
3C00
2480
2080
FF80
FF80
ENDCHAR
STARTCHAR 00CC
ENCODING 204
SWIDTH 600 0
DWIDTH 10 0
BBX 8 13 1 0
BITMAP
30
18
08
FF
7F
18
18
18
18
18
18
FF
7F
ENDCHAR
STARTCHAR 00CD
ENCODING 205
SWIDTH 600 0
DWIDTH 10 0
BBX 8 13 1 0
BITMAP
04
18
00
FF
7F
18
18
18
18
18
18
FF
7F
ENDCHAR
STARTCHAR 00CE
ENCODING 206
SWIDTH 600 0
DWIDTH 10 0
BBX 8 13 1 0
BITMAP
18
3E
42
FF
7F
18
18
18
18
18
18
FF
7F
ENDCHAR
STARTCHAR 00CF
ENCODING 207
SWIDTH 600 0
DWIDTH 10 0
BBX 8 13 1 0
BITMAP
26
66
00
FF
7F
18
18
18
18
18
18
FF
7F
ENDCHAR
STARTCHAR 00D0
ENCODING 208
SWIDTH 600 0
DWIDTH 10 0
BBX 9 10 0 0
BITMAP
FE00
FF00
6180
6180
F880
F880
6180
6180
FF00
FE00
ENDCHAR
STARTCHAR 00D1
ENCODING 209
SWIDTH 600 0
DWIDTH 10 0
BBX 10 14 0 0
BITMAP
1900
3F00
2600
0000
E3C0
F3C0
7980
7980
6D80
6F80
6780
6380
FB80
F980
ENDCHAR
STARTCHAR 00D2
ENCODING 210
SWIDTH 600 0
DWIDTH 10 0
BBX 10 13 0 0
BITMAP
1800
0C00
0400
1E00
3F80
6180
40C0
C0C0
C0C0
40C0
6180
3F00
1E00
ENDCHAR
STARTCHAR 00D3
ENCODING 211
SWIDTH 600 0
DWIDTH 10 0
BBX 10 13 0 0
BITMAP
0600
0C00
0800
1E00
3F80
6180
40C0
C0C0
C0C0
40C0
6180
3F00
1E00
ENDCHAR
STARTCHAR 00D4
ENCODING 212
SWIDTH 600 0
DWIDTH 10 0
BBX 10 13 0 0
BITMAP
0C00
1F00
2100
1E00
3F80
6180
40C0
C0C0
C0C0
40C0
6180
3F00
1E00
ENDCHAR
STARTCHAR 00D5
ENCODING 213
SWIDTH 600 0
DWIDTH 10 0
BBX 10 14 0 0
BITMAP
1900
3F00
2600
0000
1E00
3F80
6180
40C0
C0C0
C0C0
40C0
6180
3F00
1E00
ENDCHAR
STARTCHAR 00D6
ENCODING 214
SWIDTH 600 0
DWIDTH 10 0
BBX 10 13 0 0
BITMAP
3300
3300
0000
1E00
3F80
6180
40C0
C0C0
C0C0
40C0
6180
3F00
1E00
ENDCHAR
STARTCHAR 00D7
ENCODING 215
SWIDTH 600 0
DWIDTH 10 0
BBX 6 7 2 1
BITMAP
C4
EC
78
38
7C
CC
84
ENDCHAR
STARTCHAR 00D8
ENCODING 216
SWIDTH 600 0
DWIDTH 10 0
BBX 10 12 0 -1
BITMAP
0040
1EC0
3F80
6380
43C0
C6C0
CCC0
58C0
7180
7F00
DE00
C000
ENDCHAR
STARTCHAR 00D9
ENCODING 217
SWIDTH 600 0
DWIDTH 10 0
BBX 10 13 0 0
BITMAP
1800
0C00
0400
FBC0
FBC0
6180
6180
6180
6180
6180
7180
3F00
1E00
ENDCHAR
STARTCHAR 00DA
ENCODING 218
SWIDTH 600 0
DWIDTH 10 0
BBX 10 13 0 0
BITMAP
0600
0C00
0800
FBC0
FBC0
6180
6180
6180
6180
6180
7180
3F00
1E00
ENDCHAR
STARTCHAR 00DB
ENCODING 219
SWIDTH 600 0
DWIDTH 10 0
BBX 10 13 0 0
BITMAP
0C00
1F00
2100
FBC0
FBC0
6180
6180
6180
6180
6180
7180
3F00
1E00
ENDCHAR
STARTCHAR 00DC
ENCODING 220
SWIDTH 600 0
DWIDTH 10 0
BBX 10 13 0 0
BITMAP
1300
3300
0000
FBC0
FBC0
6180
6180
6180
6180
6180
7180
3F00
1E00
ENDCHAR
STARTCHAR 00DD
ENCODING 221
SWIDTH 600 0
DWIDTH 10 0
BBX 10 13 0 0
BITMAP
0600
0C00
0800
F3C0
F3C0
3300
1B00
1E00
0C00
0C00
0C00
3F00
3F00
ENDCHAR
STARTCHAR 00DE
ENCODING 222
SWIDTH 600 0
DWIDTH 10 0
BBX 9 10 0 0
BITMAP
FC00
FC00
3E00
3F80
2180
2180
3F80
3E00
FC00
FC00
ENDCHAR
STARTCHAR 00DF
ENCODING 223
SWIDTH 600 0
DWIDTH 10 0
BBX 9 11 0 0
BITMAP
1C00
3E00
2300
2300
2E00
2F00
2380
2180
2180
FF80
F700
ENDCHAR
STARTCHAR 00E0
ENCODING 224
SWIDTH 600 0
DWIDTH 10 0
BBX 9 11 1 0
BITMAP
2000
1800
0800
7C00
7E00
3E00
FE00
C200
C600
FF80
7B80
ENDCHAR
STARTCHAR 00E1
ENCODING 225
SWIDTH 600 0
DWIDTH 10 0
BBX 9 11 1 0
BITMAP
0C00
1800
1000
7C00
7E00
3E00
FE00
C200
C600
FF80
7B80
ENDCHAR
STARTCHAR 00E2
ENCODING 226
SWIDTH 600 0
DWIDTH 10 0
BBX 9 11 1 0
BITMAP
1800
3C00
4600
7C00
7E00
3E00
FE00
C200
C600
FF80
7B80
ENDCHAR
STARTCHAR 00E3
ENCODING 227
SWIDTH 600 0
DWIDTH 10 0
BBX 9 12 1 0
BITMAP
2200
7E00
5E00
0000
7C00
7E00
3E00
FE00
C200
C600
FF80
7B80
ENDCHAR
STARTCHAR 00E4
ENCODING 228
SWIDTH 600 0
DWIDTH 10 0
BBX 9 11 1 0
BITMAP
0400
6600
0000
7C00
7E00
3E00
FE00
C200
C600
FF80
7B80
ENDCHAR
STARTCHAR 00E5
ENCODING 229
SWIDTH 600 0
DWIDTH 10 0
BBX 9 11 1 0
BITMAP
1800
3800
3800
7C00
7E00
3E00
FE00
C200
C600
FF80
7B80
ENDCHAR
STARTCHAR 00E6
ENCODING 230
SWIDTH 600 0
DWIDTH 10 0
BBX 10 8 0 0
BITMAP
7B80
7FC0
7FC0
FFC0
CC00
CE00
FFC0
7FC0
ENDCHAR
STARTCHAR 00E7
ENCODING 231
SWIDTH 600 0
DWIDTH 10 0
BBX 8 11 1 -3
BITMAP
3F
7F
E3
C1
C0
C1
7F
3E
0C
3C
18
ENDCHAR
STARTCHAR 00E8
ENCODING 232
SWIDTH 600 0
DWIDTH 10 0
BBX 8 11 1 0
BITMAP
30
18
08
3C
FE
C3
FF
FF
C0
FF
3E
ENDCHAR
STARTCHAR 00E9
ENCODING 233
SWIDTH 600 0
DWIDTH 10 0
BBX 8 11 1 0
BITMAP
04
18
10
3C
FE
C3
FF
FF
C0
FF
3E
ENDCHAR
STARTCHAR 00EA
ENCODING 234
SWIDTH 600 0
DWIDTH 10 0
BBX 8 11 1 0
BITMAP
18
3C
46
3C
FE
C3
FF
FF
C0
FF
3E
ENDCHAR
STARTCHAR 00EB
ENCODING 235
SWIDTH 600 0
DWIDTH 10 0
BBX 8 10 1 0
BITMAP
66
00
3C
FE
C3
FF
FF
C0
FF
3E
ENDCHAR
STARTCHAR 00EC
ENCODING 236
SWIDTH 600 0
DWIDTH 10 0
BBX 8 11 1 0
BITMAP
20
18
08
78
78
18
18
18
18
FF
FF
ENDCHAR
STARTCHAR 00ED
ENCODING 237
SWIDTH 600 0
DWIDTH 10 0
BBX 8 11 1 0
BITMAP
0C
18
10
78
78
18
18
18
18
FF
FF
ENDCHAR
STARTCHAR 00EE
ENCODING 238
SWIDTH 600 0
DWIDTH 10 0
BBX 8 11 1 0
BITMAP
18
3C
46
78
78
18
18
18
18
FF
FF
ENDCHAR
STARTCHAR 00EF
ENCODING 239
SWIDTH 600 0
DWIDTH 10 0
BBX 8 11 1 0
BITMAP
20
66
00
78
78
18
18
18
18
FF
FF
ENDCHAR
STARTCHAR 00F0
ENCODING 240
SWIDTH 600 0
DWIDTH 10 0
BBX 8 11 1 0
BITMAP
7C
3C
66
3F
7F
C3
C1
C1
C3
7F
3C
ENDCHAR
STARTCHAR 00F1
ENCODING 241
SWIDTH 600 0
DWIDTH 10 0
BBX 10 12 0 0
BITMAP
1900
3F00
2600
0000
6E00
7F00
3180
2180
2180
2180
F3C0
F3C0
ENDCHAR
STARTCHAR 00F2
ENCODING 242
SWIDTH 600 0
DWIDTH 10 0
BBX 8 11 1 0
BITMAP
30
18
08
3C
7F
C3
81
81
C3
7F
3C
ENDCHAR
STARTCHAR 00F3
ENCODING 243
SWIDTH 600 0
DWIDTH 10 0
BBX 8 11 1 0
BITMAP
04
18
10
3C
7F
C3
81
81
C3
7F
3C
ENDCHAR
STARTCHAR 00F4
ENCODING 244
SWIDTH 600 0
DWIDTH 10 0
BBX 8 11 1 0
BITMAP
18
3C
46
3C
7F
C3
81
81
C3
7F
3C
ENDCHAR
STARTCHAR 00F5
ENCODING 245
SWIDTH 600 0
DWIDTH 10 0
BBX 8 12 1 0
BITMAP
32
7E
4C
00
3C
7F
C3
81
81
C3
7F
3C
ENDCHAR
STARTCHAR 00F6
ENCODING 246
SWIDTH 600 0
DWIDTH 10 0
BBX 8 10 1 0
BITMAP
66
20
3C
7F
C3
81
81
C3
7F
3C
ENDCHAR
STARTCHAR 00F7
ENCODING 247
SWIDTH 600 0
DWIDTH 10 0
BBX 8 9 1 0
BITMAP
18
18
00
FF
FF
00
00
18
18
ENDCHAR
STARTCHAR 00F8
ENCODING 248
SWIDTH 600 0
DWIDTH 10 0
BBX 10 10 0 -1
BITMAP
0080
1FC0
3F80
6380
4680
5C80
7980
7F80
7E00
C000
ENDCHAR
STARTCHAR 00F9
ENCODING 249
SWIDTH 600 0
DWIDTH 10 0
BBX 10 11 0 0
BITMAP
1800
0C00
0400
E780
E780
2180
2180
2180
3380
3FC0
1DC0
ENDCHAR
STARTCHAR 00FA
ENCODING 250
SWIDTH 600 0
DWIDTH 10 0
BBX 10 11 0 0
BITMAP
0600
0C00
0800
E780
E780
2180
2180
2180
3380
3FC0
1DC0
ENDCHAR
STARTCHAR 00FB
ENCODING 251
SWIDTH 600 0
DWIDTH 10 0
BBX 10 11 0 0
BITMAP
0C00
1E00
2300
E780
E780
2180
2180
2180
3380
3FC0
1DC0
ENDCHAR
STARTCHAR 00FC
ENCODING 252
SWIDTH 600 0
DWIDTH 10 0
BBX 10 11 0 0
BITMAP
1200
3300
0000
E780
E780
2180
2180
2180
3380
3FC0
1DC0
ENDCHAR
STARTCHAR 00FD
ENCODING 253
SWIDTH 600 0
DWIDTH 10 0
BBX 10 14 0 -3
BITMAP
0200
0600
0400
F3C0
F3C0
6180
3300
1300
1E00
0C00
0C00
1800
FC00
FC00
ENDCHAR
STARTCHAR 00FE
ENCODING 254
SWIDTH 600 0
DWIDTH 10 0
BBX 10 14 0 -3
BITMAP
E000
E000
6000
6F00
7F80
7180
60C0
60C0
7180
7F80
6F00
6000
F800
F800
ENDCHAR
STARTCHAR 00FF
ENCODING 255
SWIDTH 600 0
DWIDTH 10 0
BBX 10 13 0 -2
BITMAP
3300
0000
F3C0
F3C0
6180
3300
1300
1E00
0C00
0C00
1800
FC00
FC00
ENDCHAR
STARTCHAR 0100
ENCODING 256
SWIDTH 600 0
DWIDTH 10 0
BBX 10 13 0 0
BITMAP
7E00
7E00
0000
7C00
7E00
1E00
1E00
3300
3300
7F80
7F80
F3C0
F3C0
ENDCHAR
STARTCHAR 0101
ENCODING 257
SWIDTH 600 0
DWIDTH 10 0
BBX 9 11 1 0
BITMAP
3E00
7E00
0000
7C00
7E00
3E00
FE00
C200
C600
FF80
7B80
ENDCHAR
STARTCHAR 0102
ENCODING 258
SWIDTH 600 0
DWIDTH 10 0
BBX 10 13 0 0
BITMAP
3F00
0C00
0000
7C00
7E00
1E00
1E00
3300
3300
7F80
7F80
F3C0
F3C0
ENDCHAR
STARTCHAR 0103
ENCODING 259
SWIDTH 600 0
DWIDTH 10 0
BBX 9 11 1 0
BITMAP
7E00
3C00
0000
7C00
7E00
3E00
FE00
C200
C600
FF80
7B80
ENDCHAR
STARTCHAR 0104
ENCODING 260
SWIDTH 600 0
DWIDTH 10 0
BBX 10 13 0 -3
BITMAP
7C00
7E00
1E00
1E00
3300
3300
7F80
7F80
F3C0
F3C0
0100
01C0
01C0
ENDCHAR
STARTCHAR 0105
ENCODING 261
SWIDTH 600 0
DWIDTH 10 0
BBX 9 11 1 -3
BITMAP
7C00
7E00
3E00
FE00
C200
C600
FF80
7B00
0600
0780
0300
ENDCHAR
STARTCHAR 0106
ENCODING 262
SWIDTH 600 0
DWIDTH 10 0
BBX 9 13 1 0
BITMAP
0600
0C00
0800
3F00
7F00
C300
C100
8000
8000
8000
C000
7F80
3F00
ENDCHAR
STARTCHAR 0107
ENCODING 263
SWIDTH 600 0
DWIDTH 10 0
BBX 8 11 1 0
BITMAP
04
0C
18
3F
7F
E3
C1
C0
C1
7F
3E
ENDCHAR
STARTCHAR 0108
ENCODING 264
SWIDTH 600 0
DWIDTH 10 0
BBX 9 13 1 0
BITMAP
1800
3E00
4200
3F00
7F00
C300
C100
8000
8000
8000
C000
7F80
3F00
ENDCHAR
STARTCHAR 0109
ENCODING 265
SWIDTH 600 0
DWIDTH 10 0
BBX 8 11 1 0
BITMAP
08
3C
62
3F
7F
E3
C1
C0
C1
7F
3E
ENDCHAR
STARTCHAR 010A
ENCODING 266
SWIDTH 600 0
DWIDTH 10 0
BBX 9 13 1 0
BITMAP
1800
1800
0000
3F00
7F00
C300
C100
8000
8000
8000
C000
7F80
3F00
ENDCHAR
STARTCHAR 010B
ENCODING 267
SWIDTH 600 0
DWIDTH 10 0
BBX 8 11 1 0
BITMAP
08
18
00
3F
7F
E3
C1
C0
C1
7F
3E
ENDCHAR
STARTCHAR 010C
ENCODING 268
SWIDTH 600 0
DWIDTH 10 0
BBX 9 13 1 0
BITMAP
7600
1C00
0000
3F00
7F00
C300
8100
8000
8000
C000
E000
7F80
3E00
ENDCHAR
STARTCHAR 010D
ENCODING 269
SWIDTH 600 0
DWIDTH 10 0
BBX 8 11 1 0
BITMAP
66
3C
08
3F
7F
E3
C1
C0
C1
7F
3E
ENDCHAR
STARTCHAR 010E
ENCODING 270
SWIDTH 600 0
DWIDTH 10 0
BBX 9 13 0 0
BITMAP
3700
1C00
0000
FE00
FF00
6180
6180
6080
6080
6180
6180
FF00
FE00
ENDCHAR
STARTCHAR 010F
ENCODING 271
SWIDTH 600 0
DWIDTH 10 0
BBX 12 11 0 0
BITMAP
0700
0730
0160
3D40
7F00
E300
C100
C100
C300
7FC0
3DC0
ENDCHAR
STARTCHAR 0110
ENCODING 272
SWIDTH 600 0
DWIDTH 10 0
BBX 9 10 0 0
BITMAP
FE00
FF00
6180
6180
F880
F880
6180
6180
FF00
FE00
ENDCHAR
STARTCHAR 0111
ENCODING 273
SWIDTH 600 0
DWIDTH 10 0
BBX 10 11 0 0
BITMAP
0380
0380
01C0
3DC0
7F80
6380
C180
C180
E380
7FC0
3FC0
ENDCHAR
STARTCHAR 0112
ENCODING 274
SWIDTH 600 0
DWIDTH 10 0
BBX 9 13 0 0
BITMAP
3F00
3F00
0000
FF80
FF80
2180
2580
3C00
3C00
2480
2080
FF80
FF80
ENDCHAR
STARTCHAR 0113
ENCODING 275
SWIDTH 600 0
DWIDTH 10 0
BBX 8 11 1 0
BITMAP
3E
7E
00
3C
FE
C3
FF
FF
C0
FF
3E
ENDCHAR
STARTCHAR 0114
ENCODING 276
SWIDTH 600 0
DWIDTH 10 0
BBX 9 13 0 0
BITMAP
3F00
0C00
0000
FF80
FF80
2180
2580
3C00
3C00
2480
2080
FF80
FF80
ENDCHAR
STARTCHAR 0115
ENCODING 277
SWIDTH 600 0
DWIDTH 10 0
BBX 8 11 1 0
BITMAP
7E
3C
00
3C
FE
C3
FF
FF
C0
FF
3E
ENDCHAR
STARTCHAR 0116
ENCODING 278
SWIDTH 600 0
DWIDTH 10 0
BBX 9 13 0 0
BITMAP
0400
0C00
0000
FF80
FF80
2180
2580
3C00
3C00
2480
2080
FF80
FF80
ENDCHAR
STARTCHAR 0117
ENCODING 279
SWIDTH 600 0
DWIDTH 10 0
BBX 8 10 1 1
BITMAP
18
00
3C
FE
C3
FF
FF
C0
FF
3E
ENDCHAR
STARTCHAR 0118
ENCODING 280
SWIDTH 600 0
DWIDTH 10 0
BBX 10 13 0 -3
BITMAP
FF80
FF80
2180
2580
3C00
3C00
2400
2080
FF80
FF80
0100
03C0
01C0
ENDCHAR
STARTCHAR 0119
ENCODING 281
SWIDTH 600 0
DWIDTH 10 0
BBX 8 11 1 -3
BITMAP
3C
FE
C3
FF
FF
C3
FF
3C
08
0E
0E
ENDCHAR
STARTCHAR 011A
ENCODING 282
SWIDTH 600 0
DWIDTH 10 0
BBX 9 13 0 0
BITMAP
3B00
0E00
0000
FF80
FF80
2180
2580
3C00
3C00
2480
2080
FF80
FF80
ENDCHAR
STARTCHAR 011B
ENCODING 283
SWIDTH 600 0
DWIDTH 10 0
BBX 8 11 1 0
BITMAP
66
3C
00
3C
FE
C3
FF
FF
C0
FF
3E
ENDCHAR
STARTCHAR 011C
ENCODING 284
SWIDTH 600 0
DWIDTH 10 0
BBX 9 13 1 0
BITMAP
1800
3600
4200
3F00
7F00
C300
C100
8000
8F80
8F80
C100
7F00
3E00
ENDCHAR
STARTCHAR 011D
ENCODING 285
SWIDTH 600 0
DWIDTH 10 0
BBX 9 14 1 -3
BITMAP
1800
3C00
4600
3B80
FF80
C700
8300
8300
C700
FF00
3B00
0300
7E00
7C00
ENDCHAR
STARTCHAR 011E
ENCODING 286
SWIDTH 600 0
DWIDTH 10 0
BBX 9 13 1 0
BITMAP
3E00
0800
0000
3F00
7F00
C300
C100
8000
8F80
8F80
C100
7F00
3E00
ENDCHAR
STARTCHAR 011F
ENCODING 287
SWIDTH 600 0
DWIDTH 10 0
BBX 9 14 1 -3
BITMAP
7E00
3C00
0000
3B80
FF80
C700
8300
8300
C700
FF00
3B00
0300
7E00
7C00
ENDCHAR
STARTCHAR 0120
ENCODING 288
SWIDTH 600 0
DWIDTH 10 0
BBX 9 13 1 0
BITMAP
1800
1800
0000
3F00
7F00
C300
C100
8000
8F80
8F80
C100
7F00
3E00
ENDCHAR
STARTCHAR 0121
ENCODING 289
SWIDTH 600 0
DWIDTH 10 0
BBX 9 13 1 -2
BITMAP
1800
0000
3B80
FF80
C700
8300
8300
C700
FF00
3B00
0300
7E00
7C00
ENDCHAR
STARTCHAR 0122
ENCODING 290
SWIDTH 600 0
DWIDTH 10 0
BBX 9 13 1 -3
BITMAP
3F00
7F00
C300
C100
8000
8F80
8F80
C100
7F00
3E00
1800
1800
1000
ENDCHAR
STARTCHAR 0123
ENCODING 291
SWIDTH 600 0
DWIDTH 10 0
BBX 9 15 1 -3
BITMAP
0800
1800
3000
0000
3B80
FF80
C700
8300
8300
C700
FF00
3B00
0300
7E00
7C00
ENDCHAR
STARTCHAR 0124
ENCODING 292
SWIDTH 600 0
DWIDTH 10 0
BBX 10 13 0 0
BITMAP
0C00
1F00
2100
7B80
7B80
2180
2180
3F80
3F80
2180
2180
FBC0
FBC0
ENDCHAR
STARTCHAR 0125
ENCODING 293
SWIDTH 600 0
DWIDTH 10 0
BBX 10 13 0 0
BITMAP
0E00
1B00
E000
E000
2000
2E00
3F00
3180
2180
2180
2180
F3C0
F3C0
ENDCHAR
STARTCHAR 0126
ENCODING 294
SWIDTH 600 0
DWIDTH 10 0
BBX 10 10 0 0
BITMAP
7B80
7B80
2180
61C0
3F80
3F80
2180
2180
FBC0
FBC0
ENDCHAR
STARTCHAR 0127
ENCODING 295
SWIDTH 600 0
DWIDTH 10 0
BBX 10 11 0 0
BITMAP
FC00
FC00
2000
2E00
3F00
3180
2180
2180
2180
F3C0
F3C0
ENDCHAR
STARTCHAR 0128
ENCODING 296
SWIDTH 600 0
DWIDTH 10 0
BBX 8 14 1 0
BITMAP
32
7E
5E
00
FF
7F
18
18
18
18
18
18
FF
7F
ENDCHAR
STARTCHAR 0129
ENCODING 297
SWIDTH 600 0
DWIDTH 10 0
BBX 8 12 1 0
BITMAP
32
7E
4E
00
78
78
18
18
18
18
FF
FF
ENDCHAR
STARTCHAR 012A
ENCODING 298
SWIDTH 600 0
DWIDTH 10 0
BBX 8 13 1 0
BITMAP
7E
7E
00
FF
7F
18
18
18
18
18
18
FF
7F
ENDCHAR
STARTCHAR 012B
ENCODING 299
SWIDTH 600 0
DWIDTH 10 0
BBX 8 11 1 0
BITMAP
3E
7E
00
78
78
18
18
18
18
FF
FF
ENDCHAR
STARTCHAR 012C
ENCODING 300
SWIDTH 600 0
DWIDTH 10 0
BBX 8 13 1 0
BITMAP
7E
08
00
FF
7F
18
18
18
18
18
18
FF
7F
ENDCHAR
STARTCHAR 012D
ENCODING 301
SWIDTH 600 0
DWIDTH 10 0
BBX 8 11 1 0
BITMAP
7E
3C
00
78
78
18
18
18
18
FF
FF
ENDCHAR
STARTCHAR 012E
ENCODING 302
SWIDTH 600 0
DWIDTH 10 0
BBX 8 13 1 -3
BITMAP
FF
7F
18
18
18
18
18
18
FF
7F
0C
0F
06
ENDCHAR
STARTCHAR 012F
ENCODING 303
SWIDTH 600 0
DWIDTH 10 0
BBX 8 14 1 -3
BITMAP
18
18
00
78
78
18
18
18
18
FF
FF
04
07
07
ENDCHAR
STARTCHAR 0130
ENCODING 304
SWIDTH 600 0
DWIDTH 10 0
BBX 8 13 1 0
BITMAP
18
18
00
FF
7F
18
18
18
18
18
18
FF
7F
ENDCHAR
STARTCHAR 0131
ENCODING 305
SWIDTH 600 0
DWIDTH 10 0
BBX 8 8 1 0
BITMAP
78
78
18
18
18
18
FF
FF
ENDCHAR
STARTCHAR 0132
ENCODING 306
SWIDTH 600 0
DWIDTH 10 0
BBX 11 10 0 0
BITMAP
F3E0
F3E0
60C0
60C0
60C0
60C0
78C0
7880
FF80
FF00
ENDCHAR
STARTCHAR 0133
ENCODING 307
SWIDTH 600 0
DWIDTH 10 0
BBX 10 14 0 -3
BITMAP
3180
3180
0000
77C0
77C0
10C0
10C0
10C0
10C0
FEC0
FEC0
00C0
1F80
1F00
ENDCHAR
STARTCHAR 0134
ENCODING 308
SWIDTH 600 0
DWIDTH 10 0
BBX 9 13 1 0
BITMAP
0600
1F00
1080
1F80
1F80
0200
0200
0200
C200
C200
C600
FE00
7C00
ENDCHAR
STARTCHAR 0135
ENCODING 309
SWIDTH 600 0
DWIDTH 10 0
BBX 6 14 2 -3
BITMAP
30
78
8C
FC
FC
0C
0C
0C
0C
0C
0C
0C
F8
F0
ENDCHAR
STARTCHAR 0136
ENCODING 310
SWIDTH 600 0
DWIDTH 10 0
BBX 10 13 0 -3
BITMAP
FBC0
FBC0
2300
2E00
3C00
3E00
2300
2300
F9C0
F9C0
0C00
0C00
0800
ENDCHAR
STARTCHAR 0137
ENCODING 311
SWIDTH 600 0
DWIDTH 10 0
BBX 9 14 1 -3
BITMAP
E000
E000
6000
6F00
6F00
7C00
7000
7800
6C00
E780
E780
3000
3000
2000
ENDCHAR
STARTCHAR 0138
ENCODING 312
SWIDTH 600 0
DWIDTH 10 0
BBX 8 8 1 0
BITMAP
EF
EF
7C
78
78
6C
EF
EF
ENDCHAR
STARTCHAR 0139
ENCODING 313
SWIDTH 600 0
DWIDTH 10 0
BBX 9 13 1 0
BITMAP
1800
3000
2000
F800
F800
2000
2000
2000
2000
2180
2180
FF80
FF80
ENDCHAR
STARTCHAR 013A
ENCODING 314
SWIDTH 600 0
DWIDTH 10 0
BBX 8 13 1 0
BITMAP
04
0C
78
78
18
18
18
18
18
18
18
FF
FF
ENDCHAR
STARTCHAR 013B
ENCODING 315
SWIDTH 600 0
DWIDTH 10 0
BBX 9 13 1 -3
BITMAP
F800
F800
2000
2000
2000
2000
2180
2180
FF80
FF80
1800
1800
1000
ENDCHAR
STARTCHAR 013C
ENCODING 316
SWIDTH 600 0
DWIDTH 10 0
BBX 8 14 1 -3
BITMAP
78
78
18
18
18
18
18
18
18
FF
FF
18
18
10
ENDCHAR
STARTCHAR 013D
ENCODING 317
SWIDTH 600 0
DWIDTH 10 0
BBX 9 10 1 0
BITMAP
F980
FB00
2200
2000
2000
2000
2180
2180
FF80
FF80
ENDCHAR
STARTCHAR 013E
ENCODING 318
SWIDTH 600 0
DWIDTH 10 0
BBX 9 11 1 0
BITMAP
7800
7980
1B00
1A00
1800
1800
1800
1800
1800
FF00
FF00
ENDCHAR
STARTCHAR 013F
ENCODING 319
SWIDTH 600 0
DWIDTH 10 0
BBX 9 10 1 0
BITMAP
F800
F800
2600
2600
2000
2000
2180
2180
FF80
FF80
ENDCHAR
STARTCHAR 0140
ENCODING 320
SWIDTH 600 0
DWIDTH 10 0
BBX 9 11 1 0
BITMAP
7800
7800
1800
1980
1980
1800
1800
1800
1800
FF00
FF00
ENDCHAR
STARTCHAR 0141
ENCODING 321
SWIDTH 600 0
DWIDTH 10 0
BBX 10 10 0 0
BITMAP
7C00
7C00
1000
1600
1E00
3800
F0C0
10C0
7FC0
7FC0
ENDCHAR
STARTCHAR 0142
ENCODING 322
SWIDTH 600 0
DWIDTH 10 0
BBX 8 11 1 0
BITMAP
78
78
18
18
1E
3C
78
18
18
FF
FF
ENDCHAR
STARTCHAR 0143
ENCODING 323
SWIDTH 600 0
DWIDTH 10 0
BBX 10 13 0 0
BITMAP
0200
0600
0800
E3C0
F3C0
7980
7980
6D80
6F80
6780
6380
FB80
F980
ENDCHAR
STARTCHAR 0144
ENCODING 324
SWIDTH 600 0
DWIDTH 10 0
BBX 10 11 0 0
BITMAP
0200
0600
0400
6E00
7F00
3180
2180
2180
2180
F3C0
F3C0
ENDCHAR
STARTCHAR 0145
ENCODING 325
SWIDTH 600 0
DWIDTH 10 0
BBX 10 13 0 -3
BITMAP
E3C0
F3C0
7980
7980
6D80
6F80
6780
6380
FB80
F980
0C00
0C00
0800
ENDCHAR
STARTCHAR 0146
ENCODING 326
SWIDTH 600 0
DWIDTH 10 0
BBX 10 11 0 -3
BITMAP
6E00
7F00
3180
2180
2180
2180
F3C0
F3C0
0C00
0C00
0800
ENDCHAR
STARTCHAR 0147
ENCODING 327
SWIDTH 600 0
DWIDTH 10 0
BBX 10 13 0 0
BITMAP
3B00
0E00
0000
E3C0
F3C0
7980
7980
6D80
6F80
6780
6380
FB80
F980
ENDCHAR
STARTCHAR 0148
ENCODING 328
SWIDTH 600 0
DWIDTH 10 0
BBX 10 11 0 0
BITMAP
3300
1E00
0000
6E00
7F00
3180
2180
2180
2180
F3C0
F3C0
ENDCHAR
STARTCHAR 0149
ENCODING 329
SWIDTH 600 0
DWIDTH 10 0
BBX 10 11 0 0
BITMAP
6000
C000
8000
6E00
7F00
3180
2180
2180
2180
F3C0
F3C0
ENDCHAR
STARTCHAR 014A
ENCODING 330
SWIDTH 600 0
DWIDTH 10 0
BBX 10 13 0 -2
BITMAP
6F00
7F80
3180
2080
20C0
20C0
20C0
20C0
20C0
F080
F180
0780
0700
ENDCHAR
STARTCHAR 014B
ENCODING 331
SWIDTH 600 0
DWIDTH 10 0
BBX 9 11 0 -3
BITMAP
6E00
7F00
3180
2180
2180
2180
F180
F180
0180
0F00
0E00
ENDCHAR
STARTCHAR 014C
ENCODING 332
SWIDTH 600 0
DWIDTH 10 0
BBX 10 13 0 0
BITMAP
3F00
3F00
0000
1E00
3F80
6180
40C0
C0C0
C0C0
40C0
6180
3F00
1E00
ENDCHAR
STARTCHAR 014D
ENCODING 333
SWIDTH 600 0
DWIDTH 10 0
BBX 8 11 1 0
BITMAP
3E
7E
00
3C
7F
C3
81
81
C3
7F
3C
ENDCHAR
STARTCHAR 014E
ENCODING 334
SWIDTH 600 0
DWIDTH 10 0
BBX 10 13 0 0
BITMAP
3F00
0C00
0000
1E00
3F80
6180
40C0
C0C0
C0C0
40C0
6180
3F00
1E00
ENDCHAR
STARTCHAR 014F
ENCODING 335
SWIDTH 600 0
DWIDTH 10 0
BBX 8 11 1 0
BITMAP
7E
3C
00
3C
7F
C3
81
81
C3
7F
3C
ENDCHAR
STARTCHAR 0150
ENCODING 336
SWIDTH 600 0
DWIDTH 10 0
BBX 10 13 0 0
BITMAP
0D80
1B00
1200
1E00
3F80
6180
40C0
C0C0
C0C0
40C0
6180
3F00
1E00
ENDCHAR
STARTCHAR 0151
ENCODING 337
SWIDTH 600 0
DWIDTH 10 0
BBX 8 11 1 0
BITMAP
0B
36
24
3C
7F
C3
81
81
C3
7F
3C
ENDCHAR
STARTCHAR 0152
ENCODING 338
SWIDTH 600 0
DWIDTH 10 0
BBX 10 10 0 0
BITMAP
3FC0
7FC0
E4C0
C5C0
8700
8700
C500
E440
7FC0
3FC0
ENDCHAR
STARTCHAR 0153
ENCODING 339
SWIDTH 600 0
DWIDTH 10 0
BBX 10 8 0 0
BITMAP
7380
FFC0
CCC0
CFC0
CFC0
CC00
FFC0
73C0
ENDCHAR
STARTCHAR 0154
ENCODING 340
SWIDTH 600 0
DWIDTH 10 0
BBX 10 13 0 0
BITMAP
0400
0800
0000
FE00
FF00
6180
6180
7F00
7E00
6700
6380
F9C0
F8C0
ENDCHAR
STARTCHAR 0155
ENCODING 341
SWIDTH 600 0
DWIDTH 10 0
BBX 9 11 1 0
BITMAP
0600
0C00
0800
F700
FF80
3800
3000
3000
3000
FE00
FE00
ENDCHAR
STARTCHAR 0156
ENCODING 342
SWIDTH 600 0
DWIDTH 10 0
BBX 10 13 0 -3
BITMAP
FE00
FF00
6180
6180
7F00
7E00
6700
6380
F9C0
F8C0
1800
1800
1000
ENDCHAR
STARTCHAR 0157
ENCODING 343
SWIDTH 600 0
DWIDTH 10 0
BBX 9 11 1 -3
BITMAP
F700
FF80
3800
3000
3000
3000
FE00
FE00
3000
3000
2000
ENDCHAR
STARTCHAR 0158
ENCODING 344
SWIDTH 600 0
DWIDTH 10 0
BBX 10 13 0 0
BITMAP
3B00
0E00
0000
FE00
FF00
6180
6180
7F00
7E00
6700
6380
F9C0
F8C0
ENDCHAR
STARTCHAR 0159
ENCODING 345
SWIDTH 600 0
DWIDTH 10 0
BBX 9 11 1 0
BITMAP
6600
1C00
0800
F700
FF80
3800
3000
3000
3000
FE00
FE00
ENDCHAR
STARTCHAR 015A
ENCODING 346
SWIDTH 600 0
DWIDTH 10 0
BBX 8 13 1 0
BITMAP
0C
18
10
3F
7F
C3
E0
7E
3E
03
C3
FF
FC
ENDCHAR
STARTCHAR 015B
ENCODING 347
SWIDTH 600 0
DWIDTH 10 0
BBX 8 11 1 0
BITMAP
04
0C
18
3F
7F
43
7C
3F
C3
FF
FE
ENDCHAR
STARTCHAR 015C
ENCODING 348
SWIDTH 600 0
DWIDTH 10 0
BBX 8 13 1 0
BITMAP
18
7C
42
3F
7F
C3
E0
7E
3E
03
C3
FF
FC
ENDCHAR
STARTCHAR 015D
ENCODING 349
SWIDTH 600 0
DWIDTH 10 0
BBX 8 11 1 0
BITMAP
18
3C
62
3F
7F
43
7C
3F
C3
FF
FE
ENDCHAR
STARTCHAR 015E
ENCODING 350
SWIDTH 600 0
DWIDTH 10 0
BBX 8 13 1 -3
BITMAP
3F
7F
C3
E0
7E
3F
03
C3
FF
FE
1C
3C
18
ENDCHAR
STARTCHAR 015F
ENCODING 351
SWIDTH 600 0
DWIDTH 10 0
BBX 8 11 1 -3
BITMAP
3F
7F
43
7C
3F
C3
FF
FE
1C
3C
18
ENDCHAR
STARTCHAR 0160
ENCODING 352
SWIDTH 600 0
DWIDTH 10 0
BBX 8 13 1 0
BITMAP
76
1C
00
3F
7F
C3
E0
7E
3E
03
C3
FF
FC
ENDCHAR
STARTCHAR 0161
ENCODING 353
SWIDTH 600 0
DWIDTH 10 0
BBX 8 11 1 0
BITMAP
66
3C
08
3F
7F
43
7C
3F
C3
FF
FE
ENDCHAR
STARTCHAR 0162
ENCODING 354
SWIDTH 600 0
DWIDTH 10 0
BBX 8 13 1 -3
BITMAP
FF
FF
99
99
18
18
18
18
7E
7E
0C
3C
18
ENDCHAR
STARTCHAR 0163
ENCODING 355
SWIDTH 600 0
DWIDTH 10 0
BBX 9 13 0 -3
BITMAP
3000
3000
FF00
FF00
3000
3000
3000
3180
3F80
1F00
0400
1C00
1C00
ENDCHAR
STARTCHAR 0164
ENCODING 356
SWIDTH 600 0
DWIDTH 10 0
BBX 8 13 1 0
BITMAP
76
1C
00
FF
FF
99
99
18
18
18
18
7E
7E
ENDCHAR
STARTCHAR 0165
ENCODING 357
SWIDTH 600 0
DWIDTH 10 0
BBX 10 11 0 0
BITMAP
00C0
3180
3100
FF00
FF00
3000
3000
3000
3180
3F80
1F00
ENDCHAR
STARTCHAR 0166
ENCODING 358
SWIDTH 600 0
DWIDTH 10 0
BBX 8 10 1 0
BITMAP
FF
FF
99
99
18
7E
7E
18
7E
7E
ENDCHAR
STARTCHAR 0167
ENCODING 359
SWIDTH 600 0
DWIDTH 10 0
BBX 9 10 0 0
BITMAP
3000
3000
FF00
FF00
3000
F800
F800
3000
3F80
1F00
ENDCHAR
STARTCHAR 0168
ENCODING 360
SWIDTH 600 0
DWIDTH 10 0
BBX 10 13 0 0
BITMAP
1D00
3F00
2200
FBC0
FBC0
6180
6180
6180
6180
6180
7180
3F00
1E00
ENDCHAR
STARTCHAR 0169
ENCODING 361
SWIDTH 600 0
DWIDTH 10 0
BBX 10 12 0 0
BITMAP
1900
3F00
2600
0000
E780
E780
2180
2180
2180
3380
3FC0
1DC0
ENDCHAR
STARTCHAR 016A
ENCODING 362
SWIDTH 600 0
DWIDTH 10 0
BBX 10 13 0 0
BITMAP
3F00
3F00
0000
FBC0
FBC0
6180
6180
6180
6180
6180
7180
3F00
1E00
ENDCHAR
STARTCHAR 016B
ENCODING 363
SWIDTH 600 0
DWIDTH 10 0
BBX 10 11 0 0
BITMAP
1F00
3F00
0000
E780
E780
2180
2180
2180
3380
3FC0
1DC0
ENDCHAR
STARTCHAR 016C
ENCODING 364
SWIDTH 600 0
DWIDTH 10 0
BBX 10 13 0 0
BITMAP
3F00
0400
0000
FBC0
FBC0
6180
6180
6180
6180
6180
7180
3F00
1E00
ENDCHAR
STARTCHAR 016D
ENCODING 365
SWIDTH 600 0
DWIDTH 10 0
BBX 10 11 0 0
BITMAP
3F00
1E00
0000
E780
E780
2180
2180
2180
3380
3FC0
1DC0
ENDCHAR
STARTCHAR 016E
ENCODING 366
SWIDTH 600 0
DWIDTH 10 0
BBX 10 13 0 0
BITMAP
0C00
0A00
0C00
FBC0
FBC0
6180
6180
6180
6180
6180
7180
3F00
1E00
ENDCHAR
STARTCHAR 016F
ENCODING 367
SWIDTH 600 0
DWIDTH 10 0
BBX 10 11 0 0
BITMAP
0C00
1A00
0C00
E780
E780
2180
2180
2180
3380
3FC0
1DC0
ENDCHAR
STARTCHAR 0170
ENCODING 368
SWIDTH 600 0
DWIDTH 10 0
BBX 10 13 0 0
BITMAP
0D80
1B00
1200
FBC0
FBC0
6180
6180
6180
6180
6180
7180
3F00
1E00
ENDCHAR
STARTCHAR 0171
ENCODING 369
SWIDTH 600 0
DWIDTH 10 0
BBX 10 11 0 0
BITMAP
0480
0B00
1200
E780
E780
2180
2180
2180
3380
3FC0
1DC0
ENDCHAR
STARTCHAR 0172
ENCODING 370
SWIDTH 600 0
DWIDTH 10 0
BBX 10 13 0 -3
BITMAP
FBC0
FBC0
6180
6180
6180
6180
6180
7180
3F00
1E00
0400
0700
0700
ENDCHAR
STARTCHAR 0173
ENCODING 371
SWIDTH 600 0
DWIDTH 10 0
BBX 10 11 0 -3
BITMAP
E780
E780
2180
2180
2180
3380
3FC0
1D80
0300
03C0
0180
ENDCHAR
STARTCHAR 0174
ENCODING 372
SWIDTH 600 0
DWIDTH 10 0
BBX 10 13 0 0
BITMAP
0C00
3F00
2100
F3C0
F3C0
4CC0
6C80
6E80
7F80
7B80
7380
7380
3180
ENDCHAR
STARTCHAR 0175
ENCODING 373
SWIDTH 600 0
DWIDTH 10 0
BBX 10 10 0 1
BITMAP
1E00
3300
F3C0
F3C0
6D80
6D80
2F80
3F00
3B00
3300
ENDCHAR
STARTCHAR 0176
ENCODING 374
SWIDTH 600 0
DWIDTH 10 0
BBX 10 13 0 0
BITMAP
0C00
1F00
2100
F3C0
F3C0
3300
1B00
1E00
0C00
0C00
0C00
3F00
3F00
ENDCHAR
STARTCHAR 0177
ENCODING 375
SWIDTH 600 0
DWIDTH 10 0
BBX 10 13 0 -2
BITMAP
1E00
3300
F3C0
F3C0
6180
3300
1300
1E00
0C00
0C00
1800
FC00
FC00
ENDCHAR
STARTCHAR 0178
ENCODING 376
SWIDTH 600 0
DWIDTH 10 0
BBX 10 13 0 0
BITMAP
1000
3300
0000
F3C0
F3C0
3300
1B00
1E00
0C00
0C00
0C00
3F00
3F00
ENDCHAR
STARTCHAR 0179
ENCODING 377
SWIDTH 600 0
DWIDTH 10 0
BBX 8 13 1 0
BITMAP
0C
18
10
7F
7F
46
4C
18
38
33
63
FF
FF
ENDCHAR
STARTCHAR 017A
ENCODING 378
SWIDTH 600 0
DWIDTH 10 0
BBX 8 11 1 0
BITMAP
04
0C
18
7F
7F
4E
1C
38
73
FF
FF
ENDCHAR
STARTCHAR 017B
ENCODING 379
SWIDTH 600 0
DWIDTH 10 0
BBX 8 13 1 0
BITMAP
18
18
00
7F
7F
46
4C
18
38
33
63
FF
FF
ENDCHAR
STARTCHAR 017C
ENCODING 380
SWIDTH 600 0
DWIDTH 10 0
BBX 8 11 1 0
BITMAP
08
18
00
7F
7F
4E
1C
38
73
FF
FF
ENDCHAR
STARTCHAR 017D
ENCODING 381
SWIDTH 600 0
DWIDTH 10 0
BBX 8 13 1 0
BITMAP
76
1C
00
7F
7F
46
4C
18
38
33
63
FF
FF
ENDCHAR
STARTCHAR 017E
ENCODING 382
SWIDTH 600 0
DWIDTH 10 0
BBX 8 11 1 0
BITMAP
66
3C
00
7F
7F
4E
1C
38
73
FF
FF
ENDCHAR
STARTCHAR 017F
ENCODING 383
SWIDTH 600 0
DWIDTH 10 0
BBX 9 11 1 0
BITMAP
1F00
1F80
3000
7000
7000
3000
3000
3000
3000
FE00
FE00
ENDCHAR
STARTCHAR 0180
ENCODING 384
SWIDTH 600 0
DWIDTH 10 0
BBX 10 11 0 0
BITMAP
FC00
FC00
6000
6F00
7F80
7180
60C0
60C0
7180
FF80
FF00
ENDCHAR
STARTCHAR 0181
ENCODING 385
SWIDTH 600 0
DWIDTH 10 0
BBX 11 10 -1 0
BITMAP
7F80
FFC0
58C0
18C0
1FC0
1FC0
1860
1860
3FE0
3FC0
ENDCHAR
STARTCHAR 0182
ENCODING 386
SWIDTH 600 0
DWIDTH 10 0
BBX 10 10 0 0
BITMAP
FF80
FF80
2080
2080
3F80
3FC0
20C0
20C0
FFC0
FF80
ENDCHAR
STARTCHAR 0183
ENCODING 387
SWIDTH 600 0
DWIDTH 10 0
BBX 10 11 0 0
BITMAP
FF80
FF80
6000
6F00
7F80
7180
60C0
60C0
7180
FF80
FF00
ENDCHAR
STARTCHAR 0184
ENCODING 388
SWIDTH 600 0
DWIDTH 10 0
BBX 10 11 0 0
BITMAP
3800
3000
E000
6000
3F00
3F80
20C0
20C0
20C0
7F80
7F00
ENDCHAR
STARTCHAR 0185
ENCODING 389
SWIDTH 600 0
DWIDTH 10 0
BBX 10 10 0 0
BITMAP
7800
7000
EF00
FF80
7180
60C0
60C0
7180
FF80
EF00
ENDCHAR
STARTCHAR 0186
ENCODING 390
SWIDTH 600 0
DWIDTH 10 0
BBX 9 10 1 0
BITMAP
7C00
FE00
0300
0180
0180
0180
8100
C300
FF00
FC00
ENDCHAR
STARTCHAR 0187
ENCODING 391
SWIDTH 600 0
DWIDTH 10 0
BBX 10 11 1 0
BITMAP
01C0
3D40
7F00
C100
C000
8000
8000
8000
C000
7F80
3F00
ENDCHAR
STARTCHAR 0188
ENCODING 392
SWIDTH 600 0
DWIDTH 10 0
BBX 10 9 1 0
BITMAP
01C0
3FC0
7F00
C300
C000
C000
C100
7F00
3E00
ENDCHAR
STARTCHAR 0189
ENCODING 393
SWIDTH 600 0
DWIDTH 10 0
BBX 9 10 0 0
BITMAP
FE00
FF00
6180
6180
F880
F880
6180
6180
FF00
FE00
ENDCHAR
STARTCHAR 018A
ENCODING 394
SWIDTH 600 0
DWIDTH 10 0
BBX 10 10 -1 0
BITMAP
FF00
FF80
F0C0
30C0
3040
3040
30C0
30C0
7F80
7F00
ENDCHAR
STARTCHAR 018B
ENCODING 395
SWIDTH 600 0
DWIDTH 10 0
BBX 10 10 0 0
BITMAP
7FC0
7FC0
4100
4100
3F00
7F00
C100
C100
7FC0
3FC0
ENDCHAR
STARTCHAR 018C
ENCODING 396
SWIDTH 600 0
DWIDTH 10 0
BBX 9 11 1 0
BITMAP
FF00
FF00
0300
3F00
7F00
C300
8300
8300
C300
FF80
3F80
ENDCHAR
STARTCHAR 018D
ENCODING 397
SWIDTH 600 0
DWIDTH 10 0
BBX 8 11 1 -4
BITMAP
7E
FF
C3
81
C3
E7
7F
1F
E3
FF
1C
ENDCHAR
STARTCHAR 018E
ENCODING 398
SWIDTH 600 0
DWIDTH 10 0
BBX 9 10 1 0
BITMAP
FF80
FF80
8200
9200
3E00
3E00
9200
C200
FF80
FF80
ENDCHAR
STARTCHAR 018F
ENCODING 399
SWIDTH 600 0
DWIDTH 10 0
BBX 10 11 0 0
BITMAP
1E00
7F00
6180
0080
0080
FFC0
FF80
4080
6180
3F00
1E00
ENDCHAR
STARTCHAR 0190
ENCODING 400
SWIDTH 600 0
DWIDTH 10 0
BBX 8 10 1 0
BITMAP
3F
7F
C3
C0
7C
7C
C0
C3
FF
3D
ENDCHAR
STARTCHAR 0191
ENCODING 401
SWIDTH 600 0
DWIDTH 10 0
BBX 11 12 -2 -2
BITMAP
3FE0
3FE0
0820
0920
0F00
0F00
0900
0800
0800
1800
F800
7000
ENDCHAR
STARTCHAR 0192
ENCODING 402
SWIDTH 600 0
DWIDTH 10 0
BBX 8 13 1 -2
BITMAP
07
0F
18
18
7E
7E
18
18
18
18
18
F8
F0
ENDCHAR
STARTCHAR 0193
ENCODING 403
SWIDTH 600 0
DWIDTH 10 0
BBX 10 11 1 0
BITMAP
01C0
3F40
7F00
C100
C000
8000
8F80
8F80
C100
7F00
3E00
ENDCHAR
STARTCHAR 0194
ENCODING 404
SWIDTH 600 0
DWIDTH 10 0
BBX 10 10 0 0
BITMAP
F3C0
73C0
3300
1E00
0C00
0C00
1E00
1A00
1E00
0C00
ENDCHAR
STARTCHAR 0195
ENCODING 405
SWIDTH 600 0
DWIDTH 10 0
BBX 10 11 0 0
BITMAP
E000
E000
6000
7DC0
7DC0
6640
6640
6640
6640
F7C0
F380
ENDCHAR
STARTCHAR 0196
ENCODING 406
SWIDTH 600 0
DWIDTH 10 0
BBX 7 10 2 0
BITMAP
F0
F0
30
30
30
30
30
30
1E
0E
ENDCHAR
STARTCHAR 0197
ENCODING 407
SWIDTH 600 0
DWIDTH 10 0
BBX 8 10 1 0
BITMAP
FF
7F
18
18
7F
7F
18
18
FF
7F
ENDCHAR
STARTCHAR 0198
ENCODING 408
SWIDTH 600 0
DWIDTH 10 0
BBX 11 10 0 0
BITMAP
FBC0
FBE0
23E0
2CC0
3C00
3600
2300
2300
F9C0
F9C0
ENDCHAR
STARTCHAR 0199
ENCODING 409
SWIDTH 600 0
DWIDTH 10 0
BBX 9 11 1 0
BITMAP
3C00
7C00
6000
6F00
6F00
7C00
7000
7800
6C00
E780
E780
ENDCHAR
STARTCHAR 019A
ENCODING 410
SWIDTH 600 0
DWIDTH 10 0
BBX 8 11 1 0
BITMAP
78
78
18
18
18
7F
7F
18
18
FF
FF
ENDCHAR
STARTCHAR 019B
ENCODING 411
SWIDTH 600 0
DWIDTH 10 0
BBX 10 11 0 0
BITMAP
7200
7E00
3C00
7C00
0E00
1E00
1300
3300
6180
F3C0
F3C0
ENDCHAR
STARTCHAR 019C
ENCODING 412
SWIDTH 600 0
DWIDTH 10 0
BBX 11 10 0 0
BITMAP
DDC0
DDE0
4CC0
4CC0
4CC0
4CC0
4CC0
4CC0
7FE0
77C0
ENDCHAR
STARTCHAR 019D
ENCODING 413
SWIDTH 600 0
DWIDTH 10 0
BBX 12 12 -2 -2
BITMAP
38F0
3CF0
1E60
1E60
1B60
1B60
19E0
18E0
18E0
1860
F800
F000
ENDCHAR
STARTCHAR 019E
ENCODING 414
SWIDTH 600 0
DWIDTH 10 0
BBX 10 11 0 -3
BITMAP
6F00
7F00
3180
2180
2180
2180
F180
F180
0180
03C0
03C0
ENDCHAR
STARTCHAR 019F
ENCODING 415
SWIDTH 600 0
DWIDTH 10 0
BBX 10 10 0 0
BITMAP
1E00
3F80
6180
40C0
FFC0
FFC0
40C0
6180
3F00
1E00
ENDCHAR
STARTCHAR 01A0
ENCODING 416
SWIDTH 600 0
DWIDTH 10 0
BBX 10 11 0 0
BITMAP
00C0
1EC0
3FC0
6180
40C0
C0C0
C0C0
40C0
6180
3F00
1E00
ENDCHAR
STARTCHAR 01A1
ENCODING 417
SWIDTH 600 0
DWIDTH 10 0
BBX 9 8 1 0
BITMAP
3D80
7F80
C300
8100
8100
C300
7F00
3C00
ENDCHAR
STARTCHAR 01A2
ENCODING 418
SWIDTH 600 0
DWIDTH 10 0
BBX 11 11 0 0
BITMAP
0380
3FC0
7EC0
C6C0
C2C0
C2C0
C2C0
C2C0
C6C0
7FE0
3DE0
ENDCHAR
STARTCHAR 01A3
ENCODING 419
SWIDTH 600 0
DWIDTH 10 0
BBX 12 9 -1 0
BITMAP
01C0
3FE0
7F60
6360
C160
C160
6360
7FF0
3EF0
ENDCHAR
STARTCHAR 01A4
ENCODING 420
SWIDTH 600 0
DWIDTH 10 0
BBX 10 10 -1 0
BITMAP
FF00
FF80
D0C0
10C0
10C0
1F80
1F00
1000
7E00
7E00
ENDCHAR
STARTCHAR 01A5
ENCODING 421
SWIDTH 600 0
DWIDTH 10 0
BBX 10 14 0 -3
BITMAP
1C00
3C00
6000
6F00
7F80
7180
60C0
60C0
7180
7F80
6F00
6000
F800
F800
ENDCHAR
STARTCHAR 01A6
ENCODING 422
SWIDTH 600 0
DWIDTH 10 0
BBX 10 13 0 -3
BITMAP
F800
F800
3E00
3F00
3100
3F00
3E00
3300
7B00
7900
0100
01C0
01C0
ENDCHAR
STARTCHAR 01A7
ENCODING 423
SWIDTH 600 0
DWIDTH 10 0
BBX 8 10 1 0
BITMAP
FC
FE
C3
03
1E
7E
E0
C3
7F
3D
ENDCHAR
STARTCHAR 01A8
ENCODING 424
SWIDTH 600 0
DWIDTH 10 0
BBX 8 8 1 0
BITMAP
7C
7E
43
3E
7C
C3
7F
3F
ENDCHAR
STARTCHAR 01A9
ENCODING 425
SWIDTH 600 0
DWIDTH 10 0
BBX 8 10 1 0
BITMAP
FF
FF
63
33
38
38
33
63
FF
FF
ENDCHAR
STARTCHAR 01AA
ENCODING 426
SWIDTH 600 0
DWIDTH 10 0
BBX 8 13 1 -2
BITMAP
60
F0
98
F8
78
18
18
18
18
18
18
0F
07
ENDCHAR
STARTCHAR 01AB
ENCODING 427
SWIDTH 600 0
DWIDTH 10 0
BBX 9 13 0 -3
BITMAP
3000
3000
FF00
FF00
3000
3000
3000
3180
3F80
1F80
0180
0F80
0F00
ENDCHAR
STARTCHAR 01AC
ENCODING 428
SWIDTH 600 0
DWIDTH 10 0
BBX 9 10 0 0
BITMAP
7F80
FF80
CC80
0C80
0C00
0C00
0C00
0C00
3F00
3F00
ENDCHAR
STARTCHAR 01AD
ENCODING 429
SWIDTH 600 0
DWIDTH 10 0
BBX 9 11 0 0
BITMAP
1E00
3E00
3000
FF00
FF00
3000
3000
3000
3180
3F80
1F00
ENDCHAR
STARTCHAR 01AE
ENCODING 430
SWIDTH 600 0
DWIDTH 10 0
BBX 8 12 1 -2
BITMAP
FF
FF
99
99
18
18
18
18
18
18
0F
07
ENDCHAR
STARTCHAR 01AF
ENCODING 431
SWIDTH 600 0
DWIDTH 10 0
BBX 10 11 0 0
BITMAP
00C0
F7C0
F3C0
6180
6180
6180
6180
6180
6380
3F00
1E00
ENDCHAR
STARTCHAR 01B0
ENCODING 432
SWIDTH 600 0
DWIDTH 10 0
BBX 10 9 0 0
BITMAP
00C0
E7C0
E7C0
6100
6100
6100
6300
3F80
1D80
ENDCHAR
STARTCHAR 01B1
ENCODING 433
SWIDTH 600 0
DWIDTH 10 0
BBX 9 10 1 0
BITMAP
F780
F780
9580
7600
C300
C100
C100
C300
7F00
3E00
ENDCHAR
STARTCHAR 01B2
ENCODING 434
SWIDTH 600 0
DWIDTH 10 0
BBX 10 10 0 0
BITMAP
F1C0
F1C0
2100
2100
2100
2100
2100
3100
3F00
1E00
ENDCHAR
STARTCHAR 01B3
ENCODING 435
SWIDTH 600 0
DWIDTH 10 0
BBX 11 10 -1 0
BITMAP
79E0
F9E0
D980
4D80
0F00
0600
0600
0600
1F80
1F80
ENDCHAR
STARTCHAR 01B4
ENCODING 436
SWIDTH 600 0
DWIDTH 10 0
BBX 11 12 0 -3
BITMAP
0060
F3E0
F3E0
6180
3300
1300
1E00
0C00
0C00
1800
FC00
FC00
ENDCHAR
STARTCHAR 01B5
ENCODING 437
SWIDTH 600 0
DWIDTH 10 0
BBX 8 10 1 0
BITMAP
7F
7F
46
0C
FE
FE
30
63
FF
FF
ENDCHAR
STARTCHAR 01B6
ENCODING 438
SWIDTH 600 0
DWIDTH 10 0
BBX 8 8 1 0
BITMAP
7F
7F
4E
7E
7E
73
FF
FF
ENDCHAR
STARTCHAR 01B7
ENCODING 439
SWIDTH 600 0
DWIDTH 10 0
BBX 9 11 1 -1
BITMAP
7F00
7F00
4600
0C00
1E00
1F00
0100
0180
C300
FF00
3E00
ENDCHAR
STARTCHAR 01B8
ENCODING 440
SWIDTH 600 0
DWIDTH 10 0
BBX 9 11 1 -1
BITMAP
7F00
7F00
6300
3000
7C00
FC00
C000
8000
C380
7F00
3C00
ENDCHAR
STARTCHAR 01B9
ENCODING 441
SWIDTH 600 0
DWIDTH 10 0
BBX 7 11 1 -3
BITMAP
FC
FC
30
38
7C
40
C0
C0
66
7E
38
ENDCHAR
STARTCHAR 01BA
ENCODING 442
SWIDTH 600 0
DWIDTH 10 0
BBX 7 11 1 -3
BITMAP
7E
7E
18
3C
66
06
7C
F8
C0
FE
7C
ENDCHAR
STARTCHAR 01BB
ENCODING 443
SWIDTH 600 0
DWIDTH 10 0
BBX 8 10 1 0
BITMAP
3C
7E
C2
03
7F
7F
38
63
FF
FF
ENDCHAR
STARTCHAR 01BC
ENCODING 444
SWIDTH 600 0
DWIDTH 10 0
BBX 8 10 1 0
BITMAP
FE
FE
7C
7E
63
03
03
C3
7E
3C
ENDCHAR
STARTCHAR 01BD
ENCODING 445
SWIDTH 600 0
DWIDTH 10 0
BBX 7 8 1 0
BITMAP
FC
FC
78
7C
06
44
7C
38
ENDCHAR
STARTCHAR 01BE
ENCODING 446
SWIDTH 600 0
DWIDTH 10 0
BBX 7 10 2 0
BITMAP
78
78
FC
FC
30
1C
06
86
FC
78
ENDCHAR
STARTCHAR 01BF
ENCODING 447
SWIDTH 600 0
DWIDTH 10 0
BBX 10 11 0 -3
BITMAP
EF80
FF80
70C0
6180
6380
6600
7C00
7000
6000
F800
F800
ENDCHAR
STARTCHAR 01C0
ENCODING 448
SWIDTH 600 0
DWIDTH 10 0
BBX 2 14 4 -3
BITMAP
40
C0
C0
C0
C0
C0
C0
C0
C0
C0
C0
C0
C0
40
ENDCHAR
STARTCHAR 01C1
ENCODING 449
SWIDTH 600 0
DWIDTH 10 0
BBX 5 14 3 -3
BITMAP
90
98
98
98
98
98
98
98
98
98
98
98
98
90
ENDCHAR
STARTCHAR 01C2
ENCODING 450
SWIDTH 600 0
DWIDTH 10 0
BBX 9 13 1 -2
BITMAP
1800
1800
1800
1800
FF80
FF80
FF80
FF80
1800
1800
1800
1800
1800
ENDCHAR
STARTCHAR 01C3
ENCODING 451
SWIDTH 600 0
DWIDTH 10 0
BBX 2 11 4 0
BITMAP
C0
C0
C0
C0
C0
C0
C0
C0
00
C0
C0
ENDCHAR
STARTCHAR 01C4
ENCODING 452
SWIDTH 600 0
DWIDTH 10 0
BBX 10 13 0 0
BITMAP
0EC0
0380
0000
F7C0
FFC0
4EC0
4F80
4D80
4F00
4FC0
4EC0
FFC0
F7C0
ENDCHAR
STARTCHAR 01C5
ENCODING 453
SWIDTH 600 0
DWIDTH 10 0
BBX 10 11 0 0
BITMAP
0CC0
F380
F800
4FC0
4FC0
4F80
4D80
4F00
4A40
FFC0
F7C0
ENDCHAR
STARTCHAR 01C6
ENCODING 454
SWIDTH 600 0
DWIDTH 10 0
BBX 10 12 0 0
BITMAP
0CC0
3F80
3900
1800
7FC0
FFC0
DF80
D980
DB00
DEC0
FFC0
7FC0
ENDCHAR
STARTCHAR 01C7
ENCODING 455
SWIDTH 600 0
DWIDTH 10 0
BBX 10 10 0 0
BITMAP
F3C0
F3C0
6080
6080
6080
6C80
6C80
6D80
FF80
FF00
ENDCHAR
STARTCHAR 01C8
ENCODING 456
SWIDTH 600 0
DWIDTH 10 0
BBX 10 14 0 -3
BITMAP
0180
F980
7800
37C0
37C0
30C0
30C0
36C0
36C0
FEC0
7EC0
00C0
1F80
1F00
ENDCHAR
STARTCHAR 01C9
ENCODING 457
SWIDTH 600 0
DWIDTH 10 0
BBX 8 14 1 -3
BITMAP
E6
E6
20
2F
2F
21
21
21
21
F9
F9
03
3F
3E
ENDCHAR
STARTCHAR 01CA
ENCODING 458
SWIDTH 600 0
DWIDTH 10 0
BBX 11 10 0 0
BITMAP
DFE0
FFE0
6C80
7C80
7C80
5E80
5E80
5E80
EF80
EF80
ENDCHAR
STARTCHAR 01CB
ENCODING 459
SWIDTH 600 0
DWIDTH 10 0
BBX 10 14 0 -3
BITMAP
00C0
EEC0
EE00
75C0
75C0
7CC0
7CC0
6CC0
6CC0
FCC0
F4C0
00C0
0F80
0F00
ENDCHAR
STARTCHAR 01CC
ENCODING 460
SWIDTH 600 0
DWIDTH 10 0
BBX 10 14 0 -3
BITMAP
01C0
01C0
0000
F9C0
FDC0
6CC0
6CC0
6CC0
6CC0
FEC0
FEC0
00C0
1F80
1F00
ENDCHAR
STARTCHAR 01CD
ENCODING 461
SWIDTH 600 0
DWIDTH 10 0
BBX 10 13 0 0
BITMAP
3600
1C00
0000
7C00
7E00
1E00
1E00
3300
3300
7F80
7F80
F3C0
F3C0
ENDCHAR
STARTCHAR 01CE
ENCODING 462
SWIDTH 600 0
DWIDTH 10 0
BBX 9 11 1 0
BITMAP
4200
3C00
1800
7C00
7E00
3E00
FE00
C200
C600
FF80
7B80
ENDCHAR
STARTCHAR 01CF
ENCODING 463
SWIDTH 600 0
DWIDTH 10 0
BBX 8 13 1 0
BITMAP
76
1C
00
FF
7F
18
18
18
18
18
18
FF
7F
ENDCHAR
STARTCHAR 01D0
ENCODING 464
SWIDTH 600 0
DWIDTH 10 0
BBX 8 11 1 0
BITMAP
66
3C
00
78
78
18
18
18
18
FF
FF
ENDCHAR
STARTCHAR 01D1
ENCODING 465
SWIDTH 600 0
DWIDTH 10 0
BBX 10 13 0 0
BITMAP
3B00
0E00
0000
1E00
3F80
6180
40C0
C0C0
C0C0
40C0
6180
3F00
1E00
ENDCHAR
STARTCHAR 01D2
ENCODING 466
SWIDTH 600 0
DWIDTH 10 0
BBX 8 11 1 0
BITMAP
66
3C
00
3C
7F
C3
81
81
C3
7F
3C
ENDCHAR
STARTCHAR 01D3
ENCODING 467
SWIDTH 600 0
DWIDTH 10 0
BBX 10 13 0 0
BITMAP
3B00
0E00
0000
FBC0
FBC0
6180
6180
6180
6180
6180
7180
3F00
1E00
ENDCHAR
STARTCHAR 01D4
ENCODING 468
SWIDTH 600 0
DWIDTH 10 0
BBX 10 11 0 0
BITMAP
3300
1E00
0000
E780
E780
2180
2180
2180
3380
3FC0
1DC0
ENDCHAR
STARTCHAR 01D5
ENCODING 469
SWIDTH 600 0
DWIDTH 10 0
BBX 10 14 0 0
BITMAP
3F00
3F00
0000
3300
3300
FBC0
FBC0
6180
6180
6180
6180
7180
3F00
1E00
ENDCHAR
STARTCHAR 01D6
ENCODING 470
SWIDTH 600 0
DWIDTH 10 0
BBX 10 13 0 0
BITMAP
3F00
3F00
1200
3300
0000
E780
E780
2180
2180
2180
3380
3FC0
1DC0
ENDCHAR
STARTCHAR 01D7
ENCODING 471
SWIDTH 600 0
DWIDTH 10 0
BBX 10 14 0 0
BITMAP
0200
0600
0400
3300
3300
FBC0
FBC0
6180
6180
6180
6180
7180
3F00
1E00
ENDCHAR
STARTCHAR 01D8
ENCODING 472
SWIDTH 600 0
DWIDTH 10 0
BBX 10 13 0 0
BITMAP
0200
0400
1200
3300
0000
E780
E780
2180
2180
2180
3380
3FC0
1DC0
ENDCHAR
STARTCHAR 01D9
ENCODING 473
SWIDTH 600 0
DWIDTH 10 0
BBX 10 13 0 0
BITMAP
3300
0E00
3300
3300
FBC0
FBC0
6180
6180
6180
6180
7180
3F00
1E00
ENDCHAR
STARTCHAR 01DA
ENCODING 474
SWIDTH 600 0
DWIDTH 10 0
BBX 10 13 0 0
BITMAP
3300
0E00
1200
3300
0000
E780
E780
2180
2180
2180
3380
3FC0
1DC0
ENDCHAR
STARTCHAR 01DB
ENCODING 475
SWIDTH 600 0
DWIDTH 10 0
BBX 10 14 0 0
BITMAP
1000
1800
0C00
3100
3100
FBC0
FBC0
6180
6180
6180
6180
7180
3F00
1E00
ENDCHAR
STARTCHAR 01DC
ENCODING 476
SWIDTH 600 0
DWIDTH 10 0
BBX 10 13 0 0
BITMAP
3000
1800
1200
3300
0000
E780
E780
2180
2180
2180
3380
3FC0
1DC0
ENDCHAR
STARTCHAR 01DD
ENCODING 477
SWIDTH 600 0
DWIDTH 10 0
BBX 8 8 1 -1
BITMAP
FE
FF
03
FF
FF
E7
7E
18
ENDCHAR
STARTCHAR 01DE
ENCODING 478
SWIDTH 600 0
DWIDTH 10 0
BBX 10 14 0 0
BITMAP
3F00
3F00
0000
3200
3200
7C00
7E00
1E00
1300
3300
3F80
7F80
F3C0
F3C0
ENDCHAR
STARTCHAR 01DF
ENCODING 479
SWIDTH 600 0
DWIDTH 10 0
BBX 9 13 1 0
BITMAP
7E00
7E00
0400
6600
0000
7C00
7E00
3E00
FE00
C200
C600
FF80
7B80
ENDCHAR
STARTCHAR 01E0
ENCODING 480
SWIDTH 600 0
DWIDTH 10 0
BBX 10 14 0 0
BITMAP
3F00
3F00
0000
0C00
0C00
7C00
7E00
1E00
1300
3300
3F80
7F80
F3C0
F3C0
ENDCHAR
STARTCHAR 01E1
ENCODING 481
SWIDTH 600 0
DWIDTH 10 0
BBX 9 13 1 0
BITMAP
7E00
7E00
0000
1800
0000
7C00
7E00
3E00
FE00
C200
C600
FF80
7B80
ENDCHAR
STARTCHAR 01E2
ENCODING 482
SWIDTH 600 0
DWIDTH 10 0
BBX 10 13 0 0
BITMAP
0F80
1F80
0000
3FC0
3FC0
14C0
35C0
3700
3700
7D00
7C40
EFC0
EFC0
ENDCHAR
STARTCHAR 01E3
ENCODING 483
SWIDTH 600 0
DWIDTH 10 0
BBX 10 11 0 0
BITMAP
1F00
3F00
0000
7B80
7FC0
7FC0
FFC0
CC00
CE00
FFC0
7FC0
ENDCHAR
STARTCHAR 01E4
ENCODING 484
SWIDTH 600 0
DWIDTH 10 0
BBX 10 10 0 0
BITMAP
1F80
7F80
6180
C180
C000
CF00
CFC0
61C0
7F00
3E00
ENDCHAR
STARTCHAR 01E5
ENCODING 485
SWIDTH 600 0
DWIDTH 10 0
BBX 9 11 1 -3
BITMAP
3B80
FF80
C700
8300
8300
C700
FF00
3B00
0380
7F80
7E00
ENDCHAR
STARTCHAR 01E6
ENCODING 486
SWIDTH 600 0
DWIDTH 10 0
BBX 9 13 1 0
BITMAP
7600
1C00
0000
3F00
7F00
C300
C100
8000
8F80
8F80
C100
7F00
3E00
ENDCHAR
STARTCHAR 01E7
ENCODING 487
SWIDTH 600 0
DWIDTH 10 0
BBX 9 14 1 -3
BITMAP
6600
3C00
0000
3B80
FF80
C700
8300
8300
C700
FF00
3B00
0300
7E00
7C00
ENDCHAR
STARTCHAR 01E8
ENCODING 488
SWIDTH 600 0
DWIDTH 10 0
BBX 10 13 0 0
BITMAP
3B00
0E00
0000
FBC0
FBC0
2300
2E00
3C00
3E00
2300
2300
F9C0
F9C0
ENDCHAR
STARTCHAR 01E9
ENCODING 489
SWIDTH 600 0
DWIDTH 10 0
BBX 9 13 1 0
BITMAP
6600
1C00
E800
E000
6000
6F00
6F00
7C00
7000
7800
6C00
E780
E780
ENDCHAR
STARTCHAR 01EA
ENCODING 490
SWIDTH 600 0
DWIDTH 10 0
BBX 10 13 0 -3
BITMAP
1E00
3F80
6180
40C0
C0C0
C0C0
40C0
6180
3F00
0C00
1000
1E00
1C00
ENDCHAR
STARTCHAR 01EB
ENCODING 491
SWIDTH 600 0
DWIDTH 10 0
BBX 8 11 1 -3
BITMAP
3C
7F
C3
81
81
C3
7E
18
20
3C
38
ENDCHAR
STARTCHAR 01EC
ENCODING 492
SWIDTH 600 0
DWIDTH 10 0
BBX 10 16 0 -3
BITMAP
3F00
3F00
0000
1E00
3F80
6180
40C0
C0C0
C0C0
40C0
6180
3F00
0C00
1000
1E00
1C00
ENDCHAR
STARTCHAR 01ED
ENCODING 493
SWIDTH 600 0
DWIDTH 10 0
BBX 8 14 1 -3
BITMAP
3E
7E
00
3C
7F
C3
81
81
C3
7E
18
20
3C
38
ENDCHAR
STARTCHAR 01EE
ENCODING 494
SWIDTH 600 0
DWIDTH 10 0
BBX 9 14 1 -1
BITMAP
7600
1C00
0000
7F00
7F00
4600
0C00
1E00
1F00
0100
0180
C300
FF00
3E00
ENDCHAR
STARTCHAR 01EF
ENCODING 495
SWIDTH 600 0
DWIDTH 10 0
BBX 6 14 2 -3
BITMAP
CC
78
00
FC
FC
38
70
F8
0C
0C
0C
8C
F8
70
ENDCHAR
STARTCHAR 01F0
ENCODING 496
SWIDTH 600 0
DWIDTH 10 0
BBX 6 14 2 -3
BITMAP
CC
78
00
FC
FC
0C
0C
0C
0C
0C
0C
0C
F8
F0
ENDCHAR
STARTCHAR 01F1
ENCODING 497
SWIDTH 600 0
DWIDTH 10 0
BBX 10 10 0 0
BITMAP
F7C0
FFC0
4EC0
4F80
4D80
4F00
4FC0
4EC0
FFC0
F7C0
ENDCHAR
STARTCHAR 01F2
ENCODING 498
SWIDTH 600 0
DWIDTH 10 0
BBX 10 10 0 0
BITMAP
F000
F800
4FC0
4FC0
4F80
4D80
4F00
4A40
FFC0
F7C0
ENDCHAR
STARTCHAR 01F3
ENCODING 499
SWIDTH 600 0
DWIDTH 10 0
BBX 10 11 0 0
BITMAP
3800
3800
1800
7FC0
FFC0
DF80
D980
DB00
DEC0
FFC0
7FC0
ENDCHAR
STARTCHAR 01F4
ENCODING 500
SWIDTH 600 0
DWIDTH 10 0
BBX 9 13 1 0
BITMAP
0600
0C00
0800
3F00
7F00
C300
C100
8000
8F80
8F80
C100
7F00
3E00
ENDCHAR
STARTCHAR 01F5
ENCODING 501
SWIDTH 600 0
DWIDTH 10 0
BBX 9 14 1 -3
BITMAP
0400
0800
1000
3B80
FF80
C700
8300
8300
C700
FF00
3B00
0300
7E00
7C00
ENDCHAR
STARTCHAR 01F6
ENCODING 502
SWIDTH 600 0
DWIDTH 10 0
BBX 10 10 0 0
BITMAP
6600
6600
25C0
25C0
3CC0
3CC0
24C0
24C0
E780
E700
ENDCHAR
STARTCHAR 01F7
ENCODING 503
SWIDTH 600 0
DWIDTH 10 0
BBX 10 13 0 -3
BITMAP
EF80
FFC0
70C0
60C0
6180
6300
6600
7C00
7000
6000
6000
F800
F800
ENDCHAR
STARTCHAR 01F8
ENCODING 504
SWIDTH 600 0
DWIDTH 10 0
BBX 10 13 0 0
BITMAP
1000
0C00
0400
E3C0
F3C0
7980
7980
6D80
6F80
6780
6380
FB80
F980
ENDCHAR
STARTCHAR 01F9
ENCODING 505
SWIDTH 600 0
DWIDTH 10 0
BBX 10 11 0 0
BITMAP
1000
1800
0C00
6E00
7F00
3180
2180
2180
2180
F3C0
F3C0
ENDCHAR
STARTCHAR 01FA
ENCODING 506
SWIDTH 600 0
DWIDTH 10 0
BBX 10 14 0 0
BITMAP
0400
0C00
1800
0C00
0A00
0C00
7C00
7E00
1E00
3300
3F80
7F80
F3C0
F3C0
ENDCHAR
STARTCHAR 01FB
ENCODING 507
SWIDTH 600 0
DWIDTH 10 0
BBX 9 14 1 0
BITMAP
0400
0C00
1800
0000
1800
1800
7C00
7E00
0200
7E00
FE00
C200
FF80
7B80
ENDCHAR
STARTCHAR 01FC
ENCODING 508
SWIDTH 600 0
DWIDTH 10 0
BBX 10 13 0 0
BITMAP
0180
0300
0200
3FC0
3FC0
14C0
35C0
3700
3700
7D00
7C40
EFC0
EFC0
ENDCHAR
STARTCHAR 01FD
ENCODING 509
SWIDTH 600 0
DWIDTH 10 0
BBX 10 11 0 0
BITMAP
0100
0200
0400
7B80
7FC0
7FC0
FFC0
CC00
CE00
FFC0
7FC0
ENDCHAR
STARTCHAR 01FE
ENCODING 510
SWIDTH 600 0
DWIDTH 10 0
BBX 10 14 0 -1
BITMAP
0200
0400
0040
1EC0
3F80
6380
43C0
C6C0
CCC0
58C0
7180
7F00
DE00
C000
ENDCHAR
STARTCHAR 01FF
ENCODING 511
SWIDTH 600 0
DWIDTH 10 0
BBX 10 12 0 -1
BITMAP
0200
0600
0C80
1FC0
3F80
6380
4680
5C80
7980
7F80
7E00
C000
ENDCHAR
STARTCHAR 0200
ENCODING 512
SWIDTH 600 0
DWIDTH 10 0
BBX 10 13 0 0
BITMAP
D800
6C00
2400
7C00
7E00
1E00
1E00
3300
3300
7F80
7F80
F3C0
F3C0
ENDCHAR
STARTCHAR 0201
ENCODING 513
SWIDTH 600 0
DWIDTH 10 0
BBX 9 11 1 0
BITMAP
6C00
3600
1200
7C00
7E00
3E00
FE00
C200
C600
FF80
7B80
ENDCHAR
STARTCHAR 0202
ENCODING 514
SWIDTH 600 0
DWIDTH 10 0
BBX 10 13 0 0
BITMAP
1E00
3F00
0000
7C00
7E00
1E00
1E00
3300
3300
7F80
7F80
F3C0
F3C0
ENDCHAR
STARTCHAR 0203
ENCODING 515
SWIDTH 600 0
DWIDTH 10 0
BBX 9 11 1 0
BITMAP
1800
7E00
0000
7C00
7E00
3E00
FE00
C200
C600
FF80
7B80
ENDCHAR
STARTCHAR 0204
ENCODING 516
SWIDTH 600 0
DWIDTH 10 0
BBX 9 13 0 0
BITMAP
6C00
3600
1200
FF80
FF80
2180
2580
3C00
3C00
2480
2080
FF80
FF80
ENDCHAR
STARTCHAR 0205
ENCODING 517
SWIDTH 600 0
DWIDTH 10 0
BBX 8 11 1 0
BITMAP
D8
6C
24
3C
FE
C3
FF
FF
C0
FF
3E
ENDCHAR
STARTCHAR 0206
ENCODING 518
SWIDTH 600 0
DWIDTH 10 0
BBX 9 13 0 0
BITMAP
1E00
3F00
0000
FF80
FF80
2180
2580
3C00
3C00
2480
2080
FF80
FF80
ENDCHAR
STARTCHAR 0207
ENCODING 519
SWIDTH 600 0
DWIDTH 10 0
BBX 8 11 1 0
BITMAP
38
7E
00
3C
FE
C3
FF
FF
C0
FF
3E
ENDCHAR
STARTCHAR 0208
ENCODING 520
SWIDTH 600 0
DWIDTH 10 0
BBX 8 13 1 0
BITMAP
D8
6C
24
FF
7F
18
18
18
18
18
18
FF
7F
ENDCHAR
STARTCHAR 0209
ENCODING 521
SWIDTH 600 0
DWIDTH 10 0
BBX 8 11 1 0
BITMAP
D8
6C
24
78
78
18
18
18
18
FF
FF
ENDCHAR
STARTCHAR 020A
ENCODING 522
SWIDTH 600 0
DWIDTH 10 0
BBX 8 13 1 0
BITMAP
3C
7E
00
FF
7F
18
18
18
18
18
18
FF
7F
ENDCHAR
STARTCHAR 020B
ENCODING 523
SWIDTH 600 0
DWIDTH 10 0
BBX 8 11 1 0
BITMAP
3C
7E
00
78
78
18
18
18
18
FF
FF
ENDCHAR
STARTCHAR 020C
ENCODING 524
SWIDTH 600 0
DWIDTH 10 0
BBX 10 13 0 0
BITMAP
6C00
3600
1200
1E00
3F80
6180
40C0
C0C0
C0C0
40C0
6180
3F00
1E00
ENDCHAR
STARTCHAR 020D
ENCODING 525
SWIDTH 600 0
DWIDTH 10 0
BBX 8 11 1 0
BITMAP
D8
6C
24
3C
7F
C3
81
81
C3
7F
3C
ENDCHAR
STARTCHAR 020E
ENCODING 526
SWIDTH 600 0
DWIDTH 10 0
BBX 10 13 0 0
BITMAP
1E00
3F00
0000
1E00
3F80
6180
40C0
C0C0
C0C0
40C0
6180
3F00
1E00
ENDCHAR
STARTCHAR 020F
ENCODING 527
SWIDTH 600 0
DWIDTH 10 0
BBX 8 11 1 0
BITMAP
18
7E
00
3C
7F
C3
81
81
C3
7F
3C
ENDCHAR
STARTCHAR 0210
ENCODING 528
SWIDTH 600 0
DWIDTH 10 0
BBX 10 13 0 0
BITMAP
6800
3400
1200
FE00
FF00
6180
6180
7F00
7E00
6700
6380
F9C0
F8C0
ENDCHAR
STARTCHAR 0211
ENCODING 529
SWIDTH 600 0
DWIDTH 10 0
BBX 9 11 1 0
BITMAP
D800
6C00
2400
F700
FF80
3800
3000
3000
3000
FE00
FE00
ENDCHAR
STARTCHAR 0212
ENCODING 530
SWIDTH 600 0
DWIDTH 10 0
BBX 10 13 0 0
BITMAP
1E00
3F00
0000
FE00
FF00
6180
6180
7F00
7E00
6700
6380
F9C0
F8C0
ENDCHAR
STARTCHAR 0213
ENCODING 531
SWIDTH 600 0
DWIDTH 10 0
BBX 9 11 1 0
BITMAP
1C00
7E00
0000
F700
FF80
3800
3000
3000
3000
FE00
FE00
ENDCHAR
STARTCHAR 0214
ENCODING 532
SWIDTH 600 0
DWIDTH 10 0
BBX 10 13 0 0
BITMAP
6C00
3600
1200
FBC0
FBC0
6180
6180
6180
6180
6180
7180
3F00
1E00
ENDCHAR
STARTCHAR 0215
ENCODING 533
SWIDTH 600 0
DWIDTH 10 0
BBX 10 11 0 0
BITMAP
6C00
3600
1200
E780
E780
2180
2180
2180
3380
3FC0
1DC0
ENDCHAR
STARTCHAR 0216
ENCODING 534
SWIDTH 600 0
DWIDTH 10 0
BBX 10 13 0 0
BITMAP
1E00
3F00
0000
FBC0
FBC0
6180
6180
6180
6180
6180
7180
3F00
1E00
ENDCHAR
STARTCHAR 0217
ENCODING 535
SWIDTH 600 0
DWIDTH 10 0
BBX 10 11 0 0
BITMAP
1E00
3F00
0000
E780
E780
2180
2180
2180
3380
3FC0
1DC0
ENDCHAR
STARTCHAR 0218
ENCODING 536
SWIDTH 600 0
DWIDTH 10 0
BBX 8 13 1 -3
BITMAP
3F
7F
C3
E0
7E
3E
03
C3
FF
FC
18
18
10
ENDCHAR
STARTCHAR 0219
ENCODING 537
SWIDTH 600 0
DWIDTH 10 0
BBX 8 11 1 -3
BITMAP
3F
7F
43
7C
3F
C3
FF
FE
18
18
10
ENDCHAR
STARTCHAR 021A
ENCODING 538
SWIDTH 600 0
DWIDTH 10 0
BBX 8 13 1 -3
BITMAP
FF
FF
99
99
18
18
18
18
7E
7E
18
18
10
ENDCHAR
STARTCHAR 021B
ENCODING 539
SWIDTH 600 0
DWIDTH 10 0
BBX 9 13 0 -3
BITMAP
3000
3000
FF00
FF00
3000
3000
3000
3180
3F80
1F00
1800
1800
1000
ENDCHAR
STARTCHAR 021C
ENCODING 540
SWIDTH 600 0
DWIDTH 10 0
BBX 7 11 2 -1
BITMAP
F8
FC
C6
86
0C
1C
36
02
06
FC
C0
ENDCHAR
STARTCHAR 021D
ENCODING 541
SWIDTH 600 0
DWIDTH 10 0
BBX 7 10 2 -2
BITMAP
F8
FC
84
1C
7E
66
06
1C
70
60
ENDCHAR
STARTCHAR 021E
ENCODING 542
SWIDTH 600 0
DWIDTH 10 0
BBX 10 13 0 0
BITMAP
3B00
0E00
0000
7B80
7B80
2180
2180
3F80
3F80
2180
2180
FBC0
FBC0
ENDCHAR
STARTCHAR 021F
ENCODING 543
SWIDTH 600 0
DWIDTH 10 0
BBX 10 13 0 0
BITMAP
2100
1F00
EC00
E000
2000
2E00
3F00
3180
2180
2180
2180
F3C0
F3C0
ENDCHAR
STARTCHAR 0220
ENCODING 544
SWIDTH 600 0
DWIDTH 10 0
BBX 10 14 0 -3
BITMAP
6F00
FF00
7180
6180
6180
6180
6180
6180
6180
F180
F180
0180
03C0
03C0
ENDCHAR
STARTCHAR 0224
ENCODING 548
SWIDTH 600 0
DWIDTH 10 0
BBX 8 13 1 -3
BITMAP
7F
7F
46
4C
18
38
33
63
FF
FF
03
1F
1E
ENDCHAR
STARTCHAR 0225
ENCODING 549
SWIDTH 600 0
DWIDTH 10 0
BBX 8 11 1 -3
BITMAP
7F
7F
4E
1C
38
73
FF
FF
03
1E
1C
ENDCHAR
STARTCHAR 0226
ENCODING 550
SWIDTH 600 0
DWIDTH 10 0
BBX 10 13 0 0
BITMAP
0C00
0C00
0000
7C00
7E00
1E00
1E00
3300
3300
7F80
7F80
F3C0
F3C0
ENDCHAR
STARTCHAR 0227
ENCODING 551
SWIDTH 600 0
DWIDTH 10 0
BBX 9 10 1 1
BITMAP
1800
0000
7C00
7E00
3E00
FE00
C200
C600
FF80
7B80
ENDCHAR
STARTCHAR 0228
ENCODING 552
SWIDTH 600 0
DWIDTH 10 0
BBX 9 13 0 -3
BITMAP
FF80
FF80
2180
2580
3C00
3C00
2480
2080
FF80
FF80
0600
1E00
0E00
ENDCHAR
STARTCHAR 0229
ENCODING 553
SWIDTH 600 0
DWIDTH 10 0
BBX 8 11 1 -3
BITMAP
3C
FE
C3
FF
FF
C0
FF
3E
1C
3C
18
ENDCHAR
STARTCHAR 022A
ENCODING 554
SWIDTH 600 0
DWIDTH 10 0
BBX 10 14 0 0
BITMAP
3F00
3F00
0000
3300
3300
1E00
3F80
6180
C0C0
C0C0
C0C0
6180
3F80
1E00
ENDCHAR
STARTCHAR 022B
ENCODING 555
SWIDTH 600 0
DWIDTH 10 0
BBX 8 13 1 0
BITMAP
7E
7E
00
66
20
3C
7F
C3
81
81
C3
7F
3C
ENDCHAR
STARTCHAR 022C
ENCODING 556
SWIDTH 600 0
DWIDTH 10 0
BBX 10 14 0 0
BITMAP
3F00
3F00
1900
3D00
2700
3E00
3F80
6180
C0C0
C0C0
C0C0
6180
3F80
1E00
ENDCHAR
STARTCHAR 022D
ENCODING 557
SWIDTH 600 0
DWIDTH 10 0
BBX 8 13 1 0
BITMAP
7E
3E
7E
4C
00
3C
7F
C3
81
81
C3
7F
3C
ENDCHAR
STARTCHAR 022E
ENCODING 558
SWIDTH 600 0
DWIDTH 10 0
BBX 10 13 0 0
BITMAP
0C00
0C00
0000
1E00
3F80
6180
40C0
C0C0
C0C0
40C0
6180
3F00
1E00
ENDCHAR
STARTCHAR 022F
ENCODING 559
SWIDTH 600 0
DWIDTH 10 0
BBX 8 10 1 1
BITMAP
18
00
3C
7F
C3
81
81
C3
7F
3C
ENDCHAR
STARTCHAR 0230
ENCODING 560
SWIDTH 600 0
DWIDTH 10 0
BBX 10 14 0 0
BITMAP
3F00
3F00
0C00
0C00
0000
1E00
3F80
6180
C0C0
C0C0
C0C0
6180
3F80
1E00
ENDCHAR
STARTCHAR 0231
ENCODING 561
SWIDTH 600 0
DWIDTH 10 0
BBX 8 13 1 0
BITMAP
7E
7E
00
18
00
3C
7F
C3
81
81
C3
7F
3C
ENDCHAR
STARTCHAR 0232
ENCODING 562
SWIDTH 600 0
DWIDTH 10 0
BBX 10 13 0 0
BITMAP
3F00
3F00
0000
F3C0
F3C0
3300
1B00
1E00
0C00
0C00
0C00
3F00
3F00
ENDCHAR
STARTCHAR 0233
ENCODING 563
SWIDTH 600 0
DWIDTH 10 0
BBX 10 14 0 -3
BITMAP
1F00
3F00
0000
F3C0
F3C0
6180
3300
1300
1E00
0C00
0C00
1800
FC00
FC00
ENDCHAR
STARTCHAR 0237
ENCODING 567
SWIDTH 600 0
DWIDTH 10 0
BBX 6 11 2 -3
BITMAP
FC
FC
0C
0C
0C
0C
0C
0C
0C
F8
F0
ENDCHAR
STARTCHAR 0250
ENCODING 592
SWIDTH 600 0
DWIDTH 10 0
BBX 9 8 1 -1
BITMAP
FF00
FF80
6180
7700
7F00
6C00
3F00
1C00
ENDCHAR
STARTCHAR 0251
ENCODING 593
SWIDTH 600 0
DWIDTH 10 0
BBX 9 9 1 0
BITMAP
0100
3F00
7F00
C300
8300
8300
C300
FF80
3F80
ENDCHAR
STARTCHAR 0252
ENCODING 594
SWIDTH 600 0
DWIDTH 10 0
BBX 9 9 1 -1
BITMAP
EC00
FF00
7380
6080
6080
6180
7F80
7F00
6000
ENDCHAR
STARTCHAR 0253
ENCODING 595
SWIDTH 600 0
DWIDTH 10 0
BBX 10 11 0 0
BITMAP
1C00
3C00
6000
6F00
7F80
7180
60C0
60C0
7180
FF80
FF00
ENDCHAR
STARTCHAR 0254
ENCODING 596
SWIDTH 600 0
DWIDTH 10 0
BBX 9 8 1 0
BITMAP
FC00
FF00
C300
C180
0180
8300
FF00
7E00
ENDCHAR
STARTCHAR 0256
ENCODING 598
SWIDTH 600 0
DWIDTH 10 0
BBX 11 14 1 -3
BITMAP
0700
0700
0300
3F00
FF00
C300
8300
8300
C300
7F00
3F00
0300
01E0
00E0
ENDCHAR
STARTCHAR 0257
ENCODING 599
SWIDTH 600 0
DWIDTH 10 0
BBX 11 11 1 0
BITMAP
00E0
01E0
0300
3F00
7F00
C300
8300
8300
C300
FF80
3F80
ENDCHAR
STARTCHAR 0258
ENCODING 600
SWIDTH 600 0
DWIDTH 10 0
BBX 8 8 1 0
BITMAP
3C
7E
C3
FF
FF
03
FE
7C
ENDCHAR
STARTCHAR 0259
ENCODING 601
SWIDTH 600 0
DWIDTH 10 0
BBX 8 8 1 -1
BITMAP
FE
FF
03
FF
FF
E7
7E
18
ENDCHAR
STARTCHAR 025B
ENCODING 603
SWIDTH 600 0
DWIDTH 10 0
BBX 8 8 1 0
BITMAP
3F
7F
43
7C
7C
C3
7F
3F
ENDCHAR
STARTCHAR 025C
ENCODING 604
SWIDTH 600 0
DWIDTH 10 0
BBX 8 8 1 0
BITMAP
7C
7E
43
3E
3F
C3
FF
FE
ENDCHAR
STARTCHAR 025F
ENCODING 607
SWIDTH 600 0
DWIDTH 10 0
BBX 8 11 2 -3
BITMAP
FC
FC
04
04
04
04
FF
FE
0C
FC
F8
ENDCHAR
STARTCHAR 0260
ENCODING 608
SWIDTH 600 0
DWIDTH 10 0
BBX 11 14 1 -3
BITMAP
01E0
03E0
0300
3B00
FF00
C700
8300
8300
C700
FF00
3B00
0300
7E00
7C00
ENDCHAR
STARTCHAR 0261
ENCODING 609
SWIDTH 600 0
DWIDTH 10 0
BBX 8 12 1 -3
BITMAP
03
3B
FF
C7
83
83
C7
FF
3B
03
7E
7C
ENDCHAR
STARTCHAR 0265
ENCODING 613
SWIDTH 600 0
DWIDTH 10 0
BBX 10 11 0 -4
BITMAP
F3C0
7380
6100
6100
6100
3700
3F00
0900
0100
01C0
0180
ENDCHAR
STARTCHAR 0266
ENCODING 614
SWIDTH 600 0
DWIDTH 10 0
BBX 10 11 0 0
BITMAP
1C00
3E00
3000
2E00
3F00
3180
2180
2180
2180
F3C0
F3C0
ENDCHAR
STARTCHAR 0267
ENCODING 615
SWIDTH 600 0
DWIDTH 10 0
BBX 9 14 0 -3
BITMAP
1C00
3E00
3000
2E00
3F00
3180
2180
2180
2180
F180
F180
0180
0F00
0E00
ENDCHAR
STARTCHAR 0268
ENCODING 616
SWIDTH 600 0
DWIDTH 10 0
BBX 8 11 1 0
BITMAP
18
18
00
78
78
18
7E
7E
18
FF
FF
ENDCHAR
STARTCHAR 0269
ENCODING 617
SWIDTH 600 0
DWIDTH 10 0
BBX 7 8 2 0
BITMAP
F0
F0
30
30
30
30
1E
0E
ENDCHAR
STARTCHAR 026A
ENCODING 618
SWIDTH 600 0
DWIDTH 10 0
BBX 6 8 2 0
BITMAP
FC
FC
30
30
30
30
FC
FC
ENDCHAR
STARTCHAR 026B
ENCODING 619
SWIDTH 600 0
DWIDTH 10 0
BBX 8 11 1 0
BITMAP
78
78
18
18
78
FB
DF
1E
18
FF
FF
ENDCHAR
STARTCHAR 026D
ENCODING 621
SWIDTH 600 0
DWIDTH 10 0
BBX 7 14 2 -3
BITMAP
F0
F0
30
30
30
30
30
30
30
30
30
30
1E
0E
ENDCHAR
STARTCHAR 026F
ENCODING 623
SWIDTH 600 0
DWIDTH 10 0
BBX 11 8 0 -1
BITMAP
DDE0
CDC0
4CC0
4CC0
4CC0
6DC0
7FE0
32C0
ENDCHAR
STARTCHAR 0270
ENCODING 624
SWIDTH 600 0
DWIDTH 10 0
BBX 11 11 0 -3
BITMAP
DDC0
DDE0
4CC0
4CC0
4CC0
4CC0
7FC0
77C0
00C0
00C0
00C0
ENDCHAR
STARTCHAR 0271
ENCODING 625
SWIDTH 600 0
DWIDTH 10 0
BBX 10 11 0 -3
BITMAP
FB80
FF80
4CC0
4CC0
4CC0
4CC0
EEC0
EEC0
00C0
0780
0700
ENDCHAR
STARTCHAR 0272
ENCODING 626
SWIDTH 600 0
DWIDTH 10 0
BBX 12 11 -2 -3
BITMAP
1B80
1FC0
0C60
0860
0860
0860
08F0
08F0
1800
F800
7000
ENDCHAR
STARTCHAR 0273
ENCODING 627
SWIDTH 600 0
DWIDTH 10 0
BBX 12 11 0 -3
BITMAP
6E00
7F00
3180
2180
2180
2180
F180
F180
0180
01F0
00F0
ENDCHAR
STARTCHAR 0274
ENCODING 628
SWIDTH 600 0
DWIDTH 10 0
BBX 8 8 1 0
BITMAP
E7
F7
72
7A
6E
6E
F6
F6
ENDCHAR
STARTCHAR 0275
ENCODING 629
SWIDTH 600 0
DWIDTH 10 0
BBX 8 8 1 0
BITMAP
3C
7F
C3
FF
FF
C3
7F
3C
ENDCHAR
STARTCHAR 0279
ENCODING 633
SWIDTH 600 0
DWIDTH 10 0
BBX 9 8 1 -1
BITMAP
7F80
3F00
0600
0600
0E00
1E00
F700
6700
ENDCHAR
STARTCHAR 027A
ENCODING 634
SWIDTH 600 0
DWIDTH 10 0
BBX 9 11 1 -1
BITMAP
7F80
3F00
0600
0600
0600
0600
0600
0E00
1E00
F700
6700
ENDCHAR
STARTCHAR 027B
ENCODING 635
SWIDTH 600 0
DWIDTH 10 0
BBX 10 11 1 -3
BITMAP
7F80
7F80
0600
0600
0600
1E00
FE00
F600
0600
07C0
03C0
ENDCHAR
STARTCHAR 027C
ENCODING 636
SWIDTH 600 0
DWIDTH 10 0
BBX 9 11 1 -3
BITMAP
F700
FF80
3800
3000
3000
3000
3000
3000
3000
FE00
FE00
ENDCHAR
STARTCHAR 027D
ENCODING 637
SWIDTH 600 0
DWIDTH 10 0
BBX 9 11 1 -3
BITMAP
F700
FF80
3800
3000
3000
3000
3000
3000
3000
3E00
1E00
ENDCHAR
STARTCHAR 027E
ENCODING 638
SWIDTH 600 0
DWIDTH 10 0
BBX 7 8 1 0
BITMAP
1E
3E
30
30
30
30
FE
FE
ENDCHAR
STARTCHAR 027F
ENCODING 639
SWIDTH 600 0
DWIDTH 10 0
BBX 7 11 1 -3
BITMAP
F0
F8
18
18
18
18
18
18
18
FE
FE
ENDCHAR
STARTCHAR 0280
ENCODING 640
SWIDTH 600 0
DWIDTH 10 0
BBX 8 8 1 0
BITMAP
FC
FE
66
7E
7C
6C
F7
F7
ENDCHAR
STARTCHAR 0281
ENCODING 641
SWIDTH 600 0
DWIDTH 10 0
BBX 8 8 1 0
BITMAP
F7
F7
6C
7C
7E
66
FE
FC
ENDCHAR
STARTCHAR 0282
ENCODING 642
SWIDTH 600 0
DWIDTH 10 0
BBX 8 11 1 -3
BITMAP
3F
7F
43
7C
1F
C3
FF
FC
C0
78
38
ENDCHAR
STARTCHAR 0283
ENCODING 643
SWIDTH 600 0
DWIDTH 10 0
BBX 8 13 1 -2
BITMAP
07
0F
18
18
18
18
18
18
18
18
18
F8
F0
ENDCHAR
STARTCHAR 0284
ENCODING 644
SWIDTH 600 0
DWIDTH 10 0
BBX 9 14 1 -3
BITMAP
0780
0F80
0C00
0C00
0C00
0C00
0C00
0C00
FE00
FE00
0C00
0C00
F800
F000
ENDCHAR
STARTCHAR 0285
ENCODING 645
SWIDTH 600 0
DWIDTH 10 0
BBX 8 13 1 -2
BITMAP
F0
F8
18
18
18
18
18
18
18
18
18
0F
07
ENDCHAR
STARTCHAR 0287
ENCODING 647
SWIDTH 600 0
DWIDTH 10 0
BBX 9 10 0 0
BITMAP
3C00
FE00
C600
0200
0200
0200
3F80
7F80
0200
0200
ENDCHAR
STARTCHAR 0288
ENCODING 648
SWIDTH 600 0
DWIDTH 10 0
BBX 9 13 0 -3
BITMAP
3000
3000
FF00
FF00
3000
3000
3000
3000
3000
3000
3180
3F80
1F00
ENDCHAR
STARTCHAR 0289
ENCODING 649
SWIDTH 600 0
DWIDTH 10 0
BBX 10 8 0 0
BITMAP
E780
E780
2180
FFC0
FFC0
2380
3FC0
1DC0
ENDCHAR
STARTCHAR 028C
ENCODING 652
SWIDTH 600 0
DWIDTH 10 0
BBX 10 8 0 -1
BITMAP
0C00
1E00
1E00
3300
3300
6180
FBC0
73C0
ENDCHAR
STARTCHAR 028D
ENCODING 653
SWIDTH 600 0
DWIDTH 10 0
BBX 10 8 0 -1
BITMAP
3300
3B00
3F80
6F80
6D80
6D80
F3C0
61C0
ENDCHAR
STARTCHAR 028E
ENCODING 654
SWIDTH 600 0
DWIDTH 10 0
BBX 10 11 0 -1
BITMAP
0FC0
0780
0600
0C00
0E00
1E00
3300
3300
6180
F3C0
7180
ENDCHAR
STARTCHAR 0290
ENCODING 656
SWIDTH 600 0
DWIDTH 10 0
BBX 11 11 1 -3
BITMAP
7F00
7F00
4E00
1C00
3800
7300
FF00
FF00
0300
03E0
01E0
ENDCHAR
STARTCHAR 0291
ENCODING 657
SWIDTH 600 0
DWIDTH 10 0
BBX 7 9 2 -1
BITMAP
FC
FC
8C
1C
3E
5A
FE
FC
18
ENDCHAR
STARTCHAR 0292
ENCODING 658
SWIDTH 600 0
DWIDTH 10 0
BBX 7 11 1 -3
BITMAP
7E
7E
18
38
7C
04
06
06
CC
7C
38
ENDCHAR
STARTCHAR 0293
ENCODING 659
SWIDTH 600 0
DWIDTH 10 0
BBX 6 12 2 -4
BITMAP
FC
FC
30
70
F8
08
0C
6C
F8
F8
78
08
ENDCHAR
STARTCHAR 0294
ENCODING 660
SWIDTH 600 0
DWIDTH 10 0
BBX 7 10 2 0
BITMAP
78
FC
86
06
0C
38
30
30
78
78
ENDCHAR
STARTCHAR 0295
ENCODING 661
SWIDTH 600 0
DWIDTH 10 0
BBX 7 10 2 0
BITMAP
7C
FE
C6
C0
E0
70
10
10
7C
7C
ENDCHAR
STARTCHAR 0296
ENCODING 662
SWIDTH 600 0
DWIDTH 10 0
BBX 7 10 2 0
BITMAP
7C
7C
10
10
70
E0
C0
C6
FE
7C
ENDCHAR
STARTCHAR 0297
ENCODING 663
SWIDTH 600 0
DWIDTH 10 0
BBX 9 13 1 -3
BITMAP
3F00
7F00
C300
C100
8000
8000
8000
8000
8000
8000
C000
7F80
3F00
ENDCHAR
STARTCHAR 0298
ENCODING 664
SWIDTH 600 0
DWIDTH 10 0
BBX 10 10 0 0
BITMAP
1E00
3F80
6180
40C0
CCC0
CCC0
40C0
6180
3F00
1E00
ENDCHAR
STARTCHAR 0299
ENCODING 665
SWIDTH 600 0
DWIDTH 10 0
BBX 8 8 1 0
BITMAP
FC
FE
62
7E
7F
61
FF
FE
ENDCHAR
STARTCHAR 029A
ENCODING 666
SWIDTH 600 0
DWIDTH 10 0
BBX 8 8 1 0
BITMAP
3C
7F
43
7F
7D
C3
7F
3E
ENDCHAR
STARTCHAR 029B
ENCODING 667
SWIDTH 600 0
DWIDTH 10 0
BBX 10 9 0 0
BITMAP
0180
3FC0
7F40
C300
C000
CF00
CF00
7F00
3E00
ENDCHAR
STARTCHAR 029C
ENCODING 668
SWIDTH 600 0
DWIDTH 10 0
BBX 8 8 1 0
BITMAP
E7
E7
62
7E
7E
62
E7
E7
ENDCHAR
STARTCHAR 029D
ENCODING 669
SWIDTH 600 0
DWIDTH 10 0
BBX 8 14 2 -3
BITMAP
08
08
08
FC
FC
04
04
04
04
7F
FF
C4
FC
78
ENDCHAR
STARTCHAR 029E
ENCODING 670
SWIDTH 600 0
DWIDTH 10 0
BBX 9 11 1 -4
BITMAP
F380
F300
3A00
1E00
1E00
3A00
FA00
7200
0200
0380
0300
ENDCHAR
STARTCHAR 029F
ENCODING 671
SWIDTH 600 0
DWIDTH 10 0
BBX 8 8 1 0
BITMAP
F8
F8
20
20
20
23
FF
FF
ENDCHAR
STARTCHAR 02A0
ENCODING 672
SWIDTH 600 0
DWIDTH 10 0
BBX 11 14 1 -3
BITMAP
00E0
01E0
0300
3F00
FF00
C300
8300
8300
C300
FF00
3B00
0300
0F80
0F80
ENDCHAR
STARTCHAR 02A1
ENCODING 673
SWIDTH 600 0
DWIDTH 10 0
BBX 7 10 2 0
BITMAP
78
FC
86
06
3C
F0
F0
30
78
78
ENDCHAR
STARTCHAR 02A2
ENCODING 674
SWIDTH 600 0
DWIDTH 10 0
BBX 7 10 2 0
BITMAP
7C
FE
C6
C0
70
1E
1E
10
7C
7C
ENDCHAR
STARTCHAR 02B0
ENCODING 688
SWIDTH 600 0
DWIDTH 10 0
BBX 6 8 2 6
BITMAP
C0
C0
78
78
48
48
FC
FC
ENDCHAR
STARTCHAR 02B1
ENCODING 689
SWIDTH 600 0
DWIDTH 10 0
BBX 6 8 2 6
BITMAP
70
70
78
78
4C
4C
FC
EC
ENDCHAR
STARTCHAR 02B2
ENCODING 690
SWIDTH 600 0
DWIDTH 10 0
BBX 4 10 3 4
BITMAP
30
30
F0
F0
10
10
10
10
F0
F0
ENDCHAR
STARTCHAR 02B3
ENCODING 691
SWIDTH 600 0
DWIDTH 10 0
BBX 6 6 2 6
BITMAP
F8
FC
64
60
F8
F8
ENDCHAR
STARTCHAR 02B4
ENCODING 692
SWIDTH 600 0
DWIDTH 10 0
BBX 6 6 1 6
BITMAP
7C
7C
18
18
FC
7C
ENDCHAR
STARTCHAR 02B5
ENCODING 693
SWIDTH 600 0
DWIDTH 10 0
BBX 6 8 2 4
BITMAP
78
78
10
30
F0
D0
1C
0C
ENDCHAR
STARTCHAR 02B6
ENCODING 694
SWIDTH 600 0
DWIDTH 10 0
BBX 7 8 1 6
BITMAP
F6
F6
6C
78
7C
64
FC
F8
ENDCHAR
STARTCHAR 02B7
ENCODING 695
SWIDTH 600 0
DWIDTH 10 0
BBX 6 5 2 7
BITMAP
CC
CC
FC
78
68
ENDCHAR
STARTCHAR 02B8
ENCODING 696
SWIDTH 600 0
DWIDTH 10 0
BBX 6 8 2 4
BITMAP
EC
48
68
30
30
30
F0
F0
ENDCHAR
STARTCHAR 02B9
ENCODING 697
SWIDTH 600 0
DWIDTH 10 0
BBX 2 4 4 8
BITMAP
C0
C0
80
80
ENDCHAR
STARTCHAR 02BA
ENCODING 698
SWIDTH 600 0
DWIDTH 10 0
BBX 4 4 3 8
BITMAP
F0
F0
A0
A0
ENDCHAR
STARTCHAR 02BB
ENCODING 699
SWIDTH 600 0
DWIDTH 10 0
BBX 4 3 3 8
BITMAP
C0
60
30
ENDCHAR
STARTCHAR 02BC
ENCODING 700
SWIDTH 600 0
DWIDTH 10 0
BBX 3 3 4 8
BITMAP
60
C0
80
ENDCHAR
STARTCHAR 02BD
ENCODING 701
SWIDTH 600 0
DWIDTH 10 0
BBX 3 4 4 8
BITMAP
C0
C0
60
60
ENDCHAR
STARTCHAR 02BE
ENCODING 702
SWIDTH 600 0
DWIDTH 10 0
BBX 1 3 5 8
BITMAP
80
80
80
ENDCHAR
STARTCHAR 02BF
ENCODING 703
SWIDTH 600 0
DWIDTH 10 0
BBX 1 3 4 9
BITMAP
80
80
80
ENDCHAR
STARTCHAR 02C0
ENCODING 704
SWIDTH 600 0
DWIDTH 10 0
BBX 5 6 3 8
BITMAP
F0
F8
10
20
60
60
ENDCHAR
STARTCHAR 02C1
ENCODING 705
SWIDTH 600 0
DWIDTH 10 0
BBX 5 6 3 8
BITMAP
70
F8
80
60
20
20
ENDCHAR
STARTCHAR 02C2
ENCODING 706
SWIDTH 600 0
DWIDTH 10 0
BBX 4 4 3 10
BITMAP
10
70
F0
10
ENDCHAR
STARTCHAR 02C3
ENCODING 707
SWIDTH 600 0
DWIDTH 10 0
BBX 4 4 3 9
BITMAP
80
E0
F0
80
ENDCHAR
STARTCHAR 02C4
ENCODING 708
SWIDTH 600 0
DWIDTH 10 0
BBX 4 4 3 10
BITMAP
40
60
F0
90
ENDCHAR
STARTCHAR 02C5
ENCODING 709
SWIDTH 600 0
DWIDTH 10 0
BBX 4 4 3 9
BITMAP
90
F0
60
40
ENDCHAR
STARTCHAR 02C6
ENCODING 710
SWIDTH 600 0
DWIDTH 10 0
BBX 6 3 2 8
BITMAP
30
78
C4
ENDCHAR
STARTCHAR 02C7
ENCODING 711
SWIDTH 600 0
DWIDTH 10 0
BBX 6 3 2 8
BITMAP
C4
78
30
ENDCHAR
STARTCHAR 02C8
ENCODING 712
SWIDTH 600 0
DWIDTH 10 0
BBX 2 3 4 8
BITMAP
C0
C0
C0
ENDCHAR
STARTCHAR 02C9
ENCODING 713
SWIDTH 600 0
DWIDTH 10 0
BBX 6 2 2 9
BITMAP
FC
FC
ENDCHAR
STARTCHAR 02CA
ENCODING 714
SWIDTH 600 0
DWIDTH 10 0
BBX 3 3 4 8
BITMAP
20
60
80
ENDCHAR
STARTCHAR 02CB
ENCODING 715
SWIDTH 600 0
DWIDTH 10 0
BBX 3 3 3 8
BITMAP
80
C0
20
ENDCHAR
STARTCHAR 02CC
ENCODING 716
SWIDTH 600 0
DWIDTH 10 0
BBX 2 3 4 -3
BITMAP
C0
C0
C0
ENDCHAR
STARTCHAR 02CD
ENCODING 717
SWIDTH 600 0
DWIDTH 10 0
BBX 6 2 2 -2
BITMAP
FC
FC
ENDCHAR
STARTCHAR 02CE
ENCODING 718
SWIDTH 600 0
DWIDTH 10 0
BBX 3 3 4 -4
BITMAP
80
C0
60
ENDCHAR
STARTCHAR 02CF
ENCODING 719
SWIDTH 600 0
DWIDTH 10 0
BBX 3 3 3 -4
BITMAP
20
40
80
ENDCHAR
STARTCHAR 02D0
ENCODING 720
SWIDTH 600 0
DWIDTH 10 0
BBX 3 8 4 0
BITMAP
E0
C0
C0
00
00
C0
C0
E0
ENDCHAR
STARTCHAR 02D1
ENCODING 721
SWIDTH 600 0
DWIDTH 10 0
BBX 3 3 4 5
BITMAP
E0
C0
40
ENDCHAR
STARTCHAR 02D2
ENCODING 722
SWIDTH 600 0
DWIDTH 10 0
BBX 1 3 5 3
BITMAP
80
80
80
ENDCHAR
STARTCHAR 02D3
ENCODING 723
SWIDTH 600 0
DWIDTH 10 0
BBX 1 3 4 4
BITMAP
80
80
80
ENDCHAR
STARTCHAR 02D4
ENCODING 724
SWIDTH 600 0
DWIDTH 10 0
BBX 3 2 4 9
BITMAP
40
E0
ENDCHAR
STARTCHAR 02D5
ENCODING 725
SWIDTH 600 0
DWIDTH 10 0
BBX 3 2 3 9
BITMAP
E0
40
ENDCHAR
STARTCHAR 02D6
ENCODING 726
SWIDTH 600 0
DWIDTH 10 0
BBX 4 4 3 9
BITMAP
20
F0
F0
20
ENDCHAR
STARTCHAR 02D7
ENCODING 727
SWIDTH 600 0
DWIDTH 10 0
BBX 4 2 3 8
BITMAP
F0
F0
ENDCHAR
STARTCHAR 02D8
ENCODING 728
SWIDTH 600 0
DWIDTH 10 0
BBX 6 2 2 9
BITMAP
FC
78
ENDCHAR
STARTCHAR 02D9
ENCODING 729
SWIDTH 600 0
DWIDTH 10 0
BBX 2 2 4 9
BITMAP
C0
C0
ENDCHAR
STARTCHAR 02DA
ENCODING 730
SWIDTH 600 0
DWIDTH 10 0
BBX 3 3 4 8
BITMAP
C0
A0
C0
ENDCHAR
STARTCHAR 02DB
ENCODING 731
SWIDTH 600 0
DWIDTH 10 0
BBX 4 3 4 -3
BITMAP
C0
F0
60
ENDCHAR
STARTCHAR 02DC
ENCODING 732
SWIDTH 600 0
DWIDTH 10 0
BBX 6 3 2 9
BITMAP
64
FC
98
ENDCHAR
STARTCHAR 02DD
ENCODING 733
SWIDTH 600 0
DWIDTH 10 0
BBX 6 3 2 8
BITMAP
24
68
D0
ENDCHAR
STARTCHAR 02DE
ENCODING 734
SWIDTH 600 0
DWIDTH 10 0
BBX 6 4 2 4
BITMAP
20
F0
7C
18
ENDCHAR
STARTCHAR 02DF
ENCODING 735
SWIDTH 600 0
DWIDTH 10 0
BBX 2 3 4 9
BITMAP
C0
C0
C0
ENDCHAR
STARTCHAR 02E0
ENCODING 736
SWIDTH 600 0
DWIDTH 10 0
BBX 6 8 2 4
BITMAP
CC
CC
48
78
30
30
30
30
ENDCHAR
STARTCHAR 02E1
ENCODING 737
SWIDTH 600 0
DWIDTH 10 0
BBX 6 8 2 6
BITMAP
70
70
30
30
30
30
FC
FC
ENDCHAR
STARTCHAR 02E2
ENCODING 738
SWIDTH 600 0
DWIDTH 10 0
BBX 6 7 2 6
BITMAP
38
78
40
70
1C
FC
F8
ENDCHAR
STARTCHAR 02E3
ENCODING 739
SWIDTH 600 0
DWIDTH 10 0
BBX 6 5 2 6
BITMAP
FC
78
30
78
FC
ENDCHAR
STARTCHAR 02E4
ENCODING 740
SWIDTH 600 0
DWIDTH 10 0
BBX 5 8 3 6
BITMAP
70
F8
80
C0
60
20
70
70
ENDCHAR
STARTCHAR 02E5
ENCODING 741
SWIDTH 600 0
DWIDTH 10 0
BBX 7 14 1 0
BITMAP
FE
FE
02
02
02
02
02
02
02
02
02
02
02
02
ENDCHAR
STARTCHAR 02E6
ENCODING 742
SWIDTH 600 0
DWIDTH 10 0
BBX 8 13 0 0
BITMAP
01
FF
7F
01
01
01
01
01
01
01
01
01
01
ENDCHAR
STARTCHAR 02E7
ENCODING 743
SWIDTH 600 0
DWIDTH 10 0
BBX 7 13 1 0
BITMAP
02
02
02
02
02
FE
FE
02
02
02
02
02
02
ENDCHAR
STARTCHAR 02E8
ENCODING 744
SWIDTH 600 0
DWIDTH 10 0
BBX 7 12 1 1
BITMAP
02
02
02
02
02
02
02
02
FE
FE
02
02
ENDCHAR
STARTCHAR 02E9
ENCODING 745
SWIDTH 600 0
DWIDTH 10 0
BBX 7 14 1 0
BITMAP
02
02
02
02
02
02
02
02
02
02
02
02
FE
FE
ENDCHAR
STARTCHAR 02EA
ENCODING 746
SWIDTH 600 0
DWIDTH 10 0
BBX 8 12 1 0
BITMAP
C0
C0
C0
C0
C0
C0
C0
C0
C0
C0
FF
FF
ENDCHAR
STARTCHAR 02EB
ENCODING 747
SWIDTH 600 0
DWIDTH 10 0
BBX 8 6 1 0
BITMAP
C0
C0
FF
FF
C0
C0
ENDCHAR
STARTCHAR 02EC
ENCODING 748
SWIDTH 600 0
DWIDTH 10 0
BBX 6 3 2 -3
BITMAP
8C
78
30
ENDCHAR
STARTCHAR 02ED
ENCODING 749
SWIDTH 600 0
DWIDTH 10 0
BBX 9 5 1 8
BITMAP
FF80
FF80
0000
FF80
FF80
ENDCHAR
STARTCHAR 02EE
ENCODING 750
SWIDTH 600 0
DWIDTH 10 0
BBX 6 5 2 6
BITMAP
CC
CC
CC
88
88
ENDCHAR
STARTCHAR 02EF
ENCODING 751
SWIDTH 600 0
DWIDTH 10 0
BBX 4 4 3 -4
BITMAP
90
F0
60
40
ENDCHAR
STARTCHAR 02F0
ENCODING 752
SWIDTH 600 0
DWIDTH 10 0
BBX 4 4 3 -3
BITMAP
40
60
F0
90
ENDCHAR
STARTCHAR 02F1
ENCODING 753
SWIDTH 600 0
DWIDTH 10 0
BBX 4 4 3 -3
BITMAP
10
70
F0
10
ENDCHAR
STARTCHAR 02F2
ENCODING 754
SWIDTH 600 0
DWIDTH 10 0
BBX 4 4 3 -3
BITMAP
80
E0
F0
80
ENDCHAR
STARTCHAR 02F3
ENCODING 755
SWIDTH 600 0
DWIDTH 10 0
BBX 3 3 4 -4
BITMAP
C0
A0
C0
ENDCHAR
STARTCHAR 02F4
ENCODING 756
SWIDTH 600 0
DWIDTH 10 0
BBX 3 3 4 3
BITMAP
80
C0
60
ENDCHAR
STARTCHAR 02F5
ENCODING 757
SWIDTH 600 0
DWIDTH 10 0
BBX 5 3 3 3
BITMAP
A0
F0
78
ENDCHAR
STARTCHAR 02F6
ENCODING 758
SWIDTH 600 0
DWIDTH 10 0
BBX 3 3 3 3
BITMAP
20
40
80
ENDCHAR
STARTCHAR 02F7
ENCODING 759
SWIDTH 600 0
DWIDTH 10 0
BBX 6 3 2 -3
BITMAP
64
FC
98
ENDCHAR
STARTCHAR 02F8
ENCODING 760
SWIDTH 600 0
DWIDTH 10 0
BBX 2 8 4 6
BITMAP
C0
C0
00
00
00
00
C0
C0
ENDCHAR
STARTCHAR 02F9
ENCODING 761
SWIDTH 600 0
DWIDTH 10 0
BBX 3 3 4 9
BITMAP
E0
E0
80
ENDCHAR
STARTCHAR 02FA
ENCODING 762
SWIDTH 600 0
DWIDTH 10 0
BBX 3 3 4 9
BITMAP
E0
E0
60
ENDCHAR
STARTCHAR 02FB
ENCODING 763
SWIDTH 600 0
DWIDTH 10 0
BBX 3 3 3 -1
BITMAP
C0
E0
E0
ENDCHAR
STARTCHAR 02FC
ENCODING 764
SWIDTH 600 0
DWIDTH 10 0
BBX 3 3 4 -1
BITMAP
20
E0
E0
ENDCHAR
STARTCHAR 02FD
ENCODING 765
SWIDTH 600 0
DWIDTH 10 0
BBX 7 3 2 -3
BITMAP
86
FE
FE
ENDCHAR
STARTCHAR 02FE
ENCODING 766
SWIDTH 600 0
DWIDTH 10 0
BBX 6 3 2 -3
BITMAP
80
FC
FC
ENDCHAR
STARTCHAR 02FF
ENCODING 767
SWIDTH 600 0
DWIDTH 10 0
BBX 9 4 1 -3
BITMAP
3000
FF80
FF80
3000
ENDCHAR
STARTCHAR 0300
ENCODING 768
SWIDTH 0 0
DWIDTH 0 0
BBX 3 3 -7 8
BITMAP
80
C0
60
ENDCHAR
STARTCHAR 0301
ENCODING 769
SWIDTH 0 0
DWIDTH 0 0
BBX 3 3 -6 8
BITMAP
20
40
80
ENDCHAR
STARTCHAR 0302
ENCODING 770
SWIDTH 0 0
DWIDTH 0 0
BBX 6 3 -8 8
BITMAP
30
78
C4
ENDCHAR
STARTCHAR 0303
ENCODING 771
SWIDTH 0 0
DWIDTH 0 0
BBX 6 3 -8 9
BITMAP
64
FC
98
ENDCHAR
STARTCHAR 0304
ENCODING 772
SWIDTH 0 0
DWIDTH 0 0
BBX 6 2 -8 9
BITMAP
FC
FC
ENDCHAR
STARTCHAR 0305
ENCODING 773
SWIDTH 0 0
DWIDTH 0 0
BBX 8 2 -9 9
BITMAP
FF
FF
ENDCHAR
STARTCHAR 0306
ENCODING 774
SWIDTH 0 0
DWIDTH 0 0
BBX 6 2 -8 9
BITMAP
FC
78
ENDCHAR
STARTCHAR 0307
ENCODING 775
SWIDTH 0 0
DWIDTH 0 0
BBX 2 2 -6 9
BITMAP
C0
C0
ENDCHAR
STARTCHAR 0308
ENCODING 776
SWIDTH 0 0
DWIDTH 0 0
BBX 6 2 -8 9
BITMAP
CC
CC
ENDCHAR
STARTCHAR 0309
ENCODING 777
SWIDTH 0 0
DWIDTH 0 0
BBX 3 3 -7 9
BITMAP
60
A0
60
ENDCHAR
STARTCHAR 030A
ENCODING 778
SWIDTH 0 0
DWIDTH 0 0
BBX 3 3 -7 8
BITMAP
60
A0
60
ENDCHAR
STARTCHAR 030B
ENCODING 779
SWIDTH 0 0
DWIDTH 0 0
BBX 6 3 -8 8
BITMAP
2C
D8
90
ENDCHAR
STARTCHAR 030C
ENCODING 780
SWIDTH 0 0
DWIDTH 0 0
BBX 6 3 -8 8
BITMAP
8C
78
30
ENDCHAR
STARTCHAR 030D
ENCODING 781
SWIDTH 0 0
DWIDTH 0 0
BBX 2 3 -6 9
BITMAP
C0
C0
C0
ENDCHAR
STARTCHAR 030E
ENCODING 782
SWIDTH 0 0
DWIDTH 0 0
BBX 5 3 -7 9
BITMAP
D8
D8
D8
ENDCHAR
STARTCHAR 030F
ENCODING 783
SWIDTH 0 0
DWIDTH 0 0
BBX 6 3 -8 8
BITMAP
90
78
24
ENDCHAR
STARTCHAR 0310
ENCODING 784
SWIDTH 0 0
DWIDTH 0 0
BBX 6 3 -8 9
BITMAP
30
FC
78
ENDCHAR
STARTCHAR 0311
ENCODING 785
SWIDTH 0 0
DWIDTH 0 0
BBX 6 2 -8 8
BITMAP
78
FC
ENDCHAR
STARTCHAR 0312
ENCODING 786
SWIDTH 0 0
DWIDTH 0 0
BBX 3 3 -6 8
BITMAP
80
C0
60
ENDCHAR
STARTCHAR 0313
ENCODING 787
SWIDTH 0 0
DWIDTH 0 0
BBX 3 3 -6 8
BITMAP
20
40
80
ENDCHAR
STARTCHAR 0314
ENCODING 788
SWIDTH 0 0
DWIDTH 0 0
BBX 3 4 -7 8
BITMAP
C0
60
60
20
ENDCHAR
STARTCHAR 0315
ENCODING 789
SWIDTH 0 0
DWIDTH 0 0
BBX 3 3 -6 8
BITMAP
20
40
80
ENDCHAR
STARTCHAR 0316
ENCODING 790
SWIDTH 0 0
DWIDTH 0 0
BBX 3 3 -7 -4
BITMAP
80
60
20
ENDCHAR
STARTCHAR 0317
ENCODING 791
SWIDTH 0 0
DWIDTH 0 0
BBX 3 3 -7 -4
BITMAP
20
C0
80
ENDCHAR
STARTCHAR 0318
ENCODING 792
SWIDTH 0 0
DWIDTH 0 0
BBX 2 3 -6 -3
BITMAP
40
C0
40
ENDCHAR
STARTCHAR 0319
ENCODING 793
SWIDTH 0 0
DWIDTH 0 0
BBX 2 3 -6 -4
BITMAP
80
C0
80
ENDCHAR
STARTCHAR 031A
ENCODING 794
SWIDTH 0 0
DWIDTH 0 0
BBX 3 3 -1 9
BITMAP
E0
E0
60
ENDCHAR
STARTCHAR 031B
ENCODING 795
SWIDTH 0 0
DWIDTH 0 0
BBX 3 3 -3 8
BITMAP
60
E0
C0
ENDCHAR
STARTCHAR 031C
ENCODING 796
SWIDTH 0 0
DWIDTH 0 0
BBX 1 3 -6 -3
BITMAP
80
80
80
ENDCHAR
STARTCHAR 031D
ENCODING 797
SWIDTH 0 0
DWIDTH 0 0
BBX 3 2 -6 -3
BITMAP
40
E0
ENDCHAR
STARTCHAR 031E
ENCODING 798
SWIDTH 0 0
DWIDTH 0 0
BBX 3 2 -7 -3
BITMAP
E0
40
ENDCHAR
STARTCHAR 031F
ENCODING 799
SWIDTH 0 0
DWIDTH 0 0
BBX 4 4 -7 -3
BITMAP
20
F0
F0
20
ENDCHAR
STARTCHAR 0320
ENCODING 800
SWIDTH 0 0
DWIDTH 0 0
BBX 4 2 -7 -3
BITMAP
F0
F0
ENDCHAR
STARTCHAR 0321
ENCODING 801
SWIDTH 0 0
DWIDTH 0 0
BBX 5 3 -9 -3
BITMAP
18
F0
E0
ENDCHAR
STARTCHAR 0322
ENCODING 802
SWIDTH 0 0
DWIDTH 0 0
BBX 5 3 -6 -3
BITMAP
C0
F8
78
ENDCHAR
STARTCHAR 0323
ENCODING 803
SWIDTH 0 0
DWIDTH 0 0
BBX 2 2 -6 -3
BITMAP
C0
C0
ENDCHAR
STARTCHAR 0324
ENCODING 804
SWIDTH 0 0
DWIDTH 0 0
BBX 6 2 -8 -3
BITMAP
CC
C8
ENDCHAR
STARTCHAR 0325
ENCODING 805
SWIDTH 0 0
DWIDTH 0 0
BBX 4 3 -7 -4
BITMAP
60
D0
60
ENDCHAR
STARTCHAR 0326
ENCODING 806
SWIDTH 0 0
DWIDTH 0 0
BBX 2 3 -6 -3
BITMAP
C0
C0
80
ENDCHAR
STARTCHAR 0327
ENCODING 807
SWIDTH 0 0
DWIDTH 0 0
BBX 4 4 -7 -3
BITMAP
60
70
F0
E0
ENDCHAR
STARTCHAR 0328
ENCODING 808
SWIDTH 0 0
DWIDTH 0 0
BBX 4 3 -6 -3
BITMAP
C0
F0
60
ENDCHAR
STARTCHAR 0329
ENCODING 809
SWIDTH 0 0
DWIDTH 0 0
BBX 2 3 -6 -3
BITMAP
C0
C0
C0
ENDCHAR
STARTCHAR 032A
ENCODING 810
SWIDTH 0 0
DWIDTH 0 0
BBX 4 3 -7 -4
BITMAP
F0
90
90
ENDCHAR
STARTCHAR 032B
ENCODING 811
SWIDTH 0 0
DWIDTH 0 0
BBX 6 2 -8 -3
BITMAP
A4
F8
ENDCHAR
STARTCHAR 032C
ENCODING 812
SWIDTH 0 0
DWIDTH 0 0
BBX 6 2 -8 -4
BITMAP
CC
78
ENDCHAR
STARTCHAR 032D
ENCODING 813
SWIDTH 0 0
DWIDTH 0 0
BBX 6 3 -8 -3
BITMAP
20
78
CC
ENDCHAR
STARTCHAR 032E
ENCODING 814
SWIDTH 0 0
DWIDTH 0 0
BBX 6 2 -8 -3
BITMAP
FC
30
ENDCHAR
STARTCHAR 032F
ENCODING 815
SWIDTH 0 0
DWIDTH 0 0
BBX 6 2 -8 -3
BITMAP
70
FC
ENDCHAR
STARTCHAR 0330
ENCODING 816
SWIDTH 0 0
DWIDTH 0 0
BBX 6 3 -8 -3
BITMAP
64
FC
98
ENDCHAR
STARTCHAR 0331
ENCODING 817
SWIDTH 0 0
DWIDTH 0 0
BBX 6 2 -8 -3
BITMAP
FC
FC
ENDCHAR
STARTCHAR 0332
ENCODING 818
SWIDTH 0 0
DWIDTH 0 0
BBX 10 2 -10 -3
BITMAP
FFC0
FFC0
ENDCHAR
STARTCHAR 0333
ENCODING 819
SWIDTH 0 0
DWIDTH 0 0
BBX 10 3 -10 -3
BITMAP
FFC0
FFC0
FFC0
ENDCHAR
STARTCHAR 0334
ENCODING 820
SWIDTH 0 0
DWIDTH 0 0
BBX 6 3 -8 3
BITMAP
64
FC
98
ENDCHAR
STARTCHAR 0335
ENCODING 821
SWIDTH 0 0
DWIDTH 0 0
BBX 6 2 -8 5
BITMAP
FC
FC
ENDCHAR
STARTCHAR 0336
ENCODING 822
SWIDTH 0 0
DWIDTH 0 0
BBX 8 2 -9 4
BITMAP
FF
FF
ENDCHAR
STARTCHAR 0337
ENCODING 823
SWIDTH 0 0
DWIDTH 0 0
BBX 6 4 -8 4
BITMAP
0C
3C
F0
C0
ENDCHAR
STARTCHAR 0338
ENCODING 824
SWIDTH 0 0
DWIDTH 0 0
BBX 10 6 -10 3
BITMAP
00C0
03C0
0F00
3C00
F000
C000
ENDCHAR
STARTCHAR 0339
ENCODING 825
SWIDTH 0 0
DWIDTH 0 0
BBX 1 3 -5 -3
BITMAP
80
80
80
ENDCHAR
STARTCHAR 033A
ENCODING 826
SWIDTH 0 0
DWIDTH 0 0
BBX 4 3 -7 -3
BITMAP
90
90
F0
ENDCHAR
STARTCHAR 033B
ENCODING 827
SWIDTH 0 0
DWIDTH 0 0
BBX 3 3 -7 -3
BITMAP
E0
A0
E0
ENDCHAR
STARTCHAR 033C
ENCODING 828
SWIDTH 0 0
DWIDTH 0 0
BBX 6 2 -8 -3
BITMAP
7C
94
ENDCHAR
STARTCHAR 033D
ENCODING 829
SWIDTH 0 0
DWIDTH 0 0
BBX 2 3 -6 9
BITMAP
C0
C0
C0
ENDCHAR
STARTCHAR 033E
ENCODING 830
SWIDTH 0 0
DWIDTH 0 0
BBX 1 4 -6 8
BITMAP
80
80
80
80
ENDCHAR
STARTCHAR 033F
ENCODING 831
SWIDTH 0 0
DWIDTH 0 0
BBX 10 3 -10 11
BITMAP
FFC0
FFC0
FFC0
ENDCHAR
STARTCHAR 0340
ENCODING 832
SWIDTH 0 0
DWIDTH 0 0
BBX 3 3 -7 8
BITMAP
C0
60
20
ENDCHAR
STARTCHAR 0341
ENCODING 833
SWIDTH 0 0
DWIDTH 0 0
BBX 3 3 -6 8
BITMAP
20
60
C0
ENDCHAR
STARTCHAR 0342
ENCODING 834
SWIDTH 0 0
DWIDTH 0 0
BBX 6 3 -8 9
BITMAP
64
FC
98
ENDCHAR
STARTCHAR 0343
ENCODING 835
SWIDTH 0 0
DWIDTH 0 0
BBX 3 3 -6 8
BITMAP
20
40
80
ENDCHAR
STARTCHAR 0344
ENCODING 836
SWIDTH 0 0
DWIDTH 0 0
BBX 6 4 -8 9
BITMAP
08
10
BC
AC
ENDCHAR
STARTCHAR 0345
ENCODING 837
SWIDTH 0 0
DWIDTH 0 0
BBX 5 3 -6 -3
BITMAP
C0
F8
78
ENDCHAR
STARTCHAR 0346
ENCODING 838
SWIDTH 0 0
DWIDTH 0 0
BBX 4 3 -7 8
BITMAP
F0
90
90
ENDCHAR
STARTCHAR 0347
ENCODING 839
SWIDTH 0 0
DWIDTH 0 0
BBX 6 4 -8 -4
BITMAP
FC
FC
FC
FC
ENDCHAR
STARTCHAR 0348
ENCODING 840
SWIDTH 0 0
DWIDTH 0 0
BBX 4 3 -7 -3
BITMAP
F0
F0
F0
ENDCHAR
STARTCHAR 0349
ENCODING 841
SWIDTH 0 0
DWIDTH 0 0
BBX 3 3 -6 -3
BITMAP
E0
E0
60
ENDCHAR
STARTCHAR 034A
ENCODING 842
SWIDTH 0 0
DWIDTH 0 0
BBX 6 5 -8 7
BITMAP
10
74
FC
B8
20
ENDCHAR
STARTCHAR 034B
ENCODING 843
SWIDTH 0 0
DWIDTH 0 0
BBX 6 5 -8 8
BITMAP
1C
FC
FC
60
60
ENDCHAR
STARTCHAR 034C
ENCODING 844
SWIDTH 0 0
DWIDTH 0 0
BBX 6 6 -8 8
BITMAP
64
FC
DC
74
FC
88
ENDCHAR
STARTCHAR 034D
ENCODING 845
SWIDTH 0 0
DWIDTH 0 0
BBX 5 1 -8 -3
BITMAP
F8
ENDCHAR
STARTCHAR 034E
ENCODING 846
SWIDTH 0 0
DWIDTH 0 0
BBX 2 3 -6 -3
BITMAP
80
C0
80
ENDCHAR
STARTCHAR 034F
ENCODING 847
SWIDTH 0 0
DWIDTH 0 0
BBX 0 0 0 0
BITMAP
ENDCHAR
STARTCHAR 0350
ENCODING 848
SWIDTH 0 0
DWIDTH 0 0
BBX 4 4 -7 7
BITMAP
80
E0
F0
80
ENDCHAR
STARTCHAR 0351
ENCODING 849
SWIDTH 0 0
DWIDTH 0 0
BBX 1 3 -6 8
BITMAP
80
80
80
ENDCHAR
STARTCHAR 0352
ENCODING 850
SWIDTH 0 0
DWIDTH 0 0
BBX 6 4 -8 9
BITMAP
30
FC
30
30
ENDCHAR
STARTCHAR 0353
ENCODING 851
SWIDTH 0 0
DWIDTH 0 0
BBX 2 3 -6 -3
BITMAP
C0
C0
C0
ENDCHAR
STARTCHAR 0354
ENCODING 852
SWIDTH 0 0
DWIDTH 0 0
BBX 4 4 -7 -3
BITMAP
10
70
F0
10
ENDCHAR
STARTCHAR 0355
ENCODING 853
SWIDTH 0 0
DWIDTH 0 0
BBX 4 4 -7 -3
BITMAP
80
E0
F0
80
ENDCHAR
STARTCHAR 0356
ENCODING 854
SWIDTH 0 0
DWIDTH 0 0
BBX 8 4 -9 -3
BITMAP
84
E6
FF
89
ENDCHAR
STARTCHAR 0357
ENCODING 855
SWIDTH 0 0
DWIDTH 0 0
BBX 1 3 -5 8
BITMAP
80
80
80
ENDCHAR
STARTCHAR 0358
ENCODING 856
SWIDTH 0 0
DWIDTH 0 0
BBX 2 2 -2 9
BITMAP
C0
C0
ENDCHAR
STARTCHAR 0359
ENCODING 857
SWIDTH 0 0
DWIDTH 0 0
BBX 3 3 -7 -3
BITMAP
40
E0
A0
ENDCHAR
STARTCHAR 035A
ENCODING 858
SWIDTH 0 0
DWIDTH 0 0
BBX 5 3 -8 -2
BITMAP
F8
A8
D8
ENDCHAR
STARTCHAR 035B
ENCODING 859
SWIDTH 0 0
DWIDTH 0 0
BBX 3 4 -6 8
BITMAP
40
C0
E0
80
ENDCHAR
STARTCHAR 035C
ENCODING 860
SWIDTH 0 0
DWIDTH 0 0
BBX 14 3 -7 -4
BITMAP
E01C
78F8
1FE0
ENDCHAR
STARTCHAR 035D
ENCODING 861
SWIDTH 0 0
DWIDTH 0 0
BBX 14 3 -7 7
BITMAP
E01C
78F8
1FE0
ENDCHAR
STARTCHAR 035E
ENCODING 862
SWIDTH 0 0
DWIDTH 0 0
BBX 10 2 -5 9
BITMAP
FFC0
FFC0
ENDCHAR
STARTCHAR 035F
ENCODING 863
SWIDTH 0 0
DWIDTH 0 0
BBX 10 2 -5 -3
BITMAP
FFC0
FFC0
ENDCHAR
STARTCHAR 0360
ENCODING 864
SWIDTH 0 0
DWIDTH 0 0
BBX 12 3 -6 -3
BITMAP
7C00
FFF0
C3E0
ENDCHAR
STARTCHAR 0361
ENCODING 865
SWIDTH 0 0
DWIDTH 0 0
BBX 14 3 -7 9
BITMAP
1FE0
7C78
E01C
ENDCHAR
STARTCHAR 0362
ENCODING 866
SWIDTH 0 0
DWIDTH 0 0
BBX 10 3 -5 -3
BITMAP
0100
FFC0
0100
ENDCHAR
STARTCHAR 0363
ENCODING 867
SWIDTH 0 0
DWIDTH 0 0
BBX 4 3 -7 8
BITMAP
70
90
70
ENDCHAR
STARTCHAR 0364
ENCODING 868
SWIDTH 0 0
DWIDTH 0 0
BBX 4 3 -7 8
BITMAP
F0
F0
70
ENDCHAR
STARTCHAR 0365
ENCODING 869
SWIDTH 0 0
DWIDTH 0 0
BBX 4 3 -7 10
BITMAP
60
20
F0
ENDCHAR
STARTCHAR 0366
ENCODING 870
SWIDTH 0 0
DWIDTH 0 0
BBX 4 3 -7 8
BITMAP
70
90
70
ENDCHAR
STARTCHAR 0367
ENCODING 871
SWIDTH 0 0
DWIDTH 0 0
BBX 4 3 -7 8
BITMAP
90
90
70
ENDCHAR
STARTCHAR 0368
ENCODING 872
SWIDTH 0 0
DWIDTH 0 0
BBX 4 3 -7 8
BITMAP
70
80
70
ENDCHAR
STARTCHAR 0369
ENCODING 873
SWIDTH 0 0
DWIDTH 0 0
BBX 4 5 -7 8
BITMAP
10
10
F0
90
70
ENDCHAR
STARTCHAR 036A
ENCODING 874
SWIDTH 0 0
DWIDTH 0 0
BBX 4 5 -7 8
BITMAP
80
80
70
90
F0
ENDCHAR
STARTCHAR 036B
ENCODING 875
SWIDTH 0 0
DWIDTH 0 0
BBX 5 3 -7 8
BITMAP
F0
B0
B8
ENDCHAR
STARTCHAR 036C
ENCODING 876
SWIDTH 0 0
DWIDTH 0 0
BBX 4 3 -7 8
BITMAP
70
40
F0
ENDCHAR
STARTCHAR 036D
ENCODING 877
SWIDTH 0 0
DWIDTH 0 0
BBX 3 4 -6 8
BITMAP
80
C0
80
E0
ENDCHAR
STARTCHAR 036E
ENCODING 878
SWIDTH 0 0
DWIDTH 0 0
BBX 4 3 -7 8
BITMAP
90
60
20
ENDCHAR
STARTCHAR 036F
ENCODING 879
SWIDTH 0 0
DWIDTH 0 0
BBX 4 3 -7 8
BITMAP
70
60
F0
ENDCHAR
STARTCHAR 0374
ENCODING 884
SWIDTH 600 0
DWIDTH 10 0
BBX 2 4 4 8
BITMAP
C0
C0
80
80
ENDCHAR
STARTCHAR 0375
ENCODING 885
SWIDTH 600 0
DWIDTH 10 0
BBX 3 5 3 -2
BITMAP
60
C0
C0
80
80
ENDCHAR
STARTCHAR 037A
ENCODING 890
SWIDTH 600 0
DWIDTH 10 0
BBX 5 3 4 -3
BITMAP
C0
F8
78
ENDCHAR
STARTCHAR 037E
ENCODING 894
SWIDTH 600 0
DWIDTH 10 0
BBX 3 10 3 -3
BITMAP
60
60
00
00
00
00
E0
C0
C0
80
ENDCHAR
STARTCHAR 0384
ENCODING 900
SWIDTH 600 0
DWIDTH 10 0
BBX 3 4 3 8
BITMAP
20
60
40
C0
ENDCHAR
STARTCHAR 0385
ENCODING 901
SWIDTH 600 0
DWIDTH 10 0
BBX 6 4 2 9
BITMAP
08
18
DC
EC
ENDCHAR
STARTCHAR 0386
ENCODING 902
SWIDTH 600 0
DWIDTH 10 0
BBX 12 12 -1 0
BITMAP
2000
6000
DF00
9F00
0780
0D80
0D80
18C0
1FC0
1FE0
7CF0
7CF0
ENDCHAR
STARTCHAR 0387
ENCODING 903
SWIDTH 600 0
DWIDTH 10 0
BBX 2 2 4 6
BITMAP
C0
C0
ENDCHAR
STARTCHAR 0388
ENCODING 904
SWIDTH 600 0
DWIDTH 10 0
BBX 13 11 -2 1
BITMAP
2000
7FF0
CFF0
0430
04D0
07C0
07C0
04D0
0418
0FF8
0FF8
ENDCHAR
STARTCHAR 0389
ENCODING 905
SWIDTH 600 0
DWIDTH 10 0
BBX 12 12 -2 0
BITMAP
2000
2000
7EF0
DEF0
0C60
0C60
0FE0
0FE0
0C60
0C60
1EF0
1EF0
ENDCHAR
STARTCHAR 038A
ENCODING 906
SWIDTH 600 0
DWIDTH 10 0
BBX 10 11 0 1
BITMAP
6000
DFC0
9FC0
0600
0600
0600
0600
0600
0600
1FC0
1FC0
ENDCHAR
STARTCHAR 038C
ENCODING 908
SWIDTH 600 0
DWIDTH 10 0
BBX 11 11 -1 1
BITMAP
3000
6F00
DFC0
38E0
3060
2060
2060
3060
38E0
1FC0
0F00
ENDCHAR
STARTCHAR 038E
ENCODING 910
SWIDTH 600 0
DWIDTH 10 0
BBX 13 12 -2 0
BITMAP
2000
2000
7E78
DE78
0660
06C0
03C0
0180
0180
0180
07E0
07E0
ENDCHAR
STARTCHAR 038F
ENCODING 911
SWIDTH 600 0
DWIDTH 10 0
BBX 10 12 0 0
BITMAP
2000
6000
DF00
BF80
30C0
60C0
60C0
20C0
3080
7B40
7BC0
7BC0
ENDCHAR
STARTCHAR 0390
ENCODING 912
SWIDTH 600 0
DWIDTH 10 0
BBX 7 13 2 0
BITMAP
08
18
10
FC
00
F0
F0
30
30
30
30
1E
0E
ENDCHAR
STARTCHAR 0391
ENCODING 913
SWIDTH 600 0
DWIDTH 10 0
BBX 10 10 0 0
BITMAP
7C00
7E00
1E00
1E00
3300
3300
7F80
7F80
F3C0
F3C0
ENDCHAR
STARTCHAR 0392
ENCODING 914
SWIDTH 600 0
DWIDTH 10 0
BBX 10 10 0 0
BITMAP
FF00
FF80
2180
2180
3F00
3F80
20C0
20C0
FF80
FF00
ENDCHAR
STARTCHAR 0393
ENCODING 915
SWIDTH 600 0
DWIDTH 10 0
BBX 9 10 1 0
BITMAP
FF80
FF80
6180
6180
6000
6000
6000
6000
F800
F800
ENDCHAR
STARTCHAR 0394
ENCODING 916
SWIDTH 600 0
DWIDTH 10 0
BBX 10 10 0 0
BITMAP
7C00
7E00
1E00
1E00
1300
3300
3300
2180
FFC0
FFC0
ENDCHAR
STARTCHAR 0395
ENCODING 917
SWIDTH 600 0
DWIDTH 10 0
BBX 9 10 0 0
BITMAP
FF80
FF80
2180
2580
3C00
3C00
2480
2080
FF80
FF80
ENDCHAR
STARTCHAR 0396
ENCODING 918
SWIDTH 600 0
DWIDTH 10 0
BBX 8 10 1 0
BITMAP
7F
7F
46
4C
18
38
33
63
FF
FF
ENDCHAR
STARTCHAR 0397
ENCODING 919
SWIDTH 600 0
DWIDTH 10 0
BBX 10 10 0 0
BITMAP
7B80
7B80
2180
2180
3F80
3F80
2180
2180
FBC0
FBC0
ENDCHAR
STARTCHAR 0398
ENCODING 920
SWIDTH 600 0
DWIDTH 10 0
BBX 10 10 0 0
BITMAP
1E00
3F80
6180
52C0
DEC0
DEC0
52C0
6180
3F00
1E00
ENDCHAR
STARTCHAR 0399
ENCODING 921
SWIDTH 600 0
DWIDTH 10 0
BBX 8 10 1 0
BITMAP
FF
7F
18
18
18
18
18
18
FF
7F
ENDCHAR
STARTCHAR 039A
ENCODING 922
SWIDTH 600 0
DWIDTH 10 0
BBX 10 10 0 0
BITMAP
FBC0
FBC0
2300
2E00
3C00
3E00
2300
2300
F9C0
F9C0
ENDCHAR
STARTCHAR 039B
ENCODING 923
SWIDTH 600 0
DWIDTH 10 0
BBX 10 10 0 0
BITMAP
7C00
7E00
1E00
1E00
3300
3300
6180
6180
F3C0
F3C0
ENDCHAR
STARTCHAR 039C
ENCODING 924
SWIDTH 600 0
DWIDTH 10 0
BBX 11 10 0 0
BITMAP
E1C0
F1C0
73C0
73C0
5EC0
5EC0
4CC0
40C0
F3E0
F3C0
ENDCHAR
STARTCHAR 039D
ENCODING 925
SWIDTH 600 0
DWIDTH 10 0
BBX 10 10 0 0
BITMAP
E3C0
F3C0
7980
7980
6D80
6F80
6780
6380
FB80
F980
ENDCHAR
STARTCHAR 039E
ENCODING 926
SWIDTH 600 0
DWIDTH 10 0
BBX 9 10 1 0
BITMAP
FF00
FF00
C100
A500
3C00
3C00
A580
8180
FF80
FF80
ENDCHAR
STARTCHAR 039F
ENCODING 927
SWIDTH 600 0
DWIDTH 10 0
BBX 10 10 0 0
BITMAP
1E00
3F80
6180
40C0
C0C0
C0C0
40C0
6180
3F00
1E00
ENDCHAR
STARTCHAR 03A0
ENCODING 928
SWIDTH 600 0
DWIDTH 10 0
BBX 10 10 0 0
BITMAP
7F80
7F80
2180
2180
2180
2180
2180
2180
FBC0
FBC0
ENDCHAR
STARTCHAR 03A1
ENCODING 929
SWIDTH 600 0
DWIDTH 10 0
BBX 9 10 0 0
BITMAP
FE00
FF00
2180
2180
2180
3F00
3E00
2000
FC00
FC00
ENDCHAR
STARTCHAR 03A3
ENCODING 931
SWIDTH 600 0
DWIDTH 10 0
BBX 8 10 1 0
BITMAP
FF
FF
63
33
38
38
33
63
FF
FF
ENDCHAR
STARTCHAR 03A4
ENCODING 932
SWIDTH 600 0
DWIDTH 10 0
BBX 8 10 1 0
BITMAP
FF
FF
99
99
18
18
18
18
7E
7E
ENDCHAR
STARTCHAR 03A5
ENCODING 933
SWIDTH 600 0
DWIDTH 10 0
BBX 10 10 0 0
BITMAP
F3C0
F3C0
3300
1B00
1E00
0C00
0C00
0C00
3F00
3F00
ENDCHAR
STARTCHAR 03A6
ENCODING 934
SWIDTH 600 0
DWIDTH 10 0
BBX 10 10 0 0
BITMAP
7F80
3F80
7F80
FFC0
CCC0
CCC0
FFC0
7F80
7F80
3F80
ENDCHAR
STARTCHAR 03A7
ENCODING 935
SWIDTH 600 0
DWIDTH 10 0
BBX 10 10 0 0
BITMAP
F3C0
F3C0
3300
1E00
0E00
1E00
1F00
3380
F3C0
F3C0
ENDCHAR
STARTCHAR 03A8
ENCODING 936
SWIDTH 600 0
DWIDTH 10 0
BBX 10 10 0 0
BITMAP
FEC0
FEC0
6C80
6C80
6C80
6D80
3F80
1F00
1E00
1E00
ENDCHAR
STARTCHAR 03A9
ENCODING 937
SWIDTH 600 0
DWIDTH 10 0
BBX 9 10 1 0
BITMAP
3C00
7F00
C300
8100
8180
C100
C300
BF80
FF80
FF80
ENDCHAR
STARTCHAR 03AA
ENCODING 938
SWIDTH 600 0
DWIDTH 10 0
BBX 8 13 1 0
BITMAP
26
66
00
FF
7F
18
18
18
18
18
18
FF
7F
ENDCHAR
STARTCHAR 03AB
ENCODING 939
SWIDTH 600 0
DWIDTH 10 0
BBX 10 13 0 0
BITMAP
1300
3300
0000
F3C0
F3C0
3300
1B00
1E00
0C00
0C00
0C00
3F00
3F00
ENDCHAR
STARTCHAR 03AC
ENCODING 940
SWIDTH 600 0
DWIDTH 10 0
BBX 9 13 1 0
BITMAP
0C00
0800
1800
1000
0100
3F00
7F00
C300
8300
8300
C300
FF80
3F80
ENDCHAR
STARTCHAR 03AD
ENCODING 941
SWIDTH 600 0
DWIDTH 10 0
BBX 8 13 1 0
BITMAP
02
06
0C
08
00
3F
7F
43
7C
7C
C3
7F
3F
ENDCHAR
STARTCHAR 03AE
ENCODING 942
SWIDTH 600 0
DWIDTH 10 0
BBX 10 16 0 -3
BITMAP
0200
0600
0400
0C00
0000
6F00
7F00
3180
2180
2180
2180
F180
F180
0180
01C0
01C0
ENDCHAR
STARTCHAR 03AF
ENCODING 943
SWIDTH 600 0
DWIDTH 10 0
BBX 7 13 2 0
BITMAP
10
30
60
40
00
F0
F0
30
30
30
30
1E
0E
ENDCHAR
STARTCHAR 03B0
ENCODING 944
SWIDTH 600 0
DWIDTH 10 0
BBX 10 13 0 0
BITMAP
0200
0600
2400
3F00
0000
E3C0
E3C0
2180
2180
2180
3180
3F00
1E00
ENDCHAR
STARTCHAR 03B1
ENCODING 945
SWIDTH 600 0
DWIDTH 10 0
BBX 9 9 1 0
BITMAP
0100
3F00
7F00
C300
8300
8300
C300
FF80
3F80
ENDCHAR
STARTCHAR 03B2
ENCODING 946
SWIDTH 600 0
DWIDTH 10 0
BBX 9 14 0 -3
BITMAP
1C00
3E00
2300
2300
2E00
2F00
2380
2180
2180
3F80
3F00
2000
F000
F000
ENDCHAR
STARTCHAR 03B3
ENCODING 947
SWIDTH 600 0
DWIDTH 10 0
BBX 10 11 0 -3
BITMAP
F3C0
F3C0
6180
3300
1B00
1E00
0C00
0C00
0C00
1E00
1E00
ENDCHAR
STARTCHAR 03B4
ENCODING 948
SWIDTH 600 0
DWIDTH 10 0
BBX 8 11 1 0
BITMAP
7F
FF
C1
FC
7F
C3
81
81
C3
7F
3C
ENDCHAR
STARTCHAR 03B5
ENCODING 949
SWIDTH 600 0
DWIDTH 10 0
BBX 8 8 1 0
BITMAP
3F
7F
43
7C
7C
C3
7F
3F
ENDCHAR
STARTCHAR 03B6
ENCODING 950
SWIDTH 600 0
DWIDTH 10 0
BBX 7 14 2 -3
BITMAP
FE
FE
9C
30
60
C0
80
80
C0
FC
7C
0C
1E
1E
ENDCHAR
STARTCHAR 03B7
ENCODING 951
SWIDTH 600 0
DWIDTH 10 0
BBX 10 11 0 -3
BITMAP
6F00
7F00
3180
2180
2180
2180
F180
F180
0180
01C0
01C0
ENDCHAR
STARTCHAR 03B8
ENCODING 952
SWIDTH 600 0
DWIDTH 10 0
BBX 8 11 1 0
BITMAP
3C
7E
66
43
C3
FF
FF
43
66
7E
3C
ENDCHAR
STARTCHAR 03B9
ENCODING 953
SWIDTH 600 0
DWIDTH 10 0
BBX 7 8 2 0
BITMAP
F0
F0
30
30
30
30
1E
0E
ENDCHAR
STARTCHAR 03BA
ENCODING 954
SWIDTH 600 0
DWIDTH 10 0
BBX 8 8 1 0
BITMAP
EF
EF
7C
78
78
6C
EF
EF
ENDCHAR
STARTCHAR 03BB
ENCODING 955
SWIDTH 600 0
DWIDTH 10 0
BBX 10 11 0 0
BITMAP
7000
7800
0800
0C00
0E00
1E00
1300
3300
6180
F3C0
F3C0
ENDCHAR
STARTCHAR 03BC
ENCODING 956
SWIDTH 600 0
DWIDTH 10 0
BBX 10 11 0 -3
BITMAP
E780
E780
2180
2180
2180
3380
3FC0
3DC0
2000
F000
7000
ENDCHAR
STARTCHAR 03BD
ENCODING 957
SWIDTH 600 0
DWIDTH 10 0
BBX 8 8 1 0
BITMAP
F7
F7
61
23
33
36
1C
1C
ENDCHAR
STARTCHAR 03BE
ENCODING 958
SWIDTH 600 0
DWIDTH 10 0
BBX 7 14 2 -3
BITMAP
FE
FE
B0
20
1C
7C
40
C0
C0
60
3C
04
1E
1E
ENDCHAR
STARTCHAR 03BF
ENCODING 959
SWIDTH 600 0
DWIDTH 10 0
BBX 8 8 1 0
BITMAP
3C
7F
C3
81
81
C3
7F
3C
ENDCHAR
STARTCHAR 03C0
ENCODING 960
SWIDTH 600 0
DWIDTH 10 0
BBX 8 8 1 0
BITMAP
FF
FF
62
62
62
62
E7
E7
ENDCHAR
STARTCHAR 03C1
ENCODING 961
SWIDTH 600 0
DWIDTH 10 0
BBX 9 11 0 -3
BITMAP
1E00
3F80
6180
4080
4080
6180
7F80
5E00
4000
F000
F000
ENDCHAR
STARTCHAR 03C2
ENCODING 962
SWIDTH 600 0
DWIDTH 10 0
BBX 7 9 2 -1
BITMAP
7E
FE
86
C0
7C
3C
C4
FC
F8
ENDCHAR
STARTCHAR 03C3
ENCODING 963
SWIDTH 600 0
DWIDTH 10 0
BBX 9 8 1 0
BITMAP
3F80
7F80
C300
8100
8100
C300
7F00
3C00
ENDCHAR
STARTCHAR 03C4
ENCODING 964
SWIDTH 600 0
DWIDTH 10 0
BBX 8 8 1 0
BITMAP
FF
FF
18
18
18
18
1F
0F
ENDCHAR
STARTCHAR 03C5
ENCODING 965
SWIDTH 600 0
DWIDTH 10 0
BBX 10 8 0 0
BITMAP
E3C0
E3C0
2180
2180
2180
3180
3F00
1E00
ENDCHAR
STARTCHAR 03C6
ENCODING 966
SWIDTH 600 0
DWIDTH 10 0
BBX 10 11 0 -3
BITMAP
E780
E7C0
64C0
64C0
64C0
64C0
3FC0
3F80
0400
0400
0400
ENDCHAR
STARTCHAR 03C7
ENCODING 967
SWIDTH 600 0
DWIDTH 10 0
BBX 10 11 0 -3
BITMAP
E7C0
F7C0
3300
1E00
1E00
0C00
1E00
1E00
3300
FBC0
F9C0
ENDCHAR
STARTCHAR 03C8
ENCODING 968
SWIDTH 600 0
DWIDTH 10 0
BBX 11 14 0 -3
BITMAP
0C00
0C00
0C00
EDE0
EDC0
6D80
6D80
6D80
6D80
7F80
3F00
0C00
0C00
0C00
ENDCHAR
STARTCHAR 03C9
ENCODING 969
SWIDTH 600 0
DWIDTH 10 0
BBX 10 9 0 -1
BITMAP
73C0
73C0
4080
CCC0
CCC0
CCC0
4C80
7F80
3B00
ENDCHAR
STARTCHAR 03CA
ENCODING 970
SWIDTH 600 0
DWIDTH 10 0
BBX 7 11 2 0
BITMAP
88
D8
00
F0
F0
30
30
30
30
1E
0E
ENDCHAR
STARTCHAR 03CB
ENCODING 971
SWIDTH 600 0
DWIDTH 10 0
BBX 10 11 0 0
BITMAP
1200
3300
0000
E3C0
E3C0
2180
2180
2180
3180
3F00
1E00
ENDCHAR
STARTCHAR 03CC
ENCODING 972
SWIDTH 600 0
DWIDTH 10 0
BBX 8 13 1 0
BITMAP
04
0C
18
10
00
3C
7F
C3
81
81
C3
7F
3C
ENDCHAR
STARTCHAR 03CD
ENCODING 973
SWIDTH 600 0
DWIDTH 10 0
BBX 10 13 0 0
BITMAP
0600
0400
0C00
0800
0000
E3C0
E3C0
2180
2180
2180
3180
3F00
1E00
ENDCHAR
STARTCHAR 03CE
ENCODING 974
SWIDTH 600 0
DWIDTH 10 0
BBX 10 14 0 -1
BITMAP
0200
0600
0400
0C00
0000
73C0
73C0
4080
CCC0
CCC0
CCC0
4C80
7F80
3B00
ENDCHAR
STARTCHAR 03D0
ENCODING 976
SWIDTH 600 0
DWIDTH 10 0
BBX 8 12 1 -1
BITMAP
1C
3E
63
63
FF
FE
FE
FF
63
63
3E
1C
ENDCHAR
STARTCHAR 03D1
ENCODING 977
SWIDTH 600 0
DWIDTH 10 0
BBX 7 13 2 -1
BITMAP
38
7C
CC
86
86
FE
7E
06
06
86
CC
7C
38
ENDCHAR
STARTCHAR 03D2
ENCODING 978
SWIDTH 600 0
DWIDTH 10 0
BBX 10 11 0 -1
BITMAP
4180
E3C0
6300
3600
3C00
1C00
0800
0800
0800
0800
0800
ENDCHAR
STARTCHAR 03D3
ENCODING 979
SWIDTH 600 0
DWIDTH 10 0
BBX 11 10 -1 0
BITMAP
20E0
F0E0
D980
0B00
0E00
0600
0600
0600
0600
0600
ENDCHAR
STARTCHAR 03D4
ENCODING 980
SWIDTH 600 0
DWIDTH 10 0
BBX 10 13 0 -1
BITMAP
3600
3600
4180
E3C0
6300
3600
3C00
1C00
0800
0800
0800
0800
0800
ENDCHAR
STARTCHAR 03D5
ENCODING 981
SWIDTH 600 0
DWIDTH 10 0
BBX 10 14 0 -3
BITMAP
0C00
0C00
0C00
3F00
7F80
CCC0
CC40
CC40
CCC0
7FC0
3F00
0C00
0C00
0C00
ENDCHAR
STARTCHAR 03D6
ENCODING 982
SWIDTH 600 0
DWIDTH 10 0
BBX 10 9 0 -1
BITMAP
7FC0
7FC0
4080
CCC0
CCC0
CCC0
4C80
7F80
3B00
ENDCHAR
STARTCHAR 03DA
ENCODING 986
SWIDTH 600 0
DWIDTH 10 0
BBX 10 13 1 -3
BITMAP
0FC0
3FC0
7000
6000
C000
C000
C000
C000
7000
3E00
0200
3E00
3C00
ENDCHAR
STARTCHAR 03DB
ENCODING 987
SWIDTH 600 0
DWIDTH 10 0
BBX 9 11 1 -3
BITMAP
1F80
7F80
6000
C000
C000
C000
7000
3E00
0600
3E00
3C00
ENDCHAR
STARTCHAR 03DC
ENCODING 988
SWIDTH 600 0
DWIDTH 10 0
BBX 9 10 0 0
BITMAP
FF80
FF80
2080
2080
3C00
3C00
2000
2000
FC00
FC00
ENDCHAR
STARTCHAR 03DD
ENCODING 989
SWIDTH 600 0
DWIDTH 10 0
BBX 9 11 1 -3
BITMAP
0F00
1F80
3000
3000
3E00
3E00
3000
3000
3000
F000
F000
ENDCHAR
STARTCHAR 03F0
ENCODING 1008
SWIDTH 600 0
DWIDTH 10 0
BBX 10 8 0 0
BITMAP
63C0
73C0
3300
1E00
1E00
3300
F3C0
F1C0
ENDCHAR
STARTCHAR 03F1
ENCODING 1009
SWIDTH 600 0
DWIDTH 10 0
BBX 8 11 1 -3
BITMAP
3C
7F
C3
81
81
C3
FF
BC
80
FF
7F
ENDCHAR
STARTCHAR 03F4
ENCODING 1012
SWIDTH 600 0
DWIDTH 10 0
BBX 10 10 0 0
BITMAP
1E00
3F80
6180
40C0
FFC0
FFC0
40C0
6180
3F00
1E00
ENDCHAR
STARTCHAR 03F5
ENCODING 1013
SWIDTH 600 0
DWIDTH 10 0
BBX 5 9 3 -1
BITMAP
38
F8
C0
F8
F8
80
C0
78
38
ENDCHAR
STARTCHAR 0400
ENCODING 1024
SWIDTH 600 0
DWIDTH 10 0
BBX 9 13 0 0
BITMAP
0800
0C00
0600
FF80
FF80
2180
2580
3C00
3C00
2480
2080
FF80
FF80
ENDCHAR
STARTCHAR 0401
ENCODING 1025
SWIDTH 600 0
DWIDTH 10 0
BBX 9 13 0 0
BITMAP
3200
3200
0000
FF80
FF80
2180
2580
3C00
3C00
2480
2080
FF80
FF80
ENDCHAR
STARTCHAR 0402
ENCODING 1026
SWIDTH 600 0
DWIDTH 10 0
BBX 10 13 0 -3
BITMAP
FF00
FF00
DA00
1F80
1FC0
18C0
18C0
18C0
3CC0
3CC0
00C0
0380
0300
ENDCHAR
STARTCHAR 0403
ENCODING 1027
SWIDTH 600 0
DWIDTH 10 0
BBX 9 13 1 0
BITMAP
0C00
1800
1000
FF80
FF80
6180
6180
6000
6000
6000
6000
F800
F800
ENDCHAR
STARTCHAR 0404
ENCODING 1028
SWIDTH 600 0
DWIDTH 10 0
BBX 9 10 1 0
BITMAP
3F00
7F00
C300
8100
FC00
FC00
8000
C000
7F80
3F00
ENDCHAR
STARTCHAR 0405
ENCODING 1029
SWIDTH 600 0
DWIDTH 10 0
BBX 8 10 1 0
BITMAP
3F
7F
C3
E0
7E
3E
03
C3
FF
FC
ENDCHAR
STARTCHAR 0406
ENCODING 1030
SWIDTH 600 0
DWIDTH 10 0
BBX 8 10 1 0
BITMAP
FF
7F
18
18
18
18
18
18
FF
7F
ENDCHAR
STARTCHAR 0407
ENCODING 1031
SWIDTH 600 0
DWIDTH 10 0
BBX 8 13 1 0
BITMAP
26
66
00
FF
7F
18
18
18
18
18
18
FF
7F
ENDCHAR
STARTCHAR 0408
ENCODING 1032
SWIDTH 600 0
DWIDTH 10 0
BBX 9 10 1 0
BITMAP
1F80
1F80
0200
0200
0200
C200
C200
C600
FE00
7C00
ENDCHAR
STARTCHAR 0409
ENCODING 1033
SWIDTH 600 0
DWIDTH 10 0
BBX 12 10 -1 0
BITMAP
3F80
3F80
1B00
1B00
1BC0
1BE0
1B30
DB30
FFE0
77C0
ENDCHAR
STARTCHAR 040A
ENCODING 1034
SWIDTH 600 0
DWIDTH 10 0
BBX 12 10 -1 0
BITMAP
F780
F780
6300
6300
7FC0
7FE0
6330
6330
F7E0
F7C0
ENDCHAR
STARTCHAR 040B
ENCODING 1035
SWIDTH 600 0
DWIDTH 10 0
BBX 10 10 0 0
BITMAP
FE00
FE00
9600
1780
1F80
1080
1080
1080
3FC0
3FC0
ENDCHAR
STARTCHAR 040C
ENCODING 1036
SWIDTH 600 0
DWIDTH 10 0
BBX 10 13 0 0
BITMAP
0600
0C00
0800
FBC0
FBC0
6700
6E00
7C00
6E00
6700
6300
F9C0
F9C0
ENDCHAR
STARTCHAR 040D
ENCODING 1037
SWIDTH 600 0
DWIDTH 10 0
BBX 10 13 0 0
BITMAP
1800
0C00
0400
7B80
7B80
2180
2380
2780
3D80
3180
2180
FBC0
FBC0
ENDCHAR
STARTCHAR 040E
ENCODING 1038
SWIDTH 600 0
DWIDTH 10 0
BBX 10 13 0 0
BITMAP
3F00
1E00
0000
F3C0
F3C0
3380
3300
1E00
0E00
0C00
1C00
3C00
3C00
ENDCHAR
STARTCHAR 040F
ENCODING 1039
SWIDTH 600 0
DWIDTH 10 0
BBX 10 12 0 -2
BITMAP
FBC0
FBC0
2180
2180
2180
2180
2180
2180
7F80
7F80
0C00
0C00
ENDCHAR
STARTCHAR 0410
ENCODING 1040
SWIDTH 600 0
DWIDTH 10 0
BBX 10 10 0 0
BITMAP
7C00
7E00
1E00
1E00
3300
3300
7F80
7F80
F3C0
F3C0
ENDCHAR
STARTCHAR 0411
ENCODING 1041
SWIDTH 600 0
DWIDTH 10 0
BBX 10 10 0 0
BITMAP
FF80
FF80
2080
2080
3F80
3FC0
20C0
20C0
FFC0
FF80
ENDCHAR
STARTCHAR 0412
ENCODING 1042
SWIDTH 600 0
DWIDTH 10 0
BBX 10 10 0 0
BITMAP
FF00
FF80
2180
2180
3F00
3F80
20C0
20C0
FF80
FF00
ENDCHAR
STARTCHAR 0413
ENCODING 1043
SWIDTH 600 0
DWIDTH 10 0
BBX 9 10 1 0
BITMAP
FF80
FF80
6180
6180
6000
6000
6000
6000
F800
F800
ENDCHAR
STARTCHAR 0414
ENCODING 1044
SWIDTH 600 0
DWIDTH 10 0
BBX 10 12 0 -2
BITMAP
3F80
3F80
1100
1100
1100
1100
1100
1100
FFC0
FFC0
C0C0
C040
ENDCHAR
STARTCHAR 0415
ENCODING 1045
SWIDTH 600 0
DWIDTH 10 0
BBX 9 10 0 0
BITMAP
FF80
FF80
2180
2580
3C00
3C00
2480
2080
FF80
FF80
ENDCHAR
STARTCHAR 0416
ENCODING 1046
SWIDTH 600 0
DWIDTH 10 0
BBX 10 10 0 0
BITMAP
FEC0
FFC0
6D80
3D00
3F00
7F80
6D80
4C80
DEC0
DEC0
ENDCHAR
STARTCHAR 0417
ENCODING 1047
SWIDTH 600 0
DWIDTH 10 0
BBX 8 10 1 0
BITMAP
FC
FE
C3
03
3E
3F
03
C3
FF
FE
ENDCHAR
STARTCHAR 0418
ENCODING 1048
SWIDTH 600 0
DWIDTH 10 0
BBX 10 10 0 0
BITMAP
7B80
7B80
2180
2380
2780
3D80
3180
2180
FBC0
FBC0
ENDCHAR
STARTCHAR 0419
ENCODING 1049
SWIDTH 600 0
DWIDTH 10 0
BBX 10 13 0 0
BITMAP
3F00
1E00
0000
7B80
7B80
2180
2380
2780
3D80
3180
2180
FBC0
FBC0
ENDCHAR
STARTCHAR 041A
ENCODING 1050
SWIDTH 600 0
DWIDTH 10 0
BBX 10 10 0 0
BITMAP
FBC0
FBC0
6700
6E00
7C00
6E00
6700
6300
F9C0
F9C0
ENDCHAR
STARTCHAR 041B
ENCODING 1051
SWIDTH 600 0
DWIDTH 10 0
BBX 10 10 0 0
BITMAP
1FC0
1FC0
1980
1980
1980
1980
1980
D980
FBC0
73C0
ENDCHAR
STARTCHAR 041C
ENCODING 1052
SWIDTH 600 0
DWIDTH 10 0
BBX 11 10 0 0
BITMAP
E1C0
F1C0
73C0
73C0
5EC0
5EC0
4CC0
40C0
F3E0
F3C0
ENDCHAR
STARTCHAR 041D
ENCODING 1053
SWIDTH 600 0
DWIDTH 10 0
BBX 10 10 0 0
BITMAP
7B80
7B80
2180
2180
3F80
3F80
2180
2180
FBC0
FBC0
ENDCHAR
STARTCHAR 041E
ENCODING 1054
SWIDTH 600 0
DWIDTH 10 0
BBX 10 10 0 0
BITMAP
1E00
3F80
6180
40C0
C0C0
C0C0
40C0
6180
3F00
1E00
ENDCHAR
STARTCHAR 041F
ENCODING 1055
SWIDTH 600 0
DWIDTH 10 0
BBX 10 10 0 0
BITMAP
7F80
7F80
2180
2180
2180
2180
2180
2180
FBC0
FBC0
ENDCHAR
STARTCHAR 0420
ENCODING 1056
SWIDTH 600 0
DWIDTH 10 0
BBX 9 10 0 0
BITMAP
FE00
FF00
2180
2180
2180
3F00
3E00
2000
FC00
FC00
ENDCHAR
STARTCHAR 0421
ENCODING 1057
SWIDTH 600 0
DWIDTH 10 0
BBX 9 10 1 0
BITMAP
3F00
7F00
C300
C100
8000
8000
8000
C000
7F80
3F00
ENDCHAR
STARTCHAR 0422
ENCODING 1058
SWIDTH 600 0
DWIDTH 10 0
BBX 8 10 1 0
BITMAP
FF
FF
99
99
18
18
18
18
7E
7E
ENDCHAR
STARTCHAR 0423
ENCODING 1059
SWIDTH 600 0
DWIDTH 10 0
BBX 10 10 0 0
BITMAP
F3C0
F3C0
3380
3300
1E00
0E00
0C00
1C00
3C00
3C00
ENDCHAR
STARTCHAR 0424
ENCODING 1060
SWIDTH 600 0
DWIDTH 10 0
BBX 10 10 0 0
BITMAP
7F80
3F80
7F80
FFC0
CCC0
CCC0
FFC0
7F80
7F80
3F80
ENDCHAR
STARTCHAR 0425
ENCODING 1061
SWIDTH 600 0
DWIDTH 10 0
BBX 10 10 0 0
BITMAP
F3C0
F3C0
3300
1E00
0E00
1E00
1F00
3380
F3C0
F3C0
ENDCHAR
STARTCHAR 0426
ENCODING 1062
SWIDTH 600 0
DWIDTH 10 0
BBX 10 12 0 -2
BITMAP
F780
F780
6100
6100
6100
6100
6100
6100
7FC0
7FC0
00C0
00C0
ENDCHAR
STARTCHAR 0427
ENCODING 1063
SWIDTH 600 0
DWIDTH 10 0
BBX 8 10 1 0
BITMAP
FF
FF
42
42
42
7E
7A
02
0F
0F
ENDCHAR
STARTCHAR 0428
ENCODING 1064
SWIDTH 600 0
DWIDTH 10 0
BBX 11 10 0 0
BITMAP
EFC0
EFC0
CCC0
CCC0
CCC0
CCC0
CCC0
CCC0
FFE0
FFC0
ENDCHAR
STARTCHAR 0429
ENCODING 1065
SWIDTH 600 0
DWIDTH 10 0
BBX 11 12 0 -2
BITMAP
FFC0
FFC0
CCC0
CCC0
CCC0
CCC0
CCC0
CCC0
FFE0
FFE0
0060
0060
ENDCHAR
STARTCHAR 042A
ENCODING 1066
SWIDTH 600 0
DWIDTH 10 0
BBX 10 10 0 0
BITMAP
FE00
FE00
D800
DF80
1FC0
18C0
1840
18C0
3FC0
3F80
ENDCHAR
STARTCHAR 042B
ENCODING 1067
SWIDTH 600 0
DWIDTH 10 0
BBX 10 10 0 0
BITMAP
F1C0
F1C0
60C0
78C0
7CC0
66C0
66C0
66C0
FFC0
F9C0
ENDCHAR
STARTCHAR 042C
ENCODING 1068
SWIDTH 600 0
DWIDTH 10 0
BBX 9 10 0 0
BITMAP
FC00
FC00
2000
3E00
3F00
2180
2180
2180
FF00
FE00
ENDCHAR
STARTCHAR 042D
ENCODING 1069
SWIDTH 600 0
DWIDTH 10 0
BBX 9 10 1 0
BITMAP
BC00
FE00
C300
8180
3F80
3F80
0180
0300
FF00
7C00
ENDCHAR
STARTCHAR 042E
ENCODING 1070
SWIDTH 600 0
DWIDTH 10 0
BBX 10 10 0 0
BITMAP
E700
EF80
58C0
58C0
78C0
78C0
58C0
58C0
EF80
E700
ENDCHAR
STARTCHAR 042F
ENCODING 1071
SWIDTH 600 0
DWIDTH 10 0
BBX 10 10 0 0
BITMAP
1FC0
3FC0
3180
3180
3F80
1F80
3980
3180
E3C0
E3C0
ENDCHAR
STARTCHAR 0430
ENCODING 1072
SWIDTH 600 0
DWIDTH 10 0
BBX 9 8 1 0
BITMAP
7C00
7E00
3E00
FE00
C200
C600
FF80
7B80
ENDCHAR
STARTCHAR 0431
ENCODING 1073
SWIDTH 600 0
DWIDTH 10 0
BBX 8 11 1 0
BITMAP
03
3F
7F
FC
FE
C3
C1
C1
C3
7E
3C
ENDCHAR
STARTCHAR 0432
ENCODING 1074
SWIDTH 600 0
DWIDTH 10 0
BBX 7 8 2 0
BITMAP
FC
FC
C6
FC
FC
C6
FE
FC
ENDCHAR
STARTCHAR 0433
ENCODING 1075
SWIDTH 600 0
DWIDTH 10 0
BBX 7 8 2 0
BITMAP
FE
FE
44
40
40
40
E0
E0
ENDCHAR
STARTCHAR 0434
ENCODING 1076
SWIDTH 600 0
DWIDTH 10 0
BBX 9 9 1 -1
BITMAP
7F80
7F80
2300
2300
2300
2300
FF80
FF80
8100
ENDCHAR
STARTCHAR 0435
ENCODING 1077
SWIDTH 600 0
DWIDTH 10 0
BBX 8 8 1 0
BITMAP
3C
FE
C3
FF
FF
C0
FF
3E
ENDCHAR
STARTCHAR 0436
ENCODING 1078
SWIDTH 600 0
DWIDTH 10 0
BBX 10 8 0 0
BITMAP
EFC0
EFC0
7F80
3F00
3F00
7F80
EFC0
EFC0
ENDCHAR
STARTCHAR 0437
ENCODING 1079
SWIDTH 600 0
DWIDTH 10 0
BBX 8 8 1 0
BITMAP
7C
7E
43
3E
3F
C3
FF
FE
ENDCHAR
STARTCHAR 0438
ENCODING 1080
SWIDTH 600 0
DWIDTH 10 0
BBX 9 8 1 0
BITMAP
E780
E780
4700
5F00
7B00
6300
E780
E780
ENDCHAR
STARTCHAR 0439
ENCODING 1081
SWIDTH 600 0
DWIDTH 10 0
BBX 9 11 1 0
BITMAP
7E00
7E00
0000
E780
E780
4700
5F00
7B00
6300
E780
E780
ENDCHAR
STARTCHAR 043A
ENCODING 1082
SWIDTH 600 0
DWIDTH 10 0
BBX 8 8 1 0
BITMAP
EF
EF
7C
78
78
6C
EF
EF
ENDCHAR
STARTCHAR 043B
ENCODING 1083
SWIDTH 600 0
DWIDTH 10 0
BBX 10 8 0 0
BITMAP
3FC0
3FC0
1980
1980
1980
D980
FBC0
73C0
ENDCHAR
STARTCHAR 043C
ENCODING 1084
SWIDTH 600 0
DWIDTH 10 0
BBX 10 8 0 0
BITMAP
F3C0
F3C0
5AC0
5EC0
4CC0
4CC0
E1C0
E1C0
ENDCHAR
STARTCHAR 043D
ENCODING 1085
SWIDTH 600 0
DWIDTH 10 0
BBX 8 8 1 0
BITMAP
F7
F7
62
7E
7E
62
F7
F7
ENDCHAR
STARTCHAR 043E
ENCODING 1086
SWIDTH 600 0
DWIDTH 10 0
BBX 8 8 1 0
BITMAP
3C
7F
C3
81
81
C3
7F
3C
ENDCHAR
STARTCHAR 043F
ENCODING 1087
SWIDTH 600 0
DWIDTH 10 0
BBX 8 8 1 0
BITMAP
FF
FF
62
62
62
62
E7
E7
ENDCHAR
STARTCHAR 0440
ENCODING 1088
SWIDTH 600 0
DWIDTH 10 0
BBX 10 11 0 -3
BITMAP
EF00
FF80
71C0
60C0
60C0
71C0
7F80
6F00
6000
F800
F800
ENDCHAR
STARTCHAR 0441
ENCODING 1089
SWIDTH 600 0
DWIDTH 10 0
BBX 8 8 1 0
BITMAP
3F
7F
E3
C1
C0
C1
7F
3E
ENDCHAR
STARTCHAR 0442
ENCODING 1090
SWIDTH 600 0
DWIDTH 10 0
BBX 8 8 1 0
BITMAP
FF
FF
DB
18
18
18
3C
3C
ENDCHAR
STARTCHAR 0443
ENCODING 1091
SWIDTH 600 0
DWIDTH 10 0
BBX 10 11 0 -3
BITMAP
F3C0
F3C0
6180
3300
1300
1E00
0C00
0C00
1800
FC00
FC00
ENDCHAR
STARTCHAR 0444
ENCODING 1092
SWIDTH 600 0
DWIDTH 10 0
BBX 10 14 0 -3
BITMAP
1C00
1C00
0C00
3F00
7F80
CCC0
CCC0
CCC0
CCC0
7F80
3F00
0C00
1F00
1F00
ENDCHAR
STARTCHAR 0445
ENCODING 1093
SWIDTH 600 0
DWIDTH 10 0
BBX 10 8 0 0
BITMAP
7380
7380
3F00
1E00
1E00
3B00
73C0
F3C0
ENDCHAR
STARTCHAR 0446
ENCODING 1094
SWIDTH 600 0
DWIDTH 10 0
BBX 9 9 1 -1
BITMAP
EF00
EF00
4600
4600
4600
4600
FF80
FF80
0180
ENDCHAR
STARTCHAR 0447
ENCODING 1095
SWIDTH 600 0
DWIDTH 10 0
BBX 8 8 1 0
BITMAP
F7
F7
62
62
7E
3E
07
07
ENDCHAR
STARTCHAR 0448
ENCODING 1096
SWIDTH 600 0
DWIDTH 10 0
BBX 10 8 0 0
BITMAP
EFC0
EFC0
CCC0
CCC0
CCC0
CCC0
FFC0
FFC0
ENDCHAR
STARTCHAR 0449
ENCODING 1097
SWIDTH 600 0
DWIDTH 10 0
BBX 10 9 0 -1
BITMAP
EFC0
EFC0
CCC0
CCC0
CCC0
CCC0
FFC0
FFC0
0040
ENDCHAR
STARTCHAR 044A
ENCODING 1098
SWIDTH 600 0
DWIDTH 10 0
BBX 10 8 0 0
BITMAP
FC00
FC00
C800
0F80
0FC0
08C0
1FC0
1F80
ENDCHAR
STARTCHAR 044B
ENCODING 1099
SWIDTH 600 0
DWIDTH 10 0
BBX 10 8 0 0
BITMAP
F1C0
F1C0
6080
7C80
7E80
6680
FFC0
FDC0
ENDCHAR
STARTCHAR 044C
ENCODING 1100
SWIDTH 600 0
DWIDTH 10 0
BBX 7 8 2 0
BITMAP
E0
E0
C0
FC
FE
C6
FE
FC
ENDCHAR
STARTCHAR 044D
ENCODING 1101
SWIDTH 600 0
DWIDTH 10 0
BBX 8 8 1 0
BITMAP
FC
FE
C3
FF
3F
83
FF
7E
ENDCHAR
STARTCHAR 044E
ENCODING 1102
SWIDTH 600 0
DWIDTH 10 0
BBX 10 8 0 0
BITMAP
E780
EFC0
58C0
7840
7840
48C0
EFC0
E780
ENDCHAR
STARTCHAR 044F
ENCODING 1103
SWIDTH 600 0
DWIDTH 10 0
BBX 8 8 1 0
BITMAP
3F
7F
62
7E
3E
3A
F7
F7
ENDCHAR
STARTCHAR 0450
ENCODING 1104
SWIDTH 600 0
DWIDTH 10 0
BBX 8 11 1 0
BITMAP
20
30
18
3C
FE
C3
FF
FF
C0
FF
3E
ENDCHAR
STARTCHAR 0451
ENCODING 1105
SWIDTH 600 0
DWIDTH 10 0
BBX 8 10 1 0
BITMAP
66
00
3C
FE
C3
FF
FF
C0
FF
3E
ENDCHAR
STARTCHAR 0452
ENCODING 1106
SWIDTH 600 0
DWIDTH 10 0
BBX 9 14 0 -3
BITMAP
E000
E000
FC00
2000
2F00
3F00
3180
2180
2180
F180
F180
0180
0F00
0E00
ENDCHAR
STARTCHAR 0453
ENCODING 1107
SWIDTH 600 0
DWIDTH 10 0
BBX 7 11 2 0
BITMAP
0C
18
10
FE
FE
44
40
40
40
E0
E0
ENDCHAR
STARTCHAR 0454
ENCODING 1108
SWIDTH 600 0
DWIDTH 10 0
BBX 8 8 1 0
BITMAP
3D
7F
C3
FF
FC
C1
FF
3E
ENDCHAR
STARTCHAR 0455
ENCODING 1109
SWIDTH 600 0
DWIDTH 10 0
BBX 8 8 1 0
BITMAP
3F
7F
43
7C
3F
C3
FF
FE
ENDCHAR
STARTCHAR 0456
ENCODING 1110
SWIDTH 600 0
DWIDTH 10 0
BBX 8 11 1 0
BITMAP
18
18
00
78
78
18
18
18
18
FF
FF
ENDCHAR
STARTCHAR 0457
ENCODING 1111
SWIDTH 600 0
DWIDTH 10 0
BBX 8 11 1 0
BITMAP
20
66
00
78
78
18
18
18
18
FF
FF
ENDCHAR
STARTCHAR 0458
ENCODING 1112
SWIDTH 600 0
DWIDTH 10 0
BBX 6 14 2 -3
BITMAP
18
18
00
FC
FC
0C
0C
0C
0C
0C
0C
0C
F8
F0
ENDCHAR
STARTCHAR 0459
ENCODING 1113
SWIDTH 600 0
DWIDTH 10 0
BBX 11 8 0 0
BITMAP
7F00
7F00
3300
33C0
33E0
B360
F7E0
E7C0
ENDCHAR
STARTCHAR 045A
ENCODING 1114
SWIDTH 600 0
DWIDTH 10 0
BBX 11 8 0 0
BITMAP
EF00
EF00
4600
7FC0
7FC0
4660
EFC0
EF80
ENDCHAR
STARTCHAR 045B
ENCODING 1115
SWIDTH 600 0
DWIDTH 10 0
BBX 10 11 0 0
BITMAP
E000
E000
FC00
2000
2F00
3F00
3180
2180
2180
73C0
73C0
ENDCHAR
STARTCHAR 045C
ENCODING 1116
SWIDTH 600 0
DWIDTH 10 0
BBX 8 11 1 0
BITMAP
0C
18
10
EF
EF
7C
78
78
6C
EF
EF
ENDCHAR
STARTCHAR 045D
ENCODING 1117
SWIDTH 600 0
DWIDTH 10 0
BBX 9 11 1 0
BITMAP
2000
3000
1800
E780
E780
4700
5F00
7B00
6300
E780
E780
ENDCHAR
STARTCHAR 045E
ENCODING 1118
SWIDTH 600 0
DWIDTH 10 0
BBX 10 14 0 -3
BITMAP
3F00
3F00
0000
F3C0
F3C0
6180
3300
1300
1E00
0C00
0C00
1800
FC00
FC00
ENDCHAR
STARTCHAR 045F
ENCODING 1119
SWIDTH 600 0
DWIDTH 10 0
BBX 9 10 1 -2
BITMAP
E780
E780
4300
4300
4300
4300
FF80
FF80
1800
1800
ENDCHAR
STARTCHAR 0470
ENCODING 1136
SWIDTH 600 0
DWIDTH 10 0
BBX 10 10 0 0
BITMAP
FEC0
FEC0
6C80
6C80
6C80
6D80
3F80
1F00
1E00
1E00
ENDCHAR
STARTCHAR 0471
ENCODING 1137
SWIDTH 600 0
DWIDTH 10 0
BBX 11 14 0 -3
BITMAP
0C00
0C00
0C00
EDE0
EDC0
6D80
6D80
6D80
6D80
7F80
3F00
0C00
0C00
0C00
ENDCHAR
STARTCHAR 0472
ENCODING 1138
SWIDTH 600 0
DWIDTH 10 0
BBX 10 10 0 0
BITMAP
1E00
3F80
6180
5AC0
FEC0
E6C0
40C0
6180
3F00
1E00
ENDCHAR
STARTCHAR 0484
ENCODING 1156
SWIDTH 0 0
DWIDTH 0 0
BBX 6 2 -8 8
BITMAP
78
FC
ENDCHAR
STARTCHAR 0485
ENCODING 1157
SWIDTH 0 0
DWIDTH 0 0
BBX 3 4 -6 8
BITMAP
C0
60
60
20
ENDCHAR
STARTCHAR 0486
ENCODING 1158
SWIDTH 0 0
DWIDTH 0 0
BBX 3 3 -6 8
BITMAP
20
40
80
ENDCHAR
STARTCHAR 048A
ENCODING 1162
SWIDTH 600 0
DWIDTH 10 0
BBX 10 15 0 -2
BITMAP
3F00
1E00
0000
7B80
7B80
2180
2380
2780
3D80
3180
2180
FBC0
FBC0
00C0
00C0
ENDCHAR
STARTCHAR 048B
ENCODING 1163
SWIDTH 600 0
DWIDTH 10 0
BBX 9 12 1 -2
BITMAP
7E00
3C00
E780
E780
4700
5F00
7B00
6300
E780
E780
0180
0180
ENDCHAR
STARTCHAR 048C
ENCODING 1164
SWIDTH 600 0
DWIDTH 10 0
BBX 9 11 0 0
BITMAP
2000
F800
F800
2000
3E00
3F00
2180
2180
2180
FF00
FE00
ENDCHAR
STARTCHAR 048D
ENCODING 1165
SWIDTH 600 0
DWIDTH 10 0
BBX 7 9 2 0
BITMAP
40
E0
E0
C0
FC
FE
C6
FE
FC
ENDCHAR
STARTCHAR 048E
ENCODING 1166
SWIDTH 600 0
DWIDTH 10 0
BBX 9 10 0 0
BITMAP
FE00
FF00
2180
2180
2380
3F80
3E80
2000
FC00
FC00
ENDCHAR
STARTCHAR 048F
ENCODING 1167
SWIDTH 600 0
DWIDTH 10 0
BBX 10 11 0 -3
BITMAP
EF00
FF80
7180
60C0
64C0
7780
7F80
6F80
6000
F800
F800
ENDCHAR
STARTCHAR 0490
ENCODING 1168
SWIDTH 600 0
DWIDTH 10 0
BBX 9 12 1 0
BITMAP
0180
0180
FF80
FF80
6000
6000
6000
6000
6000
6000
F800
F800
ENDCHAR
STARTCHAR 0491
ENCODING 1169
SWIDTH 600 0
DWIDTH 10 0
BBX 7 9 2 0
BITMAP
04
FE
FE
40
40
40
40
E0
E0
ENDCHAR
STARTCHAR 0492
ENCODING 1170
SWIDTH 600 0
DWIDTH 10 0
BBX 9 10 1 0
BITMAP
FF80
FF80
6180
F980
F800
6000
6000
6000
F800
F800
ENDCHAR
STARTCHAR 0493
ENCODING 1171
SWIDTH 600 0
DWIDTH 10 0
BBX 8 8 1 0
BITMAP
7F
7F
22
F8
F8
20
70
70
ENDCHAR
STARTCHAR 0494
ENCODING 1172
SWIDTH 600 0
DWIDTH 10 0
BBX 10 12 0 -2
BITMAP
FFC0
FFC0
20C0
2080
2F00
3F80
3180
2080
F880
7980
0780
0700
ENDCHAR
STARTCHAR 0495
ENCODING 1173
SWIDTH 600 0
DWIDTH 10 0
BBX 7 10 2 -2
BITMAP
FE
FE
44
40
5C
7C
E4
E4
1C
1C
ENDCHAR
STARTCHAR 0496
ENCODING 1174
SWIDTH 600 0
DWIDTH 10 0
BBX 11 12 0 -2
BITMAP
FEC0
FFC0
6D80
3D00
3F00
7F80
6D80
4C80
DEE0
DEE0
0060
0060
ENDCHAR
STARTCHAR 0497
ENCODING 1175
SWIDTH 600 0
DWIDTH 10 0
BBX 11 9 0 -1
BITMAP
EFC0
EFC0
7F80
3F00
3F00
7D80
EFC0
EFE0
0040
ENDCHAR
STARTCHAR 0498
ENCODING 1176
SWIDTH 600 0
DWIDTH 10 0
BBX 8 13 1 -3
BITMAP
FC
FE
C3
03
3E
3F
03
C3
FF
FE
1C
3C
18
ENDCHAR
STARTCHAR 0499
ENCODING 1177
SWIDTH 600 0
DWIDTH 10 0
BBX 8 11 1 -3
BITMAP
7C
7E
43
3E
3F
C3
FF
FE
1C
3C
18
ENDCHAR
STARTCHAR 049A
ENCODING 1178
SWIDTH 600 0
DWIDTH 10 0
BBX 10 12 0 -2
BITMAP
FBC0
FBC0
6700
6E00
7C00
6E00
6700
6300
F9C0
F9C0
00C0
00C0
ENDCHAR
STARTCHAR 049B
ENCODING 1179
SWIDTH 600 0
DWIDTH 10 0
BBX 8 10 1 -2
BITMAP
EF
EF
7C
78
78
6C
EF
EF
01
01
ENDCHAR
STARTCHAR 049C
ENCODING 1180
SWIDTH 600 0
DWIDTH 10 0
BBX 10 10 0 0
BITMAP
FBC0
FBC0
6F00
6E00
7C00
6E00
6F00
6B00
F9C0
F9C0
ENDCHAR
STARTCHAR 049D
ENCODING 1181
SWIDTH 600 0
DWIDTH 10 0
BBX 9 8 1 0
BITMAP
E780
F780
7C00
7800
7800
7C00
F780
E780
ENDCHAR
STARTCHAR 049E
ENCODING 1182
SWIDTH 600 0
DWIDTH 10 0
BBX 10 10 0 0
BITMAP
FBC0
FBC0
F700
FE00
7C00
6E00
6700
6300
F9C0
F9C0
ENDCHAR
STARTCHAR 049F
ENCODING 1183
SWIDTH 600 0
DWIDTH 10 0
BBX 8 8 1 0
BITMAP
EF
EF
FC
F8
78
6C
EF
EF
ENDCHAR
STARTCHAR 04A0
ENCODING 1184
SWIDTH 600 0
DWIDTH 10 0
BBX 11 10 0 0
BITMAP
FDC0
FDC0
B380
B700
3C00
3700
3300
3180
7DE0
7CE0
ENDCHAR
STARTCHAR 04A1
ENCODING 1185
SWIDTH 600 0
DWIDTH 10 0
BBX 10 8 0 0
BITMAP
FBC0
FBC0
DF00
DC00
1E00
1F00
3BC0
3BC0
ENDCHAR
STARTCHAR 04A2
ENCODING 1186
SWIDTH 600 0
DWIDTH 10 0
BBX 10 12 0 -2
BITMAP
7B80
7B80
2180
2180
3F80
3F80
2180
2180
FBC0
FBC0
00C0
00C0
ENDCHAR
STARTCHAR 04A3
ENCODING 1187
SWIDTH 600 0
DWIDTH 10 0
BBX 9 10 1 -2
BITMAP
E780
E780
4300
7F00
7F00
4300
E780
E780
0180
0180
ENDCHAR
STARTCHAR 04A4
ENCODING 1188
SWIDTH 600 0
DWIDTH 10 0
BBX 12 10 -1 0
BITMAP
73F0
73F0
21B0
21A0
3F80
3F80
2180
2180
F3C0
F3C0
ENDCHAR
STARTCHAR 04A5
ENCODING 1189
SWIDTH 600 0
DWIDTH 10 0
BBX 10 8 0 0
BITMAP
F7C0
F7C0
62C0
7E40
7E00
6200
F700
F700
ENDCHAR
STARTCHAR 04A6
ENCODING 1190
SWIDTH 600 0
DWIDTH 10 0
BBX 12 12 -1 -2
BITMAP
7F80
7F80
6300
6300
63E0
63F0
6330
6330
F7B0
F7B0
00F0
00E0
ENDCHAR
STARTCHAR 04A7
ENCODING 1191
SWIDTH 600 0
DWIDTH 10 0
BBX 12 10 -1 -2
BITMAP
FF80
FF80
63E0
63F0
6330
6330
F7B0
F7B0
00F0
00E0
ENDCHAR
STARTCHAR 04A8
ENCODING 1192
SWIDTH 600 0
DWIDTH 10 0
BBX 8 11 1 -1
BITMAP
3F
7F
C3
C1
8F
8F
89
C9
7F
3E
08
ENDCHAR
STARTCHAR 04A9
ENCODING 1193
SWIDTH 600 0
DWIDTH 10 0
BBX 8 9 1 -1
BITMAP
3F
7F
C3
CF
CF
D9
7F
3E
18
ENDCHAR
STARTCHAR 04AA
ENCODING 1194
SWIDTH 600 0
DWIDTH 10 0
BBX 9 13 1 -3
BITMAP
3F00
7F00
C300
C100
8000
8000
8000
C180
7F00
3E00
3800
3C00
1C00
ENDCHAR
STARTCHAR 04AB
ENCODING 1195
SWIDTH 600 0
DWIDTH 10 0
BBX 8 11 1 -3
BITMAP
3F
7F
E3
C1
C0
C1
7F
3E
30
3C
18
ENDCHAR
STARTCHAR 04AC
ENCODING 1196
SWIDTH 600 0
DWIDTH 10 0
BBX 8 12 1 -2
BITMAP
FF
FF
99
99
18
18
18
18
7E
7E
06
02
ENDCHAR
STARTCHAR 04AD
ENCODING 1197
SWIDTH 600 0
DWIDTH 10 0
BBX 8 10 1 -2
BITMAP
FF
FF
DB
18
18
18
3C
3C
0C
0C
ENDCHAR
STARTCHAR 04AE
ENCODING 1198
SWIDTH 600 0
DWIDTH 10 0
BBX 10 10 0 0
BITMAP
F3C0
F3C0
3300
1B00
1E00
0C00
0C00
0C00
3F00
3F00
ENDCHAR
STARTCHAR 04AF
ENCODING 1199
SWIDTH 600 0
DWIDTH 10 0
BBX 10 10 0 -2
BITMAP
6180
F3C0
7180
3300
1E00
0C00
0C00
0C00
1E00
3F00
ENDCHAR
STARTCHAR 04B0
ENCODING 1200
SWIDTH 600 0
DWIDTH 10 0
BBX 10 10 0 0
BITMAP
F3C0
F3C0
3300
3B00
1E00
0C00
7F80
3F80
3F00
3F00
ENDCHAR
STARTCHAR 04B1
ENCODING 1201
SWIDTH 600 0
DWIDTH 10 0
BBX 10 10 0 -2
BITMAP
F3C0
F3C0
3300
3B00
1E00
0C00
3F80
3F80
3F00
3F00
ENDCHAR
STARTCHAR 04B2
ENCODING 1202
SWIDTH 600 0
DWIDTH 10 0
BBX 10 12 0 -2
BITMAP
F3C0
F3C0
3300
1E00
0E00
1E00
1F00
3380
F3C0
F3C0
00C0
00C0
ENDCHAR
STARTCHAR 04B3
ENCODING 1203
SWIDTH 600 0
DWIDTH 10 0
BBX 10 10 0 -2
BITMAP
7380
7380
3F00
1E00
1E00
3B00
73C0
F3C0
00C0
00C0
ENDCHAR
STARTCHAR 04B4
ENCODING 1204
SWIDTH 600 0
DWIDTH 10 0
BBX 10 12 0 -2
BITMAP
FDC0
FDC0
B480
3080
3080
3080
3080
3080
7FC0
7FC0
00C0
0040
ENDCHAR
STARTCHAR 04B5
ENCODING 1205
SWIDTH 600 0
DWIDTH 10 0
BBX 10 10 0 -2
BITMAP
FDC0
FDC0
B480
3080
3080
3080
7FC0
7FC0
00C0
0040
ENDCHAR
STARTCHAR 04B6
ENCODING 1206
SWIDTH 600 0
DWIDTH 10 0
BBX 9 12 1 -2
BITMAP
FF00
FF00
4200
4200
4200
7E00
7A00
0200
0F80
0F80
0180
0100
ENDCHAR
STARTCHAR 04B7
ENCODING 1207
SWIDTH 600 0
DWIDTH 10 0
BBX 8 10 1 -2
BITMAP
F7
F7
62
62
7E
3E
07
07
01
01
ENDCHAR
STARTCHAR 04B8
ENCODING 1208
SWIDTH 600 0
DWIDTH 10 0
BBX 8 10 1 0
BITMAP
FF
FF
42
42
5A
7E
7A
1A
0F
0F
ENDCHAR
STARTCHAR 04B9
ENCODING 1209
SWIDTH 600 0
DWIDTH 10 0
BBX 8 8 1 0
BITMAP
F7
F7
62
7A
7E
3A
07
07
ENDCHAR
STARTCHAR 04BA
ENCODING 1210
SWIDTH 600 0
DWIDTH 10 0
BBX 8 10 1 0
BITMAP
F0
F0
40
5E
7E
42
42
42
FF
FF
ENDCHAR
STARTCHAR 04BB
ENCODING 1211
SWIDTH 600 0
DWIDTH 10 0
BBX 8 8 1 -1
BITMAP
E0
E0
7C
7E
46
46
EF
EF
ENDCHAR
STARTCHAR 04BC
ENCODING 1212
SWIDTH 600 0
DWIDTH 10 0
BBX 11 11 0 0
BITMAP
0700
0FC0
D8C0
D040
9060
FFE0
FFE0
1000
18C0
1FC0
0780
ENDCHAR
STARTCHAR 04BD
ENCODING 1213
SWIDTH 600 0
DWIDTH 10 0
BBX 10 8 0 0
BITMAP
6F00
FF80
98C0
FFC0
7FC0
18C0
1FC0
0F80
ENDCHAR
STARTCHAR 04BE
ENCODING 1214
SWIDTH 600 0
DWIDTH 10 0
BBX 11 14 0 -3
BITMAP
0700
0FC0
D8C0
D040
9060
FFE0
FFE0
1000
1040
18C0
0F80
0600
0780
0300
ENDCHAR
STARTCHAR 04BF
ENCODING 1215
SWIDTH 600 0
DWIDTH 10 0
BBX 10 11 0 -3
BITMAP
6F00
FF80
98C0
FFC0
7FC0
1800
1FC0
0F80
0C00
0F00
0700
ENDCHAR
STARTCHAR 04C0
ENCODING 1216
SWIDTH 600 0
DWIDTH 10 0
BBX 8 10 1 0
BITMAP
FF
7F
18
18
18
18
18
18
FF
7F
ENDCHAR
STARTCHAR 04C1
ENCODING 1217
SWIDTH 600 0
DWIDTH 10 0
BBX 10 13 0 0
BITMAP
3F00
1E00
0000
FEC0
FFC0
6D80
3D00
3F00
7F80
6D80
4C80
DEC0
DEC0
ENDCHAR
STARTCHAR 04C2
ENCODING 1218
SWIDTH 600 0
DWIDTH 10 0
BBX 10 11 0 0
BITMAP
3F00
1E00
0000
EFC0
EFC0
7F80
3F00
3F00
7F80
EFC0
EFC0
ENDCHAR
STARTCHAR 04C3
ENCODING 1219
SWIDTH 600 0
DWIDTH 10 0
BBX 10 12 0 -2
BITMAP
FBC0
FBC0
6700
6E00
7C00
6E00
6700
6300
F980
F980
0780
0700
ENDCHAR
STARTCHAR 04C4
ENCODING 1220
SWIDTH 600 0
DWIDTH 10 0
BBX 8 10 1 -2
BITMAP
EF
EF
7C
78
78
6C
EE
E6
1E
1C
ENDCHAR
STARTCHAR 04C5
ENCODING 1221
SWIDTH 600 0
DWIDTH 10 0
BBX 10 12 0 -2
BITMAP
1FC0
1FC0
1980
1980
1980
1980
1980
D980
FBC0
73C0
00C0
00C0
ENDCHAR
STARTCHAR 04C6
ENCODING 1222
SWIDTH 600 0
DWIDTH 10 0
BBX 10 9 0 -1
BITMAP
3FC0
3FC0
1980
1980
1980
D980
FBC0
73C0
00C0
ENDCHAR
STARTCHAR 04C7
ENCODING 1223
SWIDTH 600 0
DWIDTH 10 0
BBX 9 12 0 -2
BITMAP
7B80
7B80
2180
2180
3F80
3F80
2180
2180
F980
F980
0780
0700
ENDCHAR
STARTCHAR 04C8
ENCODING 1224
SWIDTH 600 0
DWIDTH 10 0
BBX 8 10 1 -2
BITMAP
F7
F7
62
7E
7E
62
F2
F2
1E
1C
ENDCHAR
STARTCHAR 04C9
ENCODING 1225
SWIDTH 600 0
DWIDTH 10 0
BBX 10 12 0 -2
BITMAP
7B80
7B80
2180
2180
3F80
3F80
2180
2180
FBC0
FBC0
00C0
00C0
ENDCHAR
STARTCHAR 04CA
ENCODING 1226
SWIDTH 600 0
DWIDTH 10 0
BBX 8 10 1 -2
BITMAP
F7
F7
62
7E
7E
62
F7
F7
01
01
ENDCHAR
STARTCHAR 04CB
ENCODING 1227
SWIDTH 600 0
DWIDTH 10 0
BBX 8 12 1 -2
BITMAP
FF
FF
42
42
42
7E
7A
02
0F
0F
0C
0C
ENDCHAR
STARTCHAR 04CC
ENCODING 1228
SWIDTH 600 0
DWIDTH 10 0
BBX 8 10 1 -2
BITMAP
F7
F7
62
62
7E
3E
07
07
04
04
ENDCHAR
STARTCHAR 04CD
ENCODING 1229
SWIDTH 600 0
DWIDTH 10 0
BBX 11 12 0 -2
BITMAP
E1C0
F1C0
73C0
73C0
5EC0
5EC0
4CC0
40C0
F3E0
F3E0
0060
0060
ENDCHAR
STARTCHAR 04CE
ENCODING 1230
SWIDTH 600 0
DWIDTH 10 0
BBX 11 10 0 -2
BITMAP
F3C0
F3C0
5AC0
5EC0
4CC0
4CC0
E1C0
E1E0
0060
0040
ENDCHAR
STARTCHAR 04CF
ENCODING 1231
SWIDTH 600 0
DWIDTH 10 0
BBX 8 10 1 0
BITMAP
FF
7F
18
18
18
18
18
18
FF
7F
ENDCHAR
STARTCHAR 04D0
ENCODING 1232
SWIDTH 600 0
DWIDTH 10 0
BBX 10 13 0 0
BITMAP
3F00
1E00
0000
7C00
7E00
1E00
1E00
3300
3300
7F80
7F80
F3C0
F3C0
ENDCHAR
STARTCHAR 04D1
ENCODING 1233
SWIDTH 600 0
DWIDTH 10 0
BBX 9 11 1 0
BITMAP
7E00
3C00
0000
7C00
7E00
3E00
FE00
C200
C600
FF80
7B80
ENDCHAR
STARTCHAR 04D2
ENCODING 1234
SWIDTH 600 0
DWIDTH 10 0
BBX 10 13 0 0
BITMAP
1000
3300
0000
7C00
7E00
1E00
1E00
3300
3300
7F80
7F80
F3C0
F3C0
ENDCHAR
STARTCHAR 04D3
ENCODING 1235
SWIDTH 600 0
DWIDTH 10 0
BBX 9 10 1 0
BITMAP
6600
2000
7C00
7E00
3E00
FE00
C200
C600
FF80
7B80
ENDCHAR
STARTCHAR 04D4
ENCODING 1236
SWIDTH 600 0
DWIDTH 10 0
BBX 10 10 0 0
BITMAP
3FC0
3FC0
14C0
35C0
3700
3700
7D00
7C40
EFC0
EFC0
ENDCHAR
STARTCHAR 04D5
ENCODING 1237
SWIDTH 600 0
DWIDTH 10 0
BBX 10 8 0 0
BITMAP
7B80
7FC0
7FC0
FFC0
CC00
CE00
FFC0
7FC0
ENDCHAR
STARTCHAR 04D6
ENCODING 1238
SWIDTH 600 0
DWIDTH 10 0
BBX 9 13 0 0
BITMAP
3F00
1E00
0000
FF80
FF80
2180
2580
3C00
3C00
2480
2080
FF80
FF80
ENDCHAR
STARTCHAR 04D7
ENCODING 1239
SWIDTH 600 0
DWIDTH 10 0
BBX 8 11 1 0
BITMAP
7E
1C
00
3C
FE
C3
FF
FF
C0
FF
3E
ENDCHAR
STARTCHAR 04D8
ENCODING 1240
SWIDTH 600 0
DWIDTH 10 0
BBX 10 11 0 0
BITMAP
1E00
7F00
6180
0080
0080
FFC0
FF80
4080
6180
3F00
1E00
ENDCHAR
STARTCHAR 04D9
ENCODING 1241
SWIDTH 600 0
DWIDTH 10 0
BBX 8 8 1 -1
BITMAP
7C
FF
03
FF
FF
C3
7F
3C
ENDCHAR
STARTCHAR 04DA
ENCODING 1242
SWIDTH 600 0
DWIDTH 10 0
BBX 10 13 0 0
BITMAP
1300
3300
1E00
7F00
6180
0080
0080
FFC0
FF80
4080
6180
3F00
1E00
ENDCHAR
STARTCHAR 04DB
ENCODING 1243
SWIDTH 600 0
DWIDTH 10 0
BBX 8 12 1 -1
BITMAP
20
66
00
00
7C
FF
03
FF
FF
C3
7F
3C
ENDCHAR
STARTCHAR 04DC
ENCODING 1244
SWIDTH 600 0
DWIDTH 10 0
BBX 10 13 0 0
BITMAP
1300
3300
0000
FEC0
FFC0
6D80
3D00
3F00
7F80
6D80
4C80
DEC0
DEC0
ENDCHAR
STARTCHAR 04DD
ENCODING 1245
SWIDTH 600 0
DWIDTH 10 0
BBX 10 10 0 0
BITMAP
3300
1000
EFC0
EFC0
7F80
3F00
3F00
7F80
EFC0
EFC0
ENDCHAR
STARTCHAR 04DE
ENCODING 1246
SWIDTH 600 0
DWIDTH 10 0
BBX 8 13 1 0
BITMAP
20
66
00
FC
FE
C3
03
3E
3F
03
C3
FF
FE
ENDCHAR
STARTCHAR 04DF
ENCODING 1247
SWIDTH 600 0
DWIDTH 10 0
BBX 8 11 1 0
BITMAP
20
66
00
7C
7E
43
3E
3F
C3
FF
FE
ENDCHAR
STARTCHAR 04E0
ENCODING 1248
SWIDTH 600 0
DWIDTH 10 0
BBX 9 11 1 -1
BITMAP
7F00
7F00
4600
0C00
1E00
1F00
0100
0180
C300
FF00
3E00
ENDCHAR
STARTCHAR 04E1
ENCODING 1249
SWIDTH 600 0
DWIDTH 10 0
BBX 7 11 1 -3
BITMAP
7E
7E
18
38
7C
04
06
06
CC
7C
38
ENDCHAR
STARTCHAR 04E2
ENCODING 1250
SWIDTH 600 0
DWIDTH 10 0
BBX 10 13 0 0
BITMAP
1F00
3F00
0000
7B80
7B80
2180
2380
2780
3D80
3180
2180
FBC0
FBC0
ENDCHAR
STARTCHAR 04E3
ENCODING 1251
SWIDTH 600 0
DWIDTH 10 0
BBX 9 10 1 0
BITMAP
7E00
7E00
E780
E780
4700
5F00
7B00
6300
E780
E780
ENDCHAR
STARTCHAR 04E4
ENCODING 1252
SWIDTH 600 0
DWIDTH 10 0
BBX 10 13 0 0
BITMAP
1300
3300
0000
7B80
7B80
2180
2380
2780
3D80
3180
2180
FBC0
FBC0
ENDCHAR
STARTCHAR 04E5
ENCODING 1253
SWIDTH 600 0
DWIDTH 10 0
BBX 9 10 1 0
BITMAP
6600
2000
E780
E780
4700
5F00
7B00
6300
E780
E780
ENDCHAR
STARTCHAR 04E6
ENCODING 1254
SWIDTH 600 0
DWIDTH 10 0
BBX 10 13 0 0
BITMAP
1300
3300
0000
1E00
3F80
6180
40C0
C0C0
C0C0
40C0
6180
3F00
1E00
ENDCHAR
STARTCHAR 04E7
ENCODING 1255
SWIDTH 600 0
DWIDTH 10 0
BBX 8 10 1 1
BITMAP
66
00
3C
7F
C3
81
81
C3
7F
3C
ENDCHAR
STARTCHAR 04E8
ENCODING 1256
SWIDTH 600 0
DWIDTH 10 0
BBX 10 10 0 0
BITMAP
1E00
3F80
6180
40C0
FFC0
FFC0
40C0
6180
3F00
1E00
ENDCHAR
STARTCHAR 04E9
ENCODING 1257
SWIDTH 600 0
DWIDTH 10 0
BBX 8 8 1 0
BITMAP
3C
7F
C3
FF
FF
C3
7F
3C
ENDCHAR
STARTCHAR 04EA
ENCODING 1258
SWIDTH 600 0
DWIDTH 10 0
BBX 10 13 0 0
BITMAP
1300
3300
0000
1E00
3F80
6180
40C0
FFC0
FFC0
40C0
6180
3F00
1E00
ENDCHAR
STARTCHAR 04EB
ENCODING 1259
SWIDTH 600 0
DWIDTH 10 0
BBX 8 10 1 1
BITMAP
66
00
3C
7F
C3
FF
FF
C3
7F
3C
ENDCHAR
STARTCHAR 04EC
ENCODING 1260
SWIDTH 600 0
DWIDTH 10 0
BBX 9 13 1 0
BITMAP
2600
6600
0000
BC00
FE00
C300
8180
3F80
3F80
0180
0300
FF00
7C00
ENDCHAR
STARTCHAR 04ED
ENCODING 1261
SWIDTH 600 0
DWIDTH 10 0
BBX 8 11 1 0
BITMAP
20
66
00
FC
FE
C3
FF
3F
83
FF
7E
ENDCHAR
STARTCHAR 04EE
ENCODING 1262
SWIDTH 600 0
DWIDTH 10 0
BBX 10 13 0 0
BITMAP
1F00
3F00
0000
F3C0
F3C0
3380
3300
1E00
0E00
0C00
1C00
3C00
3C00
ENDCHAR
STARTCHAR 04EF
ENCODING 1263
SWIDTH 600 0
DWIDTH 10 0
BBX 10 13 0 -3
BITMAP
3F00
3F00
F3C0
F3C0
6180
3300
1300
1E00
0C00
0C00
1800
FC00
FC00
ENDCHAR
STARTCHAR 04F0
ENCODING 1264
SWIDTH 600 0
DWIDTH 10 0
BBX 10 13 0 0
BITMAP
1300
3300
0000
F3C0
F3C0
3380
3300
1E00
0E00
0C00
1C00
3C00
3C00
ENDCHAR
STARTCHAR 04F1
ENCODING 1265
SWIDTH 600 0
DWIDTH 10 0
BBX 10 13 0 -3
BITMAP
3300
1000
F3C0
F3C0
6180
3300
1300
1E00
0C00
0C00
1800
FC00
FC00
ENDCHAR
STARTCHAR 04F2
ENCODING 1266
SWIDTH 600 0
DWIDTH 10 0
BBX 10 13 0 0
BITMAP
0480
0D00
1A00
F3C0
F3C0
3380
3300
1E00
0E00
0C00
1C00
3C00
3C00
ENDCHAR
STARTCHAR 04F3
ENCODING 1267
SWIDTH 600 0
DWIDTH 10 0
BBX 10 14 0 -3
BITMAP
0D80
1B00
1200
F3C0
F3C0
6180
3300
1300
1E00
0C00
0C00
1800
FC00
FC00
ENDCHAR
STARTCHAR 04F4
ENCODING 1268
SWIDTH 600 0
DWIDTH 10 0
BBX 8 13 1 0
BITMAP
64
66
00
FF
FF
42
42
42
7E
7A
02
0F
0F
ENDCHAR
STARTCHAR 04F5
ENCODING 1269
SWIDTH 600 0
DWIDTH 10 0
BBX 8 11 1 0
BITMAP
20
66
00
F7
F7
62
62
7E
3E
07
07
ENDCHAR
STARTCHAR 04F6
ENCODING 1270
SWIDTH 600 0
DWIDTH 10 0
BBX 9 12 1 -2
BITMAP
FF80
FF80
6180
6180
6000
6000
6000
6000
F800
F800
0800
0800
ENDCHAR
STARTCHAR 04F7
ENCODING 1271
SWIDTH 600 0
DWIDTH 10 0
BBX 7 10 2 -2
BITMAP
FE
FE
44
40
40
40
E0
E0
20
20
ENDCHAR
STARTCHAR 04F8
ENCODING 1272
SWIDTH 600 0
DWIDTH 10 0
BBX 10 13 0 0
BITMAP
1300
3300
0000
F1C0
F1C0
60C0
78C0
7CC0
66C0
66C0
66C0
FFC0
F9C0
ENDCHAR
STARTCHAR 04F9
ENCODING 1273
SWIDTH 600 0
DWIDTH 10 0
BBX 10 11 0 0
BITMAP
1000
3300
0000
F1C0
F1C0
6080
7C80
7E80
6680
FFC0
FDC0
ENDCHAR
STARTCHAR 0510
ENCODING 1296
SWIDTH 600 0
DWIDTH 10 0
BBX 8 10 1 0
BITMAP
3F
7F
C3
C0
7C
7C
C0
C3
FF
3D
ENDCHAR
STARTCHAR 0511
ENCODING 1297
SWIDTH 600 0
DWIDTH 10 0
BBX 8 8 1 0
BITMAP
3F
7F
43
7C
7C
C3
7F
3F
ENDCHAR
STARTCHAR 0512
ENCODING 1298
SWIDTH 600 0
DWIDTH 10 0
BBX 10 12 0 -2
BITMAP
1FC0
1FC0
1980
1980
1980
1980
1980
D980
F980
7180
0780
0700
ENDCHAR
STARTCHAR 0513
ENCODING 1299
SWIDTH 600 0
DWIDTH 10 0
BBX 10 10 0 -2
BITMAP
3FC0
3FC0
1980
1980
1980
D980
F980
7180
0780
0700
ENDCHAR
STARTCHAR 051A
ENCODING 1306
SWIDTH 600 0
DWIDTH 10 0
BBX 10 12 0 -2
BITMAP
1E00
3F00
6180
40C0
C0C0
C0C0
40C0
6180
3F00
1E00
1FC0
3F80
ENDCHAR
STARTCHAR 051B
ENCODING 1307
SWIDTH 600 0
DWIDTH 10 0
BBX 10 11 0 -3
BITMAP
3DC0
7FC0
6380
C180
C180
6380
7F80
3D80
0180
07C0
07C0
ENDCHAR
STARTCHAR 051C
ENCODING 1308
SWIDTH 600 0
DWIDTH 10 0
BBX 10 10 0 0
BITMAP
F3C0
F3C0
4CC0
6C80
6E80
7F80
7B80
7380
7380
3180
ENDCHAR
STARTCHAR 051D
ENCODING 1309
SWIDTH 600 0
DWIDTH 10 0
BBX 10 8 0 0
BITMAP
F3C0
F3C0
6D80
6D80
2F80
3F00
3B00
3300
ENDCHAR
STARTCHAR 051E
ENCODING 1310
SWIDTH 600 0
DWIDTH 10 0
BBX 10 10 0 0
BITMAP
FBC0
FBC0
6700
6F00
7C00
6E00
6700
6300
F9C0
F9C0
ENDCHAR
STARTCHAR 051F
ENCODING 1311
SWIDTH 600 0
DWIDTH 10 0
BBX 8 8 1 0
BITMAP
EF
EF
7E
78
78
6C
EF
EF
ENDCHAR
STARTCHAR 05B0
ENCODING 1456
SWIDTH 0 0
DWIDTH 0 0
BBX 1 2 5 -3
BITMAP
80
80
ENDCHAR
STARTCHAR 05B1
ENCODING 1457
SWIDTH 0 0
DWIDTH 0 0
BBX 5 2 3 -3
BITMAP
A8
48
ENDCHAR
STARTCHAR 05B2
ENCODING 1458
SWIDTH 0 0
DWIDTH 0 0
BBX 5 3 3 -3
BITMAP
E8
00
08
ENDCHAR
STARTCHAR 05B3
ENCODING 1459
SWIDTH 0 0
DWIDTH 0 0
BBX 5 3 3 -3
BITMAP
E8
80
88
ENDCHAR
STARTCHAR 05B4
ENCODING 1460
SWIDTH 0 0
DWIDTH 0 0
BBX 1 2 5 -2
BITMAP
80
80
ENDCHAR
STARTCHAR 05B5
ENCODING 1461
SWIDTH 0 0
DWIDTH 0 0
BBX 3 1 4 -2
BITMAP
A0
ENDCHAR
STARTCHAR 05B6
ENCODING 1462
SWIDTH 0 0
DWIDTH 0 0
BBX 3 2 4 -3
BITMAP
A0
40
ENDCHAR
STARTCHAR 05B7
ENCODING 1463
SWIDTH 0 0
DWIDTH 0 0
BBX 3 1 4 -2
BITMAP
E0
ENDCHAR
STARTCHAR 05B8
ENCODING 1464
SWIDTH 0 0
DWIDTH 0 0
BBX 3 2 4 -2
BITMAP
E0
80
ENDCHAR
STARTCHAR 05B9
ENCODING 1465
SWIDTH 0 0
DWIDTH 0 0
BBX 2 2 4 9
BITMAP
C0
C0
ENDCHAR
STARTCHAR 05BB
ENCODING 1467
SWIDTH 0 0
DWIDTH 0 0
BBX 5 2 3 -3
BITMAP
C0
08
ENDCHAR
STARTCHAR 05BC
ENCODING 1468
SWIDTH 0 0
DWIDTH 0 0
BBX 1 2 5 3
BITMAP
80
80
ENDCHAR
STARTCHAR 05BD
ENCODING 1469
SWIDTH 0 0
DWIDTH 0 0
BBX 1 3 4 -3
BITMAP
80
80
80
ENDCHAR
STARTCHAR 05BE
ENCODING 1470
SWIDTH 600 0
DWIDTH 10 0
BBX 8 2 1 6
BITMAP
FF
FF
ENDCHAR
STARTCHAR 05BF
ENCODING 1471
SWIDTH 0 0
DWIDTH 0 0
BBX 3 1 4 9
BITMAP
E0
ENDCHAR
STARTCHAR 05C0
ENCODING 1472
SWIDTH 600 0
DWIDTH 10 0
BBX 2 13 4 -2
BITMAP
C0
C0
C0
C0
C0
C0
C0
C0
C0
C0
C0
C0
40
ENDCHAR
STARTCHAR 05C1
ENCODING 1473
SWIDTH 0 0
DWIDTH 0 0
BBX 1 2 9 9
BITMAP
80
80
ENDCHAR
STARTCHAR 05C2
ENCODING 1474
SWIDTH 0 0
DWIDTH 0 0
BBX 1 2 1 9
BITMAP
80
80
ENDCHAR
STARTCHAR 05C3
ENCODING 1475
SWIDTH 600 0
DWIDTH 10 0
BBX 2 8 4 0
BITMAP
C0
C0
00
00
00
00
C0
C0
ENDCHAR
STARTCHAR 05C4
ENCODING 1476
SWIDTH 0 0
DWIDTH 0 0
BBX 1 2 4 9
BITMAP
80
80
ENDCHAR
STARTCHAR 05D0
ENCODING 1488
SWIDTH 600 0
DWIDTH 10 0
BBX 8 8 1 0
BITMAP
C3
E3
73
7B
DE
CE
E7
E3
ENDCHAR
STARTCHAR 05D1
ENCODING 1489
SWIDTH 600 0
DWIDTH 10 0
BBX 8 8 1 0
BITMAP
FC
FC
06
06
06
06
FF
FF
ENDCHAR
STARTCHAR 05D2
ENCODING 1490
SWIDTH 600 0
DWIDTH 10 0
BBX 6 8 2 0
BITMAP
70
78
0C
0C
0C
7C
EC
CC
ENDCHAR
STARTCHAR 05D3
ENCODING 1491
SWIDTH 600 0
DWIDTH 10 0
BBX 8 8 1 0
BITMAP
FF
FF
06
06
06
06
06
06
ENDCHAR
STARTCHAR 05D4
ENCODING 1492
SWIDTH 600 0
DWIDTH 10 0
BBX 8 8 1 0
BITMAP
FE
FF
03
03
43
43
43
41
ENDCHAR
STARTCHAR 05D5
ENCODING 1493
SWIDTH 600 0
DWIDTH 10 0
BBX 3 8 3 0
BITMAP
E0
E0
20
20
20
20
20
20
ENDCHAR
STARTCHAR 05D6
ENCODING 1494
SWIDTH 600 0
DWIDTH 10 0
BBX 6 8 2 0
BITMAP
FC
FC
30
30
30
30
30
30
ENDCHAR
STARTCHAR 05D7
ENCODING 1495
SWIDTH 600 0
DWIDTH 10 0
BBX 8 8 1 0
BITMAP
FE
FF
63
C3
C3
C3
C3
41
ENDCHAR
STARTCHAR 05D8
ENCODING 1496
SWIDTH 600 0
DWIDTH 10 0
BBX 8 8 1 0
BITMAP
E7
EF
7F
7B
63
63
7F
3E
ENDCHAR
STARTCHAR 05D9
ENCODING 1497
SWIDTH 600 0
DWIDTH 10 0
BBX 3 4 3 4
BITMAP
E0
E0
20
20
ENDCHAR
STARTCHAR 05DA
ENCODING 1498
SWIDTH 600 0
DWIDTH 10 0
BBX 8 12 1 -4
BITMAP
FC
FE
02
03
03
03
03
03
03
03
03
02
ENDCHAR
STARTCHAR 05DB
ENCODING 1499
SWIDTH 600 0
DWIDTH 10 0
BBX 8 8 1 0
BITMAP
FC
FE
02
03
03
02
FE
FC
ENDCHAR
STARTCHAR 05DC
ENCODING 1500
SWIDTH 600 0
DWIDTH 10 0
BBX 8 10 1 0
BITMAP
C0
C0
FF
FF
03
03
06
0C
18
10
ENDCHAR
STARTCHAR 05DD
ENCODING 1501
SWIDTH 600 0
DWIDTH 10 0
BBX 8 8 1 0
BITMAP
FE
FF
63
C3
C3
C3
FF
FF
ENDCHAR
STARTCHAR 05DE
ENCODING 1502
SWIDTH 600 0
DWIDTH 10 0
BBX 8 8 1 0
BITMAP
CE
DF
73
63
43
43
4F
4F
ENDCHAR
STARTCHAR 05DF
ENCODING 1503
SWIDTH 600 0
DWIDTH 10 0
BBX 3 11 3 -3
BITMAP
E0
E0
20
20
20
20
20
20
20
20
20
ENDCHAR
STARTCHAR 05E0
ENCODING 1504
SWIDTH 600 0
DWIDTH 10 0
BBX 6 8 2 0
BITMAP
70
78
0C
0C
0C
0C
FC
FC
ENDCHAR
STARTCHAR 05E1
ENCODING 1505
SWIDTH 600 0
DWIDTH 10 0
BBX 8 8 1 0
BITMAP
FE
FF
63
43
43
47
7E
3C
ENDCHAR
STARTCHAR 05E2
ENCODING 1506
SWIDTH 600 0
DWIDTH 10 0
BBX 8 8 1 0
BITMAP
E7
E7
33
33
33
33
FE
FE
ENDCHAR
STARTCHAR 05E3
ENCODING 1507
SWIDTH 600 0
DWIDTH 10 0
BBX 8 11 1 -3
BITMAP
FE
FF
63
73
73
03
03
03
03
03
01
ENDCHAR
STARTCHAR 05E4
ENCODING 1508
SWIDTH 600 0
DWIDTH 10 0
BBX 8 8 1 0
BITMAP
FE
FF
63
73
73
03
FF
FE
ENDCHAR
STARTCHAR 05E5
ENCODING 1509
SWIDTH 600 0
DWIDTH 10 0
BBX 8 12 1 -4
BITMAP
E7
E7
23
3E
1C
18
18
18
18
18
18
18
ENDCHAR
STARTCHAR 05E6
ENCODING 1510
SWIDTH 600 0
DWIDTH 10 0
BBX 8 8 1 0
BITMAP
E7
E7
73
3E
0C
07
FF
FF
ENDCHAR
STARTCHAR 05E7
ENCODING 1511
SWIDTH 600 0
DWIDTH 10 0
BBX 8 12 1 -4
BITMAP
FF
FF
03
03
63
66
6E
6C
60
60
60
40
ENDCHAR
STARTCHAR 05E8
ENCODING 1512
SWIDTH 600 0
DWIDTH 10 0
BBX 8 8 1 0
BITMAP
FE
FF
03
03
03
03
03
01
ENDCHAR
STARTCHAR 05E9
ENCODING 1513
SWIDTH 600 0
DWIDTH 10 0
BBX 9 8 1 0
BITMAP
DF80
DB00
D900
D900
DB00
DB00
FF00
FE00
ENDCHAR
STARTCHAR 05EA
ENCODING 1514
SWIDTH 600 0
DWIDTH 10 0
BBX 8 8 1 0
BITMAP
FE
FF
23
23
23
23
E3
E1
ENDCHAR
STARTCHAR 05F0
ENCODING 1520
SWIDTH 600 0
DWIDTH 10 0
BBX 8 8 1 0
BITMAP
E7
E7
21
21
21
21
21
21
ENDCHAR
STARTCHAR 05F1
ENCODING 1521
SWIDTH 600 0
DWIDTH 10 0
BBX 8 8 1 0
BITMAP
E7
E7
21
21
01
01
01
01
ENDCHAR
STARTCHAR 05F2
ENCODING 1522
SWIDTH 600 0
DWIDTH 10 0
BBX 8 4 1 4
BITMAP
E7
E7
21
21
ENDCHAR
STARTCHAR 05F3
ENCODING 1523
SWIDTH 600 0
DWIDTH 10 0
BBX 3 5 4 5
BITMAP
E0
C0
C0
C0
80
ENDCHAR
STARTCHAR 05F4
ENCODING 1524
SWIDTH 600 0
DWIDTH 10 0
BBX 7 5 2 5
BITMAP
EE
CC
CC
CC
88
ENDCHAR
STARTCHAR 10D0
ENCODING 4304
SWIDTH 600 0
DWIDTH 10 0
BBX 6 7 2 2
BITMAP
20
10
0C
84
84
C4
78
ENDCHAR
STARTCHAR 10D1
ENCODING 4305
SWIDTH 600 0
DWIDTH 10 0
BBX 6 10 2 2
BITMAP
40
70
90
10
30
48
84
84
C4
78
ENDCHAR
STARTCHAR 10D2
ENCODING 4306
SWIDTH 600 0
DWIDTH 10 0
BBX 6 10 2 -3
BITMAP
60
90
90
10
28
C4
84
84
84
78
ENDCHAR
STARTCHAR 10D3
ENCODING 4307
SWIDTH 600 0
DWIDTH 10 0
BBX 8 9 1 -2
BITMAP
7E
D1
91
91
4E
70
0C
06
02
ENDCHAR
STARTCHAR 10D4
ENCODING 4308
SWIDTH 600 0
DWIDTH 10 0
BBX 6 10 2 -3
BITMAP
38
44
44
44
04
C4
84
84
C4
78
ENDCHAR
STARTCHAR 10D5
ENCODING 4309
SWIDTH 600 0
DWIDTH 10 0
BBX 6 10 2 -3
BITMAP
38
44
44
44
18
44
84
84
C4
78
ENDCHAR
STARTCHAR 10D6
ENCODING 4310
SWIDTH 600 0
DWIDTH 10 0
BBX 8 10 1 2
BITMAP
70
50
88
5A
74
1E
13
21
12
1E
ENDCHAR
STARTCHAR 10D7
ENCODING 4311
SWIDTH 600 0
DWIDTH 10 0
BBX 8 5 1 2
BITMAP
7E
49
89
49
72
ENDCHAR
STARTCHAR 10D8
ENCODING 4312
SWIDTH 600 0
DWIDTH 10 0
BBX 6 6 2 1
BITMAP
78
CC
84
84
C4
40
ENDCHAR
STARTCHAR 10D9
ENCODING 4313
SWIDTH 600 0
DWIDTH 10 0
BBX 6 11 2 -3
BITMAP
04
04
04
04
18
04
C4
84
84
C4
78
ENDCHAR
STARTCHAR 10DA
ENCODING 4314
SWIDTH 600 0
DWIDTH 10 0
BBX 8 10 1 -3
BITMAP
7E
A5
A5
81
43
40
70
0C
02
01
ENDCHAR
STARTCHAR 10DB
ENCODING 4315
SWIDTH 600 0
DWIDTH 10 0
BBX 6 10 2 2
BITMAP
78
C4
84
84
84
3C
44
44
44
38
ENDCHAR
STARTCHAR 10DC
ENCODING 4316
SWIDTH 600 0
DWIDTH 10 0
BBX 6 10 2 2
BITMAP
04
78
80
80
80
F0
88
88
88
70
ENDCHAR
STARTCHAR 10DD
ENCODING 4317
SWIDTH 600 0
DWIDTH 10 0
BBX 8 6 1 1
BITMAP
7E
49
89
89
42
42
ENDCHAR
STARTCHAR 10DE
ENCODING 4318
SWIDTH 600 0
DWIDTH 10 0
BBX 6 10 2 2
BITMAP
40
20
38
04
04
18
84
84
84
78
ENDCHAR
STARTCHAR 10DF
ENCODING 4319
SWIDTH 600 0
DWIDTH 10 0
BBX 6 11 2 -3
BITMAP
04
3C
94
94
64
04
84
84
84
C4
78
ENDCHAR
STARTCHAR 10E0
ENCODING 4320
SWIDTH 600 0
DWIDTH 10 0
BBX 8 11 1 1
BITMAP
02
02
04
1C
20
7E
C9
89
89
42
42
ENDCHAR
STARTCHAR 10E1
ENCODING 4321
SWIDTH 600 0
DWIDTH 10 0
BBX 6 10 2 2
BITMAP
80
80
80
88
88
8C
84
84
C4
78
ENDCHAR
STARTCHAR 10E2
ENCODING 4322
SWIDTH 600 0
DWIDTH 10 0
BBX 8 13 1 -3
BITMAP
18
34
14
3C
66
59
81
81
81
81
42
62
3C
ENDCHAR
STARTCHAR 10E3
ENCODING 4323
SWIDTH 600 0
DWIDTH 10 0
BBX 8 11 1 -3
BITMAP
5E
A9
A9
69
09
01
21
21
21
23
1E
ENDCHAR
STARTCHAR 10E4
ENCODING 4324
SWIDTH 600 0
DWIDTH 10 0
BBX 8 10 1 -3
BITMAP
76
49
89
C9
76
21
21
21
23
1E
ENDCHAR
STARTCHAR 10E5
ENCODING 4325
SWIDTH 600 0
DWIDTH 10 0
BBX 6 14 2 -1
BITMAP
04
1C
04
04
04
3C
44
64
04
44
84
84
C4
78
ENDCHAR
STARTCHAR 10E6
ENCODING 4326
SWIDTH 600 0
DWIDTH 10 0
BBX 8 10 1 -3
BITMAP
7E
99
89
89
C2
42
70
0C
06
02
ENDCHAR
STARTCHAR 10E7
ENCODING 4327
SWIDTH 600 0
DWIDTH 10 0
BBX 6 11 2 -3
BITMAP
40
44
44
4C
3C
44
84
84
84
C4
78
ENDCHAR
STARTCHAR 10E8
ENCODING 4328
SWIDTH 600 0
DWIDTH 10 0
BBX 8 10 1 2
BITMAP
76
49
89
41
01
1F
23
21
22
1E
ENDCHAR
STARTCHAR 10E9
ENCODING 4329
SWIDTH 600 0
DWIDTH 10 0
BBX 6 11 2 1
BITMAP
70
88
98
F0
80
F8
CC
84
84
84
04
ENDCHAR
STARTCHAR 10EA
ENCODING 4330
SWIDTH 600 0
DWIDTH 10 0
BBX 8 11 1 -3
BITMAP
28
66
41
41
86
82
81
81
41
62
3C
ENDCHAR
STARTCHAR 10EB
ENCODING 4331
SWIDTH 600 0
DWIDTH 10 0
BBX 6 10 2 2
BITMAP
04
04
04
04
04
7C
84
84
84
78
ENDCHAR
STARTCHAR 10EC
ENCODING 4332
SWIDTH 600 0
DWIDTH 10 0
BBX 6 14 2 -3
BITMAP
FC
94
94
84
80
80
7C
48
48
48
30
30
30
10
ENDCHAR
STARTCHAR 10ED
ENCODING 4333
SWIDTH 600 0
DWIDTH 10 0
BBX 6 15 2 -3
BITMAP
40
70
88
8C
0C
6C
98
98
6C
48
84
84
84
84
78
ENDCHAR
STARTCHAR 10EE
ENCODING 4334
SWIDTH 600 0
DWIDTH 10 0
BBX 6 9 2 2
BITMAP
80
80
90
A0
F8
84
84
84
78
ENDCHAR
STARTCHAR 10EF
ENCODING 4335
SWIDTH 600 0
DWIDTH 10 0
BBX 8 10 1 -3
BITMAP
67
91
52
0C
18
27
15
17
90
70
ENDCHAR
STARTCHAR 10F0
ENCODING 4336
SWIDTH 600 0
DWIDTH 10 0
BBX 6 10 2 2
BITMAP
20
3C
04
1C
04
04
5C
84
84
78
ENDCHAR
STARTCHAR 10F1
ENCODING 4337
SWIDTH 600 0
DWIDTH 10 0
BBX 8 10 1 3
BITMAP
1F
29
69
57
61
C7
41
61
32
1E
ENDCHAR
STARTCHAR 10F2
ENCODING 4338
SWIDTH 600 0
DWIDTH 10 0
BBX 6 6 2 2
BITMAP
38
48
48
48
38
CC
ENDCHAR
STARTCHAR 10F3
ENCODING 4339
SWIDTH 600 0
DWIDTH 10 0
BBX 6 10 2 -2
BITMAP
84
7C
04
0C
38
04
04
04
04
F8
ENDCHAR
STARTCHAR 10F4
ENCODING 4340
SWIDTH 600 0
DWIDTH 10 0
BBX 6 12 2 -2
BITMAP
38
20
20
38
04
04
18
44
84
84
C4
78
ENDCHAR
STARTCHAR 10F5
ENCODING 4341
SWIDTH 600 0
DWIDTH 10 0
BBX 7 10 2 2
BITMAP
70
88
88
7E
08
7E
88
88
88
70
ENDCHAR
STARTCHAR 10F9
ENCODING 4345
SWIDTH 600 0
DWIDTH 10 0
BBX 6 10 2 -3
BITMAP
78
84
84
84
8C
50
20
24
24
18
ENDCHAR
STARTCHAR 10FB
ENCODING 4347
SWIDTH 600 0
DWIDTH 10 0
BBX 6 10 2 0
BITMAP
C0
C0
00
00
0C
0C
00
00
C0
C0
ENDCHAR
STARTCHAR 10FC
ENCODING 4348
SWIDTH 600 0
DWIDTH 10 0
BBX 5 7 3 4
BITMAP
08
70
80
80
F0
88
50
ENDCHAR
STARTCHAR 1E00
ENCODING 7680
SWIDTH 600 0
DWIDTH 10 0
BBX 10 14 0 -4
BITMAP
7C00
7E00
1E00
1E00
3300
3300
7F80
7F80
F3C0
F3C0
0000
0C00
0A00
0C00
ENDCHAR
STARTCHAR 1E01
ENCODING 7681
SWIDTH 600 0
DWIDTH 10 0
BBX 9 12 1 -4
BITMAP
7C00
7E00
3E00
FE00
C200
C600
FF80
7B80
0000
3800
2800
3000
ENDCHAR
STARTCHAR 1E02
ENCODING 7682
SWIDTH 600 0
DWIDTH 10 0
BBX 10 13 0 0
BITMAP
0C00
0C00
0000
FF00
FF80
2180
2180
3F00
3F80
20C0
20C0
FF80
FF00
ENDCHAR
STARTCHAR 1E03
ENCODING 7683
SWIDTH 600 0
DWIDTH 10 0
BBX 10 13 0 0
BITMAP
0C00
0C00
E000
E000
6000
6F00
7F80
7180
60C0
60C0
7180
FF80
FF00
ENDCHAR
STARTCHAR 1E04
ENCODING 7684
SWIDTH 600 0
DWIDTH 10 0
BBX 10 13 0 -3
BITMAP
FF00
FF80
2180
2180
3F00
3F80
20C0
20C0
FF80
FF00
0000
0C00
0C00
ENDCHAR
STARTCHAR 1E05
ENCODING 7685
SWIDTH 600 0
DWIDTH 10 0
BBX 10 14 0 -3
BITMAP
E000
E000
6000
6F00
7F80
7180
60C0
60C0
7180
FF80
FF00
0000
0400
0400
ENDCHAR
STARTCHAR 1E06
ENCODING 7686
SWIDTH 600 0
DWIDTH 10 0
BBX 10 13 0 -3
BITMAP
FF00
FF80
2180
2180
3F00
3F80
20C0
20C0
FF80
FF00
0000
3F00
3F00
ENDCHAR
STARTCHAR 1E07
ENCODING 7687
SWIDTH 600 0
DWIDTH 10 0
BBX 10 14 0 -3
BITMAP
E000
E000
6000
6F00
7F80
7180
60C0
60C0
7180
FF80
FF00
0000
3F00
3F00
ENDCHAR
STARTCHAR 1E08
ENCODING 7688
SWIDTH 600 0
DWIDTH 10 0
BBX 9 16 1 -3
BITMAP
0600
0C00
0800
3F00
7F00
C300
C100
8000
8000
8000
C180
7F00
3E00
0C00
3C00
1800
ENDCHAR
STARTCHAR 1E09
ENCODING 7689
SWIDTH 600 0
DWIDTH 10 0
BBX 8 14 1 -3
BITMAP
04
0C
18
3F
7F
E3
C1
C0
C1
7F
3E
0C
3C
18
ENDCHAR
STARTCHAR 1E0A
ENCODING 7690
SWIDTH 600 0
DWIDTH 10 0
BBX 9 13 0 0
BITMAP
0800
0C00
0000
FE00
FF00
6180
6180
6080
6080
6180
6180
FF00
FE00
ENDCHAR
STARTCHAR 1E0B
ENCODING 7691
SWIDTH 600 0
DWIDTH 10 0
BBX 9 13 1 0
BITMAP
1800
1800
0700
0700
0300
3F00
7F00
C300
8300
8300
C300
FF80
3F80
ENDCHAR
STARTCHAR 1E0C
ENCODING 7692
SWIDTH 600 0
DWIDTH 10 0
BBX 9 13 0 -3
BITMAP
FE00
FF00
6180
6180
6080
6080
6180
6180
FF00
FE00
0000
1800
0800
ENDCHAR
STARTCHAR 1E0D
ENCODING 7693
SWIDTH 600 0
DWIDTH 10 0
BBX 9 14 1 -3
BITMAP
0700
0700
0300
3F00
7F00
C300
8300
8300
C300
FF80
3F80
0000
1800
1800
ENDCHAR
STARTCHAR 1E0E
ENCODING 7694
SWIDTH 600 0
DWIDTH 10 0
BBX 9 13 0 -3
BITMAP
FE00
FF00
6180
6180
6080
6080
6180
6180
FF00
FE00
0000
3F00
3F00
ENDCHAR
STARTCHAR 1E0F
ENCODING 7695
SWIDTH 600 0
DWIDTH 10 0
BBX 9 14 1 -3
BITMAP
0700
0700
0300
3F00
7F00
C300
8300
8300
C300
FF80
3F80
0000
7E00
7E00
ENDCHAR
STARTCHAR 1E10
ENCODING 7696
SWIDTH 600 0
DWIDTH 10 0
BBX 9 13 0 -3
BITMAP
FE00
FF00
6180
6180
6080
6080
6180
6180
FF00
FE00
0C00
3C00
1800
ENDCHAR
STARTCHAR 1E11
ENCODING 7697
SWIDTH 600 0
DWIDTH 10 0
BBX 9 14 1 -3
BITMAP
0700
0700
0300
3F00
FF00
C300
8300
8300
C300
FF80
3F80
1800
3C00
3800
ENDCHAR
STARTCHAR 1E12
ENCODING 7698
SWIDTH 600 0
DWIDTH 10 0
BBX 9 14 0 -4
BITMAP
FE00
FF00
6180
6180
6080
6080
6180
6180
FF00
FE00
0000
1800
3E00
4200
ENDCHAR
STARTCHAR 1E13
ENCODING 7699
SWIDTH 600 0
DWIDTH 10 0
BBX 9 15 1 -4
BITMAP
0700
0700
0300
3F00
7F00
C300
8300
8300
C300
FF80
3F80
0000
0C00
3E00
2100
ENDCHAR
STARTCHAR 1E14
ENCODING 7700
SWIDTH 600 0
DWIDTH 10 0
BBX 9 14 0 0
BITMAP
1000
1800
0C00
3F00
3F00
FF80
FF80
2580
3C00
3C00
2400
2080
FF80
FF80
ENDCHAR
STARTCHAR 1E15
ENCODING 7701
SWIDTH 600 0
DWIDTH 10 0
BBX 8 13 1 0
BITMAP
20
10
3E
7E
00
3C
FE
C3
FF
FF
C0
FF
3E
ENDCHAR
STARTCHAR 1E16
ENCODING 7702
SWIDTH 600 0
DWIDTH 10 0
BBX 9 13 0 1
BITMAP
0600
0C00
3F00
3F00
FF80
FF80
2580
3C00
3C00
2400
2080
FF80
FF80
ENDCHAR
STARTCHAR 1E17
ENCODING 7703
SWIDTH 600 0
DWIDTH 10 0
BBX 8 13 1 0
BITMAP
04
0C
3E
7E
00
3C
FE
C3
FF
FF
C0
FF
3E
ENDCHAR
STARTCHAR 1E18
ENCODING 7704
SWIDTH 600 0
DWIDTH 10 0
BBX 9 14 0 -4
BITMAP
FF80
FF80
2180
2580
3C00
3C00
2480
2080
FF80
FF80
0000
0C00
1F00
3100
ENDCHAR
STARTCHAR 1E19
ENCODING 7705
SWIDTH 600 0
DWIDTH 10 0
BBX 8 12 1 -4
BITMAP
3C
FE
C3
FF
FF
C0
FF
3E
00
18
3E
42
ENDCHAR
STARTCHAR 1E1A
ENCODING 7706
SWIDTH 600 0
DWIDTH 10 0
BBX 9 13 0 -3
BITMAP
FF80
FF80
2180
2580
3C00
3C00
2480
2080
FF80
FF80
1D00
3F00
2200
ENDCHAR
STARTCHAR 1E1B
ENCODING 7707
SWIDTH 600 0
DWIDTH 10 0
BBX 8 11 1 -3
BITMAP
3C
FE
C3
FF
FF
C0
FF
3E
32
7E
4C
ENDCHAR
STARTCHAR 1E1C
ENCODING 7708
SWIDTH 600 0
DWIDTH 10 0
BBX 9 16 0 -3
BITMAP
3F00
0400
0000
FF80
FF80
2180
2580
3C00
3C00
2480
2080
FF80
FF80
0600
1E00
0E00
ENDCHAR
STARTCHAR 1E1D
ENCODING 7709
SWIDTH 600 0
DWIDTH 10 0
BBX 8 14 1 -3
BITMAP
7E
3C
00
3C
FE
C3
FF
FF
C0
FF
3E
1C
3C
18
ENDCHAR
STARTCHAR 1E1E
ENCODING 7710
SWIDTH 600 0
DWIDTH 10 0
BBX 9 13 0 0
BITMAP
0400
0C00
0000
FF80
FF80
2080
2480
3C00
3C00
2400
2000
FC00
FC00
ENDCHAR
STARTCHAR 1E1F
ENCODING 7711
SWIDTH 600 0
DWIDTH 10 0
BBX 9 13 1 0
BITMAP
0C00
0C00
1F00
1F80
3000
7F00
7F00
3000
3000
3000
3000
FE00
FE00
ENDCHAR
STARTCHAR 1E20
ENCODING 7712
SWIDTH 600 0
DWIDTH 10 0
BBX 9 13 1 0
BITMAP
3E00
7E00
0000
3F00
7F00
C300
C100
8000
8F80
8F80
C100
7F00
3E00
ENDCHAR
STARTCHAR 1E21
ENCODING 7713
SWIDTH 600 0
DWIDTH 10 0
BBX 9 14 1 -3
BITMAP
3E00
7E00
0000
3B80
FF80
C700
8300
8300
C700
FF00
3B00
0300
7E00
7C00
ENDCHAR
STARTCHAR 1E22
ENCODING 7714
SWIDTH 600 0
DWIDTH 10 0
BBX 10 13 0 0
BITMAP
0C00
0C00
0000
7B80
7B80
2180
2180
3F80
3F80
2180
2180
FBC0
FBC0
ENDCHAR
STARTCHAR 1E23
ENCODING 7715
SWIDTH 600 0
DWIDTH 10 0
BBX 10 13 0 0
BITMAP
0400
0C00
E000
E000
2000
2E00
3F00
3180
2180
2180
2180
F3C0
F3C0
ENDCHAR
STARTCHAR 1E24
ENCODING 7716
SWIDTH 600 0
DWIDTH 10 0
BBX 10 13 0 -3
BITMAP
7B80
7B80
2180
2180
3F80
3F80
2180
2180
FBC0
FBC0
0000
0C00
0C00
ENDCHAR
STARTCHAR 1E25
ENCODING 7717
SWIDTH 600 0
DWIDTH 10 0
BBX 10 14 0 -3
BITMAP
E000
E000
2000
2E00
3F00
3180
2180
2180
2180
F3C0
F3C0
0000
0C00
0C00
ENDCHAR
STARTCHAR 1E26
ENCODING 7718
SWIDTH 600 0
DWIDTH 10 0
BBX 10 13 0 0
BITMAP
1300
3300
0000
7B80
7B80
2180
2180
3F80
3F80
2180
2180
FBC0
FBC0
ENDCHAR
STARTCHAR 1E27
ENCODING 7719
SWIDTH 600 0
DWIDTH 10 0
BBX 10 13 0 0
BITMAP
3300
1300
E000
E000
2000
2E00
3F00
3180
2180
2180
2180
F3C0
F3C0
ENDCHAR
STARTCHAR 1E28
ENCODING 7720
SWIDTH 600 0
DWIDTH 10 0
BBX 10 13 0 -3
BITMAP
7B80
7B80
2180
2180
3F80
3F80
2180
2180
FBC0
FBC0
3000
F000
7000
ENDCHAR
STARTCHAR 1E29
ENCODING 7721
SWIDTH 600 0
DWIDTH 10 0
BBX 10 14 0 -3
BITMAP
E000
E000
2000
2E00
3F00
3180
2180
2180
2180
F3C0
F3C0
3000
F000
7000
ENDCHAR
STARTCHAR 1E2A
ENCODING 7722
SWIDTH 600 0
DWIDTH 10 0
BBX 10 13 0 -3
BITMAP
7B80
7B80
2180
2180
3F80
3F80
2180
2180
FBC0
FBC0
0000
3F00
1E00
ENDCHAR
STARTCHAR 1E2B
ENCODING 7723
SWIDTH 600 0
DWIDTH 10 0
BBX 10 14 0 -3
BITMAP
E000
E000
2000
2E00
3F00
3180
2180
2180
2180
F3C0
F3C0
0000
3F00
1E00
ENDCHAR
STARTCHAR 1E2C
ENCODING 7724
SWIDTH 600 0
DWIDTH 10 0
BBX 8 13 1 -3
BITMAP
FF
7F
18
18
18
18
18
18
FF
7F
3A
7E
4C
ENDCHAR
STARTCHAR 1E2D
ENCODING 7725
SWIDTH 600 0
DWIDTH 10 0
BBX 8 14 1 -3
BITMAP
18
18
00
78
78
18
18
18
18
FF
FF
3A
7E
4C
ENDCHAR
STARTCHAR 1E2E
ENCODING 7726
SWIDTH 600 0
DWIDTH 10 0
BBX 8 13 1 0
BITMAP
0C
18
66
66
FF
7F
18
18
18
18
18
FF
7F
ENDCHAR
STARTCHAR 1E2F
ENCODING 7727
SWIDTH 600 0
DWIDTH 10 0
BBX 8 13 1 0
BITMAP
06
0C
28
66
00
78
78
18
18
18
18
FF
FF
ENDCHAR
STARTCHAR 1E30
ENCODING 7728
SWIDTH 600 0
DWIDTH 10 0
BBX 10 13 0 0
BITMAP
0200
0400
0000
FBC0
FBC0
2300
2E00
3C00
3E00
2300
2300
F9C0
F9C0
ENDCHAR
STARTCHAR 1E31
ENCODING 7729
SWIDTH 600 0
DWIDTH 10 0
BBX 9 13 1 0
BITMAP
0C00
1800
F000
E000
6000
6F00
6F00
7C00
7000
7800
6C00
E780
E780
ENDCHAR
STARTCHAR 1E32
ENCODING 7730
SWIDTH 600 0
DWIDTH 10 0
BBX 10 13 0 -3
BITMAP
FBC0
FBC0
2300
2E00
3C00
3E00
2300
2300
F9C0
F9C0
0000
0C00
0400
ENDCHAR
STARTCHAR 1E33
ENCODING 7731
SWIDTH 600 0
DWIDTH 10 0
BBX 9 14 1 -3
BITMAP
E000
E000
6000
6F00
6F00
7C00
7000
7800
6C00
E780
E780
0000
1800
1800
ENDCHAR
STARTCHAR 1E34
ENCODING 7732
SWIDTH 600 0
DWIDTH 10 0
BBX 10 13 0 -3
BITMAP
FBC0
FBC0
2300
2E00
3C00
3E00
2300
2300
F9C0
F9C0
0000
3F00
3F00
ENDCHAR
STARTCHAR 1E35
ENCODING 7733
SWIDTH 600 0
DWIDTH 10 0
BBX 9 14 1 -3
BITMAP
E000
E000
6000
6F00
6F00
7C00
7000
7800
6C00
E780
E780
0000
7E00
7E00
ENDCHAR
STARTCHAR 1E36
ENCODING 7734
SWIDTH 600 0
DWIDTH 10 0
BBX 9 13 1 -3
BITMAP
F800
F800
2000
2000
2000
2000
2180
2180
FF80
FF80
0000
0C00
0800
ENDCHAR
STARTCHAR 1E37
ENCODING 7735
SWIDTH 600 0
DWIDTH 10 0
BBX 8 14 1 -3
BITMAP
78
78
18
18
18
18
18
18
18
FF
FF
00
18
18
ENDCHAR
STARTCHAR 1E38
ENCODING 7736
SWIDTH 600 0
DWIDTH 10 0
BBX 9 16 1 -3
BITMAP
FC00
FC00
0000
F800
F800
2000
2000
2000
2000
2180
2180
FF80
FF80
0000
0C00
0800
ENDCHAR
STARTCHAR 1E39
ENCODING 7737
SWIDTH 600 0
DWIDTH 10 0
BBX 8 16 1 -3
BITMAP
7C
7C
78
78
18
18
18
18
18
18
18
FF
FF
00
18
18
ENDCHAR
STARTCHAR 1E3A
ENCODING 7738
SWIDTH 600 0
DWIDTH 10 0
BBX 9 13 1 -3
BITMAP
F800
F800
2000
2000
2000
2000
2180
2180
FF80
FF80
0000
3E00
3E00
ENDCHAR
STARTCHAR 1E3B
ENCODING 7739
SWIDTH 600 0
DWIDTH 10 0
BBX 8 14 1 -3
BITMAP
78
78
18
18
18
18
18
18
18
FF
FF
00
7E
7E
ENDCHAR
STARTCHAR 1E3C
ENCODING 7740
SWIDTH 600 0
DWIDTH 10 0
BBX 9 14 1 -4
BITMAP
F800
F800
2000
2000
2000
2000
2180
2180
FF80
FF80
0000
0C00
3E00
2300
ENDCHAR
STARTCHAR 1E3D
ENCODING 7741
SWIDTH 600 0
DWIDTH 10 0
BBX 8 15 1 -4
BITMAP
78
78
18
18
18
18
18
18
18
FF
FF
00
18
3E
42
ENDCHAR
STARTCHAR 1E3E
ENCODING 7742
SWIDTH 600 0
DWIDTH 10 0
BBX 11 13 0 0
BITMAP
0200
0400
0800
E1C0
F1C0
73C0
73C0
5EC0
5EC0
4CC0
40C0
F3E0
F3C0
ENDCHAR
STARTCHAR 1E3F
ENCODING 7743
SWIDTH 600 0
DWIDTH 10 0
BBX 11 11 0 0
BITMAP
0100
0300
0400
FB80
FF80
4CC0
4CC0
4CC0
4CC0
EEE0
EEC0
ENDCHAR
STARTCHAR 1E40
ENCODING 7744
SWIDTH 600 0
DWIDTH 10 0
BBX 11 13 0 0
BITMAP
0400
0C00
0000
E1C0
F1C0
73C0
73C0
5EC0
5EC0
4CC0
40C0
F3E0
F3C0
ENDCHAR
STARTCHAR 1E41
ENCODING 7745
SWIDTH 600 0
DWIDTH 10 0
BBX 11 11 0 0
BITMAP
0400
0C00
0000
FB80
FF80
4CC0
4CC0
4CC0
4CC0
EEE0
EEC0
ENDCHAR
STARTCHAR 1E42
ENCODING 7746
SWIDTH 600 0
DWIDTH 10 0
BBX 11 13 0 -3
BITMAP
E1C0
F1C0
73C0
73C0
5EC0
5EC0
4CC0
40C0
F3E0
F3C0
0000
0C00
0C00
ENDCHAR
STARTCHAR 1E43
ENCODING 7747
SWIDTH 600 0
DWIDTH 10 0
BBX 11 11 0 -3
BITMAP
FB80
FF80
4CC0
4CC0
4CC0
4CC0
EEE0
EEC0
0000
0C00
0C00
ENDCHAR
STARTCHAR 1E44
ENCODING 7748
SWIDTH 600 0
DWIDTH 10 0
BBX 10 13 0 0
BITMAP
0C00
0C00
0000
E3C0
F3C0
7980
7980
6D80
6F80
6780
6380
FB80
F980
ENDCHAR
STARTCHAR 1E45
ENCODING 7749
SWIDTH 600 0
DWIDTH 10 0
BBX 10 11 0 0
BITMAP
0400
0C00
0000
6E00
7F00
3180
2180
2180
2180
F3C0
F3C0
ENDCHAR
STARTCHAR 1E46
ENCODING 7750
SWIDTH 600 0
DWIDTH 10 0
BBX 10 13 0 -3
BITMAP
E3C0
F3C0
7980
7980
6D80
6F80
6780
6380
FB80
F980
0000
0C00
0C00
ENDCHAR
STARTCHAR 1E47
ENCODING 7751
SWIDTH 600 0
DWIDTH 10 0
BBX 10 11 0 -3
BITMAP
6E00
7F00
3180
2180
2180
2180
F3C0
F3C0
0000
0C00
0C00
ENDCHAR
STARTCHAR 1E48
ENCODING 7752
SWIDTH 600 0
DWIDTH 10 0
BBX 10 13 0 -3
BITMAP
E3C0
F3C0
7980
7980
6D80
6F80
6780
6380
FB80
F980
0000
3F00
3F00
ENDCHAR
STARTCHAR 1E49
ENCODING 7753
SWIDTH 600 0
DWIDTH 10 0
BBX 10 11 0 -3
BITMAP
6E00
7F00
3180
2180
2180
2180
F3C0
F3C0
0000
3F00
3F00
ENDCHAR
STARTCHAR 1E4A
ENCODING 7754
SWIDTH 600 0
DWIDTH 10 0
BBX 10 14 0 -4
BITMAP
E3C0
F3C0
7980
7980
6D80
6F80
6780
6380
FB80
F980
0000
0C00
1F00
2100
ENDCHAR
STARTCHAR 1E4B
ENCODING 7755
SWIDTH 600 0
DWIDTH 10 0
BBX 10 12 0 -4
BITMAP
6E00
7F00
3180
2180
2180
2180
F3C0
F3C0
0000
0C00
1F00
2100
ENDCHAR
STARTCHAR 1E4C
ENCODING 7756
SWIDTH 600 0
DWIDTH 10 0
BBX 10 14 0 0
BITMAP
0100
0600
1880
1D80
3F00
3F80
6180
40C0
C0C0
C0C0
40C0
6180
3F00
1E00
ENDCHAR
STARTCHAR 1E4D
ENCODING 7757
SWIDTH 600 0
DWIDTH 10 0
BBX 8 13 1 0
BITMAP
04
3A
7E
4C
00
3C
7F
C3
81
81
C3
7F
3C
ENDCHAR
STARTCHAR 1E4E
ENCODING 7758
SWIDTH 600 0
DWIDTH 10 0
BBX 10 14 0 0
BITMAP
1300
1300
1900
1D00
3700
3F00
3F80
6180
C0C0
C0C0
C0C0
6180
3F80
1E00
ENDCHAR
STARTCHAR 1E4F
ENCODING 7759
SWIDTH 600 0
DWIDTH 10 0
BBX 8 13 1 0
BITMAP
66
36
7E
4C
00
3C
7F
C3
81
81
C3
7F
3C
ENDCHAR
STARTCHAR 1E50
ENCODING 7760
SWIDTH 600 0
DWIDTH 10 0
BBX 10 13 0 1
BITMAP
1800
0C00
3F00
3F00
1E00
3F80
6180
C0C0
C0C0
C0C0
6180
3F80
1E00
ENDCHAR
STARTCHAR 1E51
ENCODING 7761
SWIDTH 600 0
DWIDTH 10 0
BBX 8 13 1 0
BITMAP
20
10
3E
7E
00
3C
7F
C3
81
81
C3
7F
3C
ENDCHAR
STARTCHAR 1E52
ENCODING 7762
SWIDTH 600 0
DWIDTH 10 0
BBX 10 13 0 1
BITMAP
0600
0C00
3F00
3F00
1E00
3F80
6180
C0C0
C0C0
C0C0
6180
3F80
1E00
ENDCHAR
STARTCHAR 1E53
ENCODING 7763
SWIDTH 600 0
DWIDTH 10 0
BBX 8 13 1 0
BITMAP
04
0C
3E
7E
00
3C
7F
C3
81
81
C3
7F
3C
ENDCHAR
STARTCHAR 1E54
ENCODING 7764
SWIDTH 600 0
DWIDTH 10 0
BBX 9 13 0 0
BITMAP
0C00
1800
1000
FE00
FF00
2180
2180
2180
3F00
3E00
2000
FC00
FC00
ENDCHAR
STARTCHAR 1E55
ENCODING 7765
SWIDTH 600 0
DWIDTH 10 0
BBX 10 14 0 -3
BITMAP
0100
0600
0400
EF00
FF80
71C0
60C0
60C0
71C0
7F80
6F00
6000
F800
F800
ENDCHAR
STARTCHAR 1E56
ENCODING 7766
SWIDTH 600 0
DWIDTH 10 0
BBX 9 13 0 0
BITMAP
1800
1800
0000
FE00
FF00
2180
2180
2180
3F00
3E00
2000
FC00
FC00
ENDCHAR
STARTCHAR 1E57
ENCODING 7767
SWIDTH 600 0
DWIDTH 10 0
BBX 10 14 0 -3
BITMAP
0400
0600
0000
EF00
FF80
71C0
60C0
60C0
71C0
7F80
6F00
6000
F800
F800
ENDCHAR
STARTCHAR 1E58
ENCODING 7768
SWIDTH 600 0
DWIDTH 10 0
BBX 10 13 0 0
BITMAP
0800
1800
0000
FE00
FF00
6180
6180
7F00
7E00
6700
6380
F9C0
F8C0
ENDCHAR
STARTCHAR 1E59
ENCODING 7769
SWIDTH 600 0
DWIDTH 10 0
BBX 9 11 1 0
BITMAP
0800
1800
0000
F700
FF80
3800
3000
3000
3000
FE00
FE00
ENDCHAR
STARTCHAR 1E5A
ENCODING 7770
SWIDTH 600 0
DWIDTH 10 0
BBX 10 13 0 -3
BITMAP
FE00
FF00
6180
6180
7F00
7E00
6700
6380
F9C0
F8C0
0000
0C00
0400
ENDCHAR
STARTCHAR 1E5B
ENCODING 7771
SWIDTH 600 0
DWIDTH 10 0
BBX 9 11 1 -3
BITMAP
F700
FF80
3800
3000
3000
3000
FE00
FE00
0000
1800
1800
ENDCHAR
STARTCHAR 1E5C
ENCODING 7772
SWIDTH 600 0
DWIDTH 10 0
BBX 10 16 0 -3
BITMAP
3F00
3F00
0000
FE00
FF00
6180
6180
7F00
7E00
6700
6380
F9C0
F8C0
0000
0C00
0400
ENDCHAR
STARTCHAR 1E5D
ENCODING 7773
SWIDTH 600 0
DWIDTH 10 0
BBX 9 14 1 -3
BITMAP
3E00
3F00
0000
F700
FF80
3800
3000
3000
3000
FE00
FE00
0000
1800
1800
ENDCHAR
STARTCHAR 1E5E
ENCODING 7774
SWIDTH 600 0
DWIDTH 10 0
BBX 10 13 0 -3
BITMAP
FE00
FF00
6180
6180
7F00
7E00
6700
6380
F9C0
F8C0
0000
3F00
1F00
ENDCHAR
STARTCHAR 1E5F
ENCODING 7775
SWIDTH 600 0
DWIDTH 10 0
BBX 9 11 1 -3
BITMAP
F700
FF80
3800
3000
3000
3000
FE00
FE00
0000
7C00
7C00
ENDCHAR
STARTCHAR 1E60
ENCODING 7776
SWIDTH 600 0
DWIDTH 10 0
BBX 8 13 1 0
BITMAP
08
0C
00
3F
7F
C3
E0
7E
3E
03
C3
FF
FC
ENDCHAR
STARTCHAR 1E61
ENCODING 7777
SWIDTH 600 0
DWIDTH 10 0
BBX 8 10 1 1
BITMAP
18
00
3F
7F
43
7C
3F
C3
FF
FE
ENDCHAR
STARTCHAR 1E62
ENCODING 7778
SWIDTH 600 0
DWIDTH 10 0
BBX 8 13 1 -3
BITMAP
3F
7F
C3
E0
7E
3E
03
C3
FF
FC
00
18
18
ENDCHAR
STARTCHAR 1E63
ENCODING 7779
SWIDTH 600 0
DWIDTH 10 0
BBX 8 11 1 -3
BITMAP
3F
7F
43
7C
3F
C3
FF
FE
00
18
18
ENDCHAR
STARTCHAR 1E64
ENCODING 7780
SWIDTH 600 0
DWIDTH 10 0
BBX 8 14 1 0
BITMAP
10
10
0C
18
00
3F
7F
C3
60
7E
0F
C3
FF
FC
ENDCHAR
STARTCHAR 1E65
ENCODING 7781
SWIDTH 600 0
DWIDTH 10 0
BBX 8 13 1 0
BITMAP
18
10
04
0C
18
3F
7F
43
7C
3F
C3
FF
FE
ENDCHAR
STARTCHAR 1E66
ENCODING 7782
SWIDTH 600 0
DWIDTH 10 0
BBX 8 14 1 0
BITMAP
08
08
66
1C
00
3F
7F
C3
60
7E
0F
C3
FF
FC
ENDCHAR
STARTCHAR 1E67
ENCODING 7783
SWIDTH 600 0
DWIDTH 10 0
BBX 8 13 1 0
BITMAP
18
08
66
3C
08
3F
7F
43
7C
3F
C3
FF
FE
ENDCHAR
STARTCHAR 1E68
ENCODING 7784
SWIDTH 600 0
DWIDTH 10 0
BBX 8 16 1 -3
BITMAP
08
18
00
3F
7F
C3
E0
7E
3E
03
C3
FF
FC
00
18
18
ENDCHAR
STARTCHAR 1E69
ENCODING 7785
SWIDTH 600 0
DWIDTH 10 0
BBX 8 14 1 -3
BITMAP
08
18
00
3F
7F
43
7C
3F
C3
FF
FE
00
18
18
ENDCHAR
STARTCHAR 1E6A
ENCODING 7786
SWIDTH 600 0
DWIDTH 10 0
BBX 8 13 1 0
BITMAP
18
18
00
FF
FF
99
99
18
18
18
18
7E
7E
ENDCHAR
STARTCHAR 1E6B
ENCODING 7787
SWIDTH 600 0
DWIDTH 10 0
BBX 9 13 0 0
BITMAP
2000
3000
0000
3000
3000
FF00
FF00
3000
3000
3000
3180
3F80
1F00
ENDCHAR
STARTCHAR 1E6C
ENCODING 7788
SWIDTH 600 0
DWIDTH 10 0
BBX 8 13 1 -3
BITMAP
FF
FF
99
99
18
18
18
18
7E
7E
00
18
18
ENDCHAR
STARTCHAR 1E6D
ENCODING 7789
SWIDTH 600 0
DWIDTH 10 0
BBX 9 13 0 -3
BITMAP
3000
3000
FF00
FF00
3000
3000
3000
3180
3F80
1F00
0000
0C00
0C00
ENDCHAR
STARTCHAR 1E6E
ENCODING 7790
SWIDTH 600 0
DWIDTH 10 0
BBX 8 13 1 -3
BITMAP
FF
FF
99
99
18
18
18
18
7E
7E
00
7E
7E
ENDCHAR
STARTCHAR 1E6F
ENCODING 7791
SWIDTH 600 0
DWIDTH 10 0
BBX 9 13 0 -3
BITMAP
3000
3000
FF00
FF00
3000
3000
3000
3180
3F80
1F00
0000
3F00
3F00
ENDCHAR
STARTCHAR 1E70
ENCODING 7792
SWIDTH 600 0
DWIDTH 10 0
BBX 8 14 1 -4
BITMAP
FF
FF
99
99
18
18
18
18
7E
7E
00
18
3E
42
ENDCHAR
STARTCHAR 1E71
ENCODING 7793
SWIDTH 600 0
DWIDTH 10 0
BBX 9 14 0 -4
BITMAP
3000
3000
FF00
FF00
3000
3000
3000
3180
3F80
1F00
0000
0C00
1F00
2100
ENDCHAR
STARTCHAR 1E72
ENCODING 7794
SWIDTH 600 0
DWIDTH 10 0
BBX 10 13 0 -3
BITMAP
FBC0
FBC0
6180
6180
6180
6180
6180
7180
3F00
1E00
0000
3300
3300
ENDCHAR
STARTCHAR 1E73
ENCODING 7795
SWIDTH 600 0
DWIDTH 10 0
BBX 10 11 0 -3
BITMAP
E780
E780
2180
2180
2180
3380
3FC0
1DC0
0000
3200
3200
ENDCHAR
STARTCHAR 1E74
ENCODING 7796
SWIDTH 600 0
DWIDTH 10 0
BBX 10 13 0 -3
BITMAP
FBC0
FBC0
6180
6180
6180
6180
6180
7180
3F00
1E00
1900
3F00
2600
ENDCHAR
STARTCHAR 1E75
ENCODING 7797
SWIDTH 600 0
DWIDTH 10 0
BBX 10 11 0 -3
BITMAP
E780
E780
2180
2180
2180
3380
3FC0
1DC0
1900
3F00
2600
ENDCHAR
STARTCHAR 1E76
ENCODING 7798
SWIDTH 600 0
DWIDTH 10 0
BBX 10 14 0 -4
BITMAP
FBC0
FBC0
6180
6180
6180
6180
6180
7180
3F00
1E00
0000
0C00
1F00
2100
ENDCHAR
STARTCHAR 1E77
ENCODING 7799
SWIDTH 600 0
DWIDTH 10 0
BBX 10 12 0 -4
BITMAP
E780
E780
2180
2180
2180
3380
3FC0
1DC0
0000
0C00
1F00
2100
ENDCHAR
STARTCHAR 1E78
ENCODING 7800
SWIDTH 600 0
DWIDTH 10 0
BBX 10 15 0 0
BITMAP
0100
0300
0600
1900
3F00
2600
FBC0
FBC0
6180
6180
6180
6180
7180
3F00
1E00
ENDCHAR
STARTCHAR 1E79
ENCODING 7801
SWIDTH 600 0
DWIDTH 10 0
BBX 10 13 0 0
BITMAP
0300
1F00
3F00
2600
0000
E780
E780
2180
2180
2180
3380
3FC0
1DC0
ENDCHAR
STARTCHAR 1E7A
ENCODING 7802
SWIDTH 600 0
DWIDTH 10 0
BBX 10 14 0 0
BITMAP
3300
3300
3F00
3F00
0000
FBC0
FBC0
6180
6180
6180
6180
7180
3F00
1E00
ENDCHAR
STARTCHAR 1E7B
ENCODING 7803
SWIDTH 600 0
DWIDTH 10 0
BBX 10 13 0 0
BITMAP
1300
3300
1F00
3F00
0000
E780
E780
2180
2180
2180
3380
3FC0
1DC0
ENDCHAR
STARTCHAR 1E7C
ENCODING 7804
SWIDTH 600 0
DWIDTH 10 0
BBX 10 14 0 0
BITMAP
1900
3F00
2600
0000
F3C0
F3C0
6180
6180
3100
3300
1A00
1E00
0E00
0C00
ENDCHAR
STARTCHAR 1E7D
ENCODING 7805
SWIDTH 600 0
DWIDTH 10 0
BBX 10 12 0 0
BITMAP
1900
3F00
2600
0000
F3C0
F3C0
3180
3300
1300
1E00
1E00
0C00
ENDCHAR
STARTCHAR 1E7E
ENCODING 7806
SWIDTH 600 0
DWIDTH 10 0
BBX 10 13 0 -3
BITMAP
F3C0
F3C0
6180
6180
3100
3300
1A00
1E00
0E00
0C00
0000
0C00
0C00
ENDCHAR
STARTCHAR 1E7F
ENCODING 7807
SWIDTH 600 0
DWIDTH 10 0
BBX 10 11 0 -3
BITMAP
F3C0
F3C0
3180
3300
1300
1E00
1E00
0C00
0000
0C00
0C00
ENDCHAR
STARTCHAR 1E80
ENCODING 7808
SWIDTH 600 0
DWIDTH 10 0
BBX 10 13 0 0
BITMAP
1800
0C00
0400
F3C0
F3C0
4CC0
6C80
6E80
7F80
7B80
7380
7380
3180
ENDCHAR
STARTCHAR 1E81
ENCODING 7809
SWIDTH 600 0
DWIDTH 10 0
BBX 10 11 0 0
BITMAP
1000
1800
0C00
F3C0
F3C0
6D80
6D80
2F80
3F00
3B00
3300
ENDCHAR
STARTCHAR 1E82
ENCODING 7810
SWIDTH 600 0
DWIDTH 10 0
BBX 10 13 0 0
BITMAP
0600
0C00
0800
F3C0
F3C0
4CC0
6C80
6E80
7F80
7B80
7380
7380
3180
ENDCHAR
STARTCHAR 1E83
ENCODING 7811
SWIDTH 600 0
DWIDTH 10 0
BBX 10 11 0 0
BITMAP
0300
0600
0400
F3C0
F3C0
6D80
6D80
2F80
3F00
3B00
3300
ENDCHAR
STARTCHAR 1E84
ENCODING 7812
SWIDTH 600 0
DWIDTH 10 0
BBX 10 13 0 0
BITMAP
1300
3300
0000
F3C0
F3C0
4CC0
6C80
6E80
7F80
7B80
7380
7380
3180
ENDCHAR
STARTCHAR 1E85
ENCODING 7813
SWIDTH 600 0
DWIDTH 10 0
BBX 10 10 0 0
BITMAP
3300
1300
F3C0
F3C0
6D80
6D80
2F80
3F00
3B00
3300
ENDCHAR
STARTCHAR 1E86
ENCODING 7814
SWIDTH 600 0
DWIDTH 10 0
BBX 10 13 0 0
BITMAP
0C00
0C00
0000
F3C0
F3C0
4CC0
6C80
6E80
7F80
7B80
7380
7380
3180
ENDCHAR
STARTCHAR 1E87
ENCODING 7815
SWIDTH 600 0
DWIDTH 10 0
BBX 10 11 0 0
BITMAP
0400
0C00
0000
F3C0
F3C0
6D80
6D80
2F80
3F00
3B00
3300
ENDCHAR
STARTCHAR 1E88
ENCODING 7816
SWIDTH 600 0
DWIDTH 10 0
BBX 10 13 0 -3
BITMAP
F3C0
F3C0
4CC0
6C80
6E80
7F80
7B80
7380
7380
3180
0000
0C00
0C00
ENDCHAR
STARTCHAR 1E89
ENCODING 7817
SWIDTH 600 0
DWIDTH 10 0
BBX 10 11 0 -3
BITMAP
F3C0
F3C0
6D80
6D80
2F80
3F00
3B00
3300
0000
0C00
0C00
ENDCHAR
STARTCHAR 1E8A
ENCODING 7818
SWIDTH 600 0
DWIDTH 10 0
BBX 10 13 0 0
BITMAP
0C00
0C00
0000
F3C0
F3C0
3300
1E00
0E00
1E00
1F00
3380
F3C0
F3C0
ENDCHAR
STARTCHAR 1E8B
ENCODING 7819
SWIDTH 600 0
DWIDTH 10 0
BBX 10 10 0 1
BITMAP
0C00
0000
7380
7380
3F00
1E00
1E00
3B00
73C0
F3C0
ENDCHAR
STARTCHAR 1E8C
ENCODING 7820
SWIDTH 600 0
DWIDTH 10 0
BBX 10 13 0 0
BITMAP
1300
3300
0000
F3C0
F3C0
3300
1E00
0E00
1E00
1F00
3380
F3C0
F3C0
ENDCHAR
STARTCHAR 1E8D
ENCODING 7821
SWIDTH 600 0
DWIDTH 10 0
BBX 10 10 0 0
BITMAP
3300
1300
7380
7380
3F00
1E00
1E00
3B00
73C0
F3C0
ENDCHAR
STARTCHAR 1E8E
ENCODING 7822
SWIDTH 600 0
DWIDTH 10 0
BBX 10 13 0 0
BITMAP
0C00
0C00
0000
F3C0
F3C0
3300
1B00
1E00
0C00
0C00
0C00
3F00
3F00
ENDCHAR
STARTCHAR 1E8F
ENCODING 7823
SWIDTH 600 0
DWIDTH 10 0
BBX 10 13 0 -2
BITMAP
0C00
0000
F3C0
F3C0
6180
3300
1300
1E00
0C00
0C00
1800
FC00
FC00
ENDCHAR
STARTCHAR 1E90
ENCODING 7824
SWIDTH 600 0
DWIDTH 10 0
BBX 8 13 1 0
BITMAP
18
76
42
7F
7F
46
4C
18
38
33
63
FF
FF
ENDCHAR
STARTCHAR 1E91
ENCODING 7825
SWIDTH 600 0
DWIDTH 10 0
BBX 8 11 1 0
BITMAP
08
3C
66
7F
7F
4E
1C
38
73
FF
FF
ENDCHAR
STARTCHAR 1E92
ENCODING 7826
SWIDTH 600 0
DWIDTH 10 0
BBX 8 13 1 -3
BITMAP
7F
7F
46
4C
18
38
33
63
FF
FF
00
18
18
ENDCHAR
STARTCHAR 1E93
ENCODING 7827
SWIDTH 600 0
DWIDTH 10 0
BBX 8 11 1 -3
BITMAP
7F
7F
4E
1C
38
73
FF
FF
00
18
18
ENDCHAR
STARTCHAR 1E94
ENCODING 7828
SWIDTH 600 0
DWIDTH 10 0
BBX 8 13 1 -3
BITMAP
7F
7F
46
4C
18
38
33
63
FF
FF
00
7E
7E
ENDCHAR
STARTCHAR 1E95
ENCODING 7829
SWIDTH 600 0
DWIDTH 10 0
BBX 8 11 1 -3
BITMAP
7F
7F
4E
1C
38
73
FF
FF
00
7E
7E
ENDCHAR
STARTCHAR 1E96
ENCODING 7830
SWIDTH 600 0
DWIDTH 10 0
BBX 10 14 0 -3
BITMAP
E000
E000
2000
2E00
3F00
3180
2180
2180
2180
F3C0
F3C0
0000
3F00
3F00
ENDCHAR
STARTCHAR 1E97
ENCODING 7831
SWIDTH 600 0
DWIDTH 10 0
BBX 9 13 0 0
BITMAP
C800
CC00
0000
3000
3000
FF00
FF00
3000
3000
3000
3180
3F80
1F00
ENDCHAR
STARTCHAR 1E98
ENCODING 7832
SWIDTH 600 0
DWIDTH 10 0
BBX 10 11 0 0
BITMAP
0C00
0A00
0C00
F3C0
F3C0
6D80
6D80
2F80
3F00
3B00
3300
ENDCHAR
STARTCHAR 1E99
ENCODING 7833
SWIDTH 600 0
DWIDTH 10 0
BBX 10 14 0 -3
BITMAP
0C00
0A00
0C00
F3C0
F3C0
6180
3300
1300
1E00
0C00
0C00
1800
FC00
FC00
ENDCHAR
STARTCHAR 1E9A
ENCODING 7834
SWIDTH 600 0
DWIDTH 10 0
BBX 9 11 1 0
BITMAP
0100
0100
0100
7C00
7E00
3E00
FE00
C200
C600
FF80
7B80
ENDCHAR
STARTCHAR 1E9B
ENCODING 7835
SWIDTH 600 0
DWIDTH 10 0
BBX 9 13 1 0
BITMAP
0600
0400
1F00
1F80
3000
7000
7000
3000
3000
3000
3000
FE00
FE00
ENDCHAR
STARTCHAR 1EA0
ENCODING 7840
SWIDTH 600 0
DWIDTH 10 0
BBX 10 13 0 -3
BITMAP
7C00
7E00
1E00
1E00
3300
3300
7F80
7F80
F3C0
F3C0
0000
0C00
0C00
ENDCHAR
STARTCHAR 1EA1
ENCODING 7841
SWIDTH 600 0
DWIDTH 10 0
BBX 9 11 1 -3
BITMAP
7C00
7E00
3E00
FE00
C200
C600
FF80
7B80
0000
1800
1800
ENDCHAR
STARTCHAR 1EA2
ENCODING 7842
SWIDTH 600 0
DWIDTH 10 0
BBX 10 14 0 0
BITMAP
0C00
1400
0800
0000
7C00
7E00
1E00
1E00
3300
3300
7F80
7F80
F3C0
F3C0
ENDCHAR
STARTCHAR 1EA3
ENCODING 7843
SWIDTH 600 0
DWIDTH 10 0
BBX 9 12 1 0
BITMAP
1C00
1400
0800
0000
7C00
7E00
3E00
FE00
C200
C600
FF80
7B80
ENDCHAR
STARTCHAR 1EA4
ENCODING 7844
SWIDTH 600 0
DWIDTH 10 0
BBX 10 13 0 0
BITMAP
1840
3CC0
4200
7C00
7E00
1E00
1E00
3300
3300
7F80
7F80
F3C0
F3C0
ENDCHAR
STARTCHAR 1EA5
ENCODING 7845
SWIDTH 600 0
DWIDTH 10 0
BBX 9 13 1 0
BITMAP
0080
0180
1B00
3C00
4600
7C00
7E00
3E00
FE00
C200
C600
FF80
7B80
ENDCHAR
STARTCHAR 1EA6
ENCODING 7846
SWIDTH 600 0
DWIDTH 10 0
BBX 10 13 0 0
BITMAP
8600
6F80
3080
7C00
7E00
1E00
1E00
3300
3300
7F80
7F80
F3C0
F3C0
ENDCHAR
STARTCHAR 1EA7
ENCODING 7847
SWIDTH 600 0
DWIDTH 10 0
BBX 10 13 0 0
BITMAP
8000
C000
6C00
1E00
2300
3E00
3F00
1F00
7F00
6100
6300
7FC0
3DC0
ENDCHAR
STARTCHAR 1EA8
ENCODING 7848
SWIDTH 600 0
DWIDTH 10 0
BBX 10 14 0 0
BITMAP
01C0
1940
7C80
4600
7C00
7E00
1E00
1E00
3300
3300
7F80
7F80
F3C0
F3C0
ENDCHAR
STARTCHAR 1EA9
ENCODING 7849
SWIDTH 600 0
DWIDTH 10 0
BBX 9 13 1 0
BITMAP
0380
0280
1900
3C00
4600
7C00
7E00
3E00
FE00
C200
C600
FF80
7B80
ENDCHAR
STARTCHAR 1EAA
ENCODING 7850
SWIDTH 600 0
DWIDTH 10 0
BBX 10 14 0 0
BITMAP
1900
3F00
2600
0C00
3300
7C00
7E00
1E00
1300
3300
3F80
7F80
F3C0
F3C0
ENDCHAR
STARTCHAR 1EAB
ENCODING 7851
SWIDTH 600 0
DWIDTH 10 0
BBX 9 14 1 0
BITMAP
7A00
7E00
4400
1800
3C00
4600
7C00
7E00
3E00
FE00
C200
C600
FF80
7B80
ENDCHAR
STARTCHAR 1EAC
ENCODING 7852
SWIDTH 600 0
DWIDTH 10 0
BBX 10 16 0 -3
BITMAP
0C00
3E00
2100
7C00
7E00
1E00
1E00
3300
3300
7F80
7F80
F3C0
F3C0
0000
0C00
0C00
ENDCHAR
STARTCHAR 1EAD
ENCODING 7853
SWIDTH 600 0
DWIDTH 10 0
BBX 9 14 1 -3
BITMAP
1800
3C00
4600
7C00
7E00
3E00
FE00
C200
C600
FF80
7B80
0000
1800
1800
ENDCHAR
STARTCHAR 1EAE
ENCODING 7854
SWIDTH 600 0
DWIDTH 10 0
BBX 10 14 0 0
BITMAP
0400
0C00
1800
0000
7E00
3C00
7C00
7E00
1E00
3300
3380
7F80
FFC0
F3C0
ENDCHAR
STARTCHAR 1EAF
ENCODING 7855
SWIDTH 600 0
DWIDTH 10 0
BBX 9 13 1 0
BITMAP
0C00
1800
7E00
3C00
0000
7C00
7E00
3E00
FE00
C200
C600
FF80
7B80
ENDCHAR
STARTCHAR 1EB0
ENCODING 7856
SWIDTH 600 0
DWIDTH 10 0
BBX 10 14 0 0
BITMAP
2000
3000
0800
0000
7E00
3C00
7C00
7E00
1E00
3300
3380
7F80
FFC0
F3C0
ENDCHAR
STARTCHAR 1EB1
ENCODING 7857
SWIDTH 600 0
DWIDTH 10 0
BBX 9 13 1 0
BITMAP
3000
1800
7E00
3C00
0000
7C00
7E00
3E00
FE00
C200
C600
FF80
7B80
ENDCHAR
STARTCHAR 1EB2
ENCODING 7858
SWIDTH 600 0
DWIDTH 10 0
BBX 10 14 0 0
BITMAP
1800
1400
0800
7E00
3C00
7C00
7E00
1E00
1300
3300
3F80
7F80
F3C0
F3C0
ENDCHAR
STARTCHAR 1EB3
ENCODING 7859
SWIDTH 600 0
DWIDTH 10 0
BBX 9 14 1 0
BITMAP
1800
2400
0800
7E00
3C00
0000
7C00
7E00
3E00
FE00
C200
C600
FF80
7B80
ENDCHAR
STARTCHAR 1EB4
ENCODING 7860
SWIDTH 600 0
DWIDTH 10 0
BBX 10 14 0 0
BITMAP
3900
3F00
2600
3F00
1E00
7C00
7E00
1E00
1300
3300
3F80
7F80
F3C0
F3C0
ENDCHAR
STARTCHAR 1EB5
ENCODING 7861
SWIDTH 600 0
DWIDTH 10 0
BBX 9 15 1 0
BITMAP
0200
7E00
7E00
0000
7E00
3C00
0000
7C00
7E00
3E00
FE00
C200
C600
FF80
7B80
ENDCHAR
STARTCHAR 1EB6
ENCODING 7862
SWIDTH 600 0
DWIDTH 10 0
BBX 10 16 0 -3
BITMAP
3F00
0C00
0000
7C00
7E00
1E00
1E00
3300
3300
7F80
7F80
F3C0
F3C0
0000
0C00
0C00
ENDCHAR
STARTCHAR 1EB7
ENCODING 7863
SWIDTH 600 0
DWIDTH 10 0
BBX 9 14 1 -3
BITMAP
7E00
3C00
0000
7C00
7E00
3E00
FE00
C200
C600
FF80
7B80
0000
1800
1800
ENDCHAR
STARTCHAR 1EB8
ENCODING 7864
SWIDTH 600 0
DWIDTH 10 0
BBX 9 13 0 -3
BITMAP
FF80
FF80
2180
2580
3C00
3C00
2480
2080
FF80
FF80
0000
0C00
0400
ENDCHAR
STARTCHAR 1EB9
ENCODING 7865
SWIDTH 600 0
DWIDTH 10 0
BBX 8 11 1 -3
BITMAP
3C
FE
C3
FF
FF
C0
FF
3E
00
18
18
ENDCHAR
STARTCHAR 1EBA
ENCODING 7866
SWIDTH 600 0
DWIDTH 10 0
BBX 9 14 0 0
BITMAP
0C00
0A00
0400
0000
FF80
FF80
2180
2580
3C00
3C00
2480
2080
FF80
FF80
ENDCHAR
STARTCHAR 1EBB
ENCODING 7867
SWIDTH 600 0
DWIDTH 10 0
BBX 8 12 1 0
BITMAP
1C
0C
00
00
3C
FE
C3
FF
FF
C0
FF
3E
ENDCHAR
STARTCHAR 1EBC
ENCODING 7868
SWIDTH 600 0
DWIDTH 10 0
BBX 9 14 0 0
BITMAP
1900
3F00
2600
0000
FF80
FF80
2180
2580
3C00
3C00
2480
2080
FF80
FF80
ENDCHAR
STARTCHAR 1EBD
ENCODING 7869
SWIDTH 600 0
DWIDTH 10 0
BBX 8 11 1 0
BITMAP
7E
7E
04
3C
FE
C3
FF
FF
C0
FF
3E
ENDCHAR
STARTCHAR 1EBE
ENCODING 7870
SWIDTH 600 0
DWIDTH 10 0
BBX 10 13 0 0
BITMAP
18C0
7D80
4300
FF80
FF80
2180
2580
3C00
3C00
2480
2080
FF80
FF80
ENDCHAR
STARTCHAR 1EBF
ENCODING 7871
SWIDTH 600 0
DWIDTH 10 0
BBX 9 13 1 0
BITMAP
0080
0180
1B00
3C00
4600
3C00
FE00
C300
FF00
FF00
C000
FF00
3E00
ENDCHAR
STARTCHAR 1EC0
ENCODING 7872
SWIDTH 600 0
DWIDTH 10 0
BBX 9 13 0 0
BITMAP
C200
6D80
2880
FF80
FF80
2180
2580
3C00
3C00
2480
2080
FF80
FF80
ENDCHAR
STARTCHAR 1EC1
ENCODING 7873
SWIDTH 600 0
DWIDTH 10 0
BBX 9 13 0 0
BITMAP
8000
4000
2C00
1E00
2300
1E00
7F00
6180
7F80
7F80
6000
7F80
1F00
ENDCHAR
STARTCHAR 1EC2
ENCODING 7874
SWIDTH 600 0
DWIDTH 10 0
BBX 10 14 0 0
BITMAP
01C0
1940
3C80
6600
FF80
FF80
2180
2580
3C00
3C00
2480
2080
FF80
FF80
ENDCHAR
STARTCHAR 1EC3
ENCODING 7875
SWIDTH 600 0
DWIDTH 10 0
BBX 9 13 1 0
BITMAP
0380
0280
1900
3C00
4600
3C00
FE00
C300
FF00
FF00
C000
FF00
3E00
ENDCHAR
STARTCHAR 1EC4
ENCODING 7876
SWIDTH 600 0
DWIDTH 10 0
BBX 9 14 0 0
BITMAP
1900
3F00
2600
0C00
3300
FF80
FF80
2580
3C00
3C00
2400
2080
FF80
FF80
ENDCHAR
STARTCHAR 1EC5
ENCODING 7877
SWIDTH 600 0
DWIDTH 10 0
BBX 8 14 1 0
BITMAP
3A
7E
44
18
3C
46
3C
FE
C3
FF
FF
C0
FF
3E
ENDCHAR
STARTCHAR 1EC6
ENCODING 7878
SWIDTH 600 0
DWIDTH 10 0
BBX 9 16 0 -3
BITMAP
0C00
1F00
2100
FF80
FF80
2180
2580
3C00
3C00
2480
2080
FF80
FF80
0000
0C00
0400
ENDCHAR
STARTCHAR 1EC7
ENCODING 7879
SWIDTH 600 0
DWIDTH 10 0
BBX 8 14 1 -3
BITMAP
18
3C
46
3C
FE
C3
FF
FF
C0
FF
3E
00
18
18
ENDCHAR
STARTCHAR 1EC8
ENCODING 7880
SWIDTH 600 0
DWIDTH 10 0
BBX 8 14 1 0
BITMAP
18
24
08
00
FF
7F
18
18
18
18
18
18
FF
7F
ENDCHAR
STARTCHAR 1EC9
ENCODING 7881
SWIDTH 600 0
DWIDTH 10 0
BBX 8 12 1 0
BITMAP
38
28
10
00
78
78
18
18
18
18
FF
FF
ENDCHAR
STARTCHAR 1ECA
ENCODING 7882
SWIDTH 600 0
DWIDTH 10 0
BBX 8 13 1 -3
BITMAP
FF
7F
18
18
18
18
18
18
FF
7F
00
18
18
ENDCHAR
STARTCHAR 1ECB
ENCODING 7883
SWIDTH 600 0
DWIDTH 10 0
BBX 8 14 1 -3
BITMAP
18
18
00
78
78
18
18
18
18
FF
FF
00
18
18
ENDCHAR
STARTCHAR 1ECC
ENCODING 7884
SWIDTH 600 0
DWIDTH 10 0
BBX 10 13 0 -3
BITMAP
1E00
3F80
6180
40C0
C0C0
C0C0
40C0
6180
3F00
1E00
0000
0C00
0C00
ENDCHAR
STARTCHAR 1ECD
ENCODING 7885
SWIDTH 600 0
DWIDTH 10 0
BBX 8 11 1 -3
BITMAP
3C
7F
C3
81
81
C3
7F
3C
00
18
18
ENDCHAR
STARTCHAR 1ECE
ENCODING 7886
SWIDTH 600 0
DWIDTH 10 0
BBX 10 14 0 0
BITMAP
0E00
0A00
0400
0000
1E00
3F80
6180
40C0
C0C0
C0C0
40C0
6180
3F00
1E00
ENDCHAR
STARTCHAR 1ECF
ENCODING 7887
SWIDTH 600 0
DWIDTH 10 0
BBX 8 12 1 0
BITMAP
1C
14
08
00
3C
7F
C3
81
81
C3
7F
3C
ENDCHAR
STARTCHAR 1ED0
ENCODING 7888
SWIDTH 600 0
DWIDTH 10 0
BBX 10 13 0 0
BITMAP
18C0
7D80
4700
1E00
3F80
6180
40C0
C0C0
C0C0
40C0
6180
3F00
1E00
ENDCHAR
STARTCHAR 1ED1
ENCODING 7889
SWIDTH 600 0
DWIDTH 10 0
BBX 9 12 1 0
BITMAP
0180
1B00
3C00
4600
3C00
7F00
C300
8100
8100
C300
7F00
3C00
ENDCHAR
STARTCHAR 1ED2
ENCODING 7890
SWIDTH 600 0
DWIDTH 10 0
BBX 10 13 0 0
BITMAP
C300
6F80
2880
1E00
3F80
6180
40C0
C0C0
C0C0
40C0
6180
3F00
1E00
ENDCHAR
STARTCHAR 1ED3
ENCODING 7891
SWIDTH 600 0
DWIDTH 10 0
BBX 9 13 0 0
BITMAP
8000
C000
2C00
1E00
2300
1E00
3F80
6180
4080
4080
6180
3F80
1E00
ENDCHAR
STARTCHAR 1ED4
ENCODING 7892
SWIDTH 600 0
DWIDTH 10 0
BBX 10 14 0 0
BITMAP
01C0
1940
7C80
4200
1E00
3F80
6180
40C0
C0C0
C0C0
40C0
6180
3F00
1E00
ENDCHAR
STARTCHAR 1ED5
ENCODING 7893
SWIDTH 600 0
DWIDTH 10 0
BBX 9 13 1 0
BITMAP
0380
0280
1900
3C00
4600
3C00
7F00
C300
8100
8100
C300
7F00
3C00
ENDCHAR
STARTCHAR 1ED6
ENCODING 7894
SWIDTH 600 0
DWIDTH 10 0
BBX 10 14 0 0
BITMAP
1980
3F00
2700
0C00
3300
1E00
3F80
6180
C0C0
C0C0
C0C0
6180
3F80
1E00
ENDCHAR
STARTCHAR 1ED7
ENCODING 7895
SWIDTH 600 0
DWIDTH 10 0
BBX 8 14 1 1
BITMAP
7E
7E
00
18
3C
46
3C
7F
C3
81
81
C3
7F
3C
ENDCHAR
STARTCHAR 1ED8
ENCODING 7896
SWIDTH 600 0
DWIDTH 10 0
BBX 10 16 0 -3
BITMAP
0C00
1E00
3300
1E00
3F80
6180
40C0
C0C0
C0C0
40C0
6180
3F00
1E00
0000
0C00
0C00
ENDCHAR
STARTCHAR 1ED9
ENCODING 7897
SWIDTH 600 0
DWIDTH 10 0
BBX 8 14 1 -3
BITMAP
08
3C
66
3C
7F
C3
81
81
C3
7F
3C
00
18
18
ENDCHAR
STARTCHAR 1EDA
ENCODING 7898
SWIDTH 600 0
DWIDTH 10 0
BBX 10 13 0 0
BITMAP
0600
0C00
08C0
1EC0
3FC0
6180
40C0
C0C0
C0C0
40C0
6180
3F00
1E00
ENDCHAR
STARTCHAR 1EDB
ENCODING 7899
SWIDTH 600 0
DWIDTH 10 0
BBX 9 11 1 0
BITMAP
0400
0C00
1800
3D80
7F80
C300
8100
8100
C300
7F00
3C00
ENDCHAR
STARTCHAR 1EDC
ENCODING 7900
SWIDTH 600 0
DWIDTH 10 0
BBX 10 13 0 0
BITMAP
1800
0C00
04C0
1EC0
3FC0
6180
40C0
C0C0
C0C0
40C0
6180
3F00
1E00
ENDCHAR
STARTCHAR 1EDD
ENCODING 7901
SWIDTH 600 0
DWIDTH 10 0
BBX 9 11 1 0
BITMAP
2000
1800
0800
3D80
7F80
C300
8100
8100
C300
7F00
3C00
ENDCHAR
STARTCHAR 1EDE
ENCODING 7902
SWIDTH 600 0
DWIDTH 10 0
BBX 10 14 0 0
BITMAP
0E00
0A00
0400
00C0
1EC0
3FC0
6180
40C0
C0C0
C0C0
40C0
6180
3F00
1E00
ENDCHAR
STARTCHAR 1EDF
ENCODING 7903
SWIDTH 600 0
DWIDTH 10 0
BBX 9 12 1 0
BITMAP
1C00
1400
0800
0000
3D80
7F80
C300
8100
8100
C300
7F00
3C00
ENDCHAR
STARTCHAR 1EE0
ENCODING 7904
SWIDTH 600 0
DWIDTH 10 0
BBX 10 14 0 0
BITMAP
3D00
3F00
2600
00C0
1EC0
3FC0
6180
40C0
C0C0
C0C0
40C0
6180
3F00
1E00
ENDCHAR
STARTCHAR 1EE1
ENCODING 7905
SWIDTH 600 0
DWIDTH 10 0
BBX 9 12 1 0
BITMAP
3200
7E00
4C00
0000
3D80
7F80
C300
8100
8100
C300
7F00
3C00
ENDCHAR
STARTCHAR 1EE2
ENCODING 7906
SWIDTH 600 0
DWIDTH 10 0
BBX 10 14 0 -3
BITMAP
00C0
1EC0
3FC0
6180
40C0
C0C0
C0C0
40C0
6180
3F00
1E00
0000
0C00
0C00
ENDCHAR
STARTCHAR 1EE3
ENCODING 7907
SWIDTH 600 0
DWIDTH 10 0
BBX 9 11 1 -3
BITMAP
3D80
7F80
C300
8100
8100
C300
7F00
3C00
0000
1800
1800
ENDCHAR
STARTCHAR 1EE4
ENCODING 7908
SWIDTH 600 0
DWIDTH 10 0
BBX 10 13 0 -3
BITMAP
FBC0
FBC0
6180
6180
6180
6180
6180
7180
3F00
1E00
0000
0C00
0C00
ENDCHAR
STARTCHAR 1EE5
ENCODING 7909
SWIDTH 600 0
DWIDTH 10 0
BBX 10 11 0 -3
BITMAP
E780
E780
2180
2180
2180
3380
3FC0
1DC0
0000
0C00
0C00
ENDCHAR
STARTCHAR 1EE6
ENCODING 7910
SWIDTH 600 0
DWIDTH 10 0
BBX 10 14 0 0
BITMAP
0C00
0A00
0400
0000
FBC0
FBC0
6180
6180
6180
6180
6180
7180
3F00
1E00
ENDCHAR
STARTCHAR 1EE7
ENCODING 7911
SWIDTH 600 0
DWIDTH 10 0
BBX 10 12 0 0
BITMAP
1C00
1400
0800
0000
E780
E780
2180
2180
2180
3380
3FC0
1DC0
ENDCHAR
STARTCHAR 1EE8
ENCODING 7912
SWIDTH 600 0
DWIDTH 10 0
BBX 10 13 0 0
BITMAP
0600
0C00
08C0
F7C0
F3C0
6180
6180
6180
6180
6180
6380
3F00
1E00
ENDCHAR
STARTCHAR 1EE9
ENCODING 7913
SWIDTH 600 0
DWIDTH 10 0
BBX 10 11 0 0
BITMAP
0600
0C00
08C0
E7C0
E7C0
6100
6100
6100
6300
3F80
1D80
ENDCHAR
STARTCHAR 1EEA
ENCODING 7914
SWIDTH 600 0
DWIDTH 10 0
BBX 10 13 0 0
BITMAP
1800
0C00
04C0
F7C0
F3C0
6180
6180
6180
6180
6180
6380
3F00
1E00
ENDCHAR
STARTCHAR 1EEB
ENCODING 7915
SWIDTH 600 0
DWIDTH 10 0
BBX 10 11 0 0
BITMAP
1000
1800
04C0
E7C0
E7C0
6100
6100
6100
6300
3F80
1D80
ENDCHAR
STARTCHAR 1EEC
ENCODING 7916
SWIDTH 600 0
DWIDTH 10 0
BBX 10 14 0 0
BITMAP
0E00
0A00
0400
00C0
F7C0
F3C0
6180
6180
6180
6180
6180
6380
3F00
1E00
ENDCHAR
STARTCHAR 1EED
ENCODING 7917
SWIDTH 600 0
DWIDTH 10 0
BBX 10 12 0 0
BITMAP
1C00
1400
0800
00C0
E7C0
E7C0
6100
6100
6100
6300
3F80
1D80
ENDCHAR
STARTCHAR 1EEE
ENCODING 7918
SWIDTH 600 0
DWIDTH 10 0
BBX 10 14 0 0
BITMAP
1D00
3F00
2600
00C0
F7C0
F3C0
6180
6180
6180
6180
6180
6380
3F00
1E00
ENDCHAR
STARTCHAR 1EEF
ENCODING 7919
SWIDTH 600 0
DWIDTH 10 0
BBX 10 12 0 0
BITMAP
1900
3F00
2600
00C0
E7C0
E7C0
6100
6100
6100
6300
3F80
1D80
ENDCHAR
STARTCHAR 1EF0
ENCODING 7920
SWIDTH 600 0
DWIDTH 10 0
BBX 10 14 0 -3
BITMAP
00C0
F7C0
F3C0
6180
6180
6180
6180
6180
6380
3F00
1E00
0000
0C00
0C00
ENDCHAR
STARTCHAR 1EF1
ENCODING 7921
SWIDTH 600 0
DWIDTH 10 0
BBX 10 12 0 -3
BITMAP
00C0
E7C0
E7C0
6100
6100
6100
6300
3F80
1D80
0000
0C00
0C00
ENDCHAR
STARTCHAR 1EF2
ENCODING 7922
SWIDTH 600 0
DWIDTH 10 0
BBX 10 13 0 0
BITMAP
1000
0800
0400
F3C0
F3C0
3300
1B00
1E00
0C00
0C00
0C00
3F00
3F00
ENDCHAR
STARTCHAR 1EF3
ENCODING 7923
SWIDTH 600 0
DWIDTH 10 0
BBX 10 14 0 -3
BITMAP
1000
1800
0C00
F3C0
F3C0
6180
3300
1300
1E00
0C00
0C00
1800
FC00
FC00
ENDCHAR
STARTCHAR 1EF4
ENCODING 7924
SWIDTH 600 0
DWIDTH 10 0
BBX 10 13 0 -3
BITMAP
F3C0
F3C0
3300
1B00
1E00
0C00
0C00
0C00
3F00
3F00
0000
0C00
0C00
ENDCHAR
STARTCHAR 1EF5
ENCODING 7925
SWIDTH 600 0
DWIDTH 10 0
BBX 10 11 0 -3
BITMAP
F3C0
F3C0
6180
3300
1300
1E00
0C00
0C00
1800
FC80
FC80
ENDCHAR
STARTCHAR 1EF6
ENCODING 7926
SWIDTH 600 0
DWIDTH 10 0
BBX 10 14 0 0
BITMAP
0C00
0A00
0400
0000
F3C0
F3C0
3300
1B00
1E00
0C00
0C00
0C00
3F00
3F00
ENDCHAR
STARTCHAR 1EF7
ENCODING 7927
SWIDTH 600 0
DWIDTH 10 0
BBX 10 15 0 -3
BITMAP
0E00
0200
0400
0000
F3C0
F3C0
6180
3300
1300
1E00
0C00
0C00
1800
FC00
FC00
ENDCHAR
STARTCHAR 1EF8
ENCODING 7928
SWIDTH 600 0
DWIDTH 10 0
BBX 10 14 0 0
BITMAP
1900
3F00
2600
0000
F3C0
F3C0
3300
1B00
1E00
0C00
0C00
0C00
3F00
3F00
ENDCHAR
STARTCHAR 1EF9
ENCODING 7929
SWIDTH 600 0
DWIDTH 10 0
BBX 10 15 0 -3
BITMAP
1900
3F00
2600
0000
F3C0
F3C0
6180
3300
1300
1E00
0C00
0C00
1800
FC00
FC00
ENDCHAR
STARTCHAR 2000
ENCODING 8192
SWIDTH 600 0
DWIDTH 10 0
BBX 0 0 0 0
BITMAP
ENDCHAR
STARTCHAR 2001
ENCODING 8193
SWIDTH 600 0
DWIDTH 10 0
BBX 0 0 0 0
BITMAP
ENDCHAR
STARTCHAR 2002
ENCODING 8194
SWIDTH 600 0
DWIDTH 10 0
BBX 0 0 0 0
BITMAP
ENDCHAR
STARTCHAR 2003
ENCODING 8195
SWIDTH 600 0
DWIDTH 10 0
BBX 0 0 0 0
BITMAP
ENDCHAR
STARTCHAR 2004
ENCODING 8196
SWIDTH 600 0
DWIDTH 10 0
BBX 0 0 0 0
BITMAP
ENDCHAR
STARTCHAR 2005
ENCODING 8197
SWIDTH 600 0
DWIDTH 10 0
BBX 0 0 0 0
BITMAP
ENDCHAR
STARTCHAR 2006
ENCODING 8198
SWIDTH 600 0
DWIDTH 10 0
BBX 0 0 0 0
BITMAP
ENDCHAR
STARTCHAR 2007
ENCODING 8199
SWIDTH 600 0
DWIDTH 10 0
BBX 0 0 0 0
BITMAP
ENDCHAR
STARTCHAR 2008
ENCODING 8200
SWIDTH 600 0
DWIDTH 10 0
BBX 0 0 0 0
BITMAP
ENDCHAR
STARTCHAR 2009
ENCODING 8201
SWIDTH 600 0
DWIDTH 10 0
BBX 0 0 0 0
BITMAP
ENDCHAR
STARTCHAR 200A
ENCODING 8202
SWIDTH 600 0
DWIDTH 10 0
BBX 0 0 0 0
BITMAP
ENDCHAR
STARTCHAR 200B
ENCODING 8203
SWIDTH 600 0
DWIDTH 10 0
BBX 0 0 0 0
BITMAP
ENDCHAR
STARTCHAR 200C
ENCODING 8204
SWIDTH 0 0
DWIDTH 0 0
BBX 0 0 0 0
BITMAP
ENDCHAR
STARTCHAR 200D
ENCODING 8205
SWIDTH 0 0
DWIDTH 0 0
BBX 0 0 0 0
BITMAP
ENDCHAR
STARTCHAR 200E
ENCODING 8206
SWIDTH 0 0
DWIDTH 0 0
BBX 0 0 0 0
BITMAP
ENDCHAR
STARTCHAR 200F
ENCODING 8207
SWIDTH 0 0
DWIDTH 0 0
BBX 0 0 0 0
BITMAP
ENDCHAR
STARTCHAR 2010
ENCODING 8208
SWIDTH 600 0
DWIDTH 10 0
BBX 8 2 1 4
BITMAP
FF
FF
ENDCHAR
STARTCHAR 2011
ENCODING 8209
SWIDTH 600 0
DWIDTH 10 0
BBX 8 2 1 4
BITMAP
FF
FF
ENDCHAR
STARTCHAR 2012
ENCODING 8210
SWIDTH 600 0
DWIDTH 10 0
BBX 8 2 1 4
BITMAP
FF
FF
ENDCHAR
STARTCHAR 2013
ENCODING 8211
SWIDTH 600 0
DWIDTH 10 0
BBX 8 2 1 4
BITMAP
FF
FF
ENDCHAR
STARTCHAR 2014
ENCODING 8212
SWIDTH 600 0
DWIDTH 10 0
BBX 10 2 0 4
BITMAP
FFC0
FFC0
ENDCHAR
STARTCHAR 2015
ENCODING 8213
SWIDTH 600 0
DWIDTH 10 0
BBX 10 2 0 4
BITMAP
FFC0
FFC0
ENDCHAR
STARTCHAR 2016
ENCODING 8214
SWIDTH 600 0
DWIDTH 10 0
BBX 5 10 2 0
BITMAP
48
D8
D8
D8
D8
D8
D8
D8
D8
D8
ENDCHAR
STARTCHAR 2017
ENCODING 8215
SWIDTH 600 0
DWIDTH 10 0
BBX 10 3 0 -3
BITMAP
FFC0
FFC0
FFC0
ENDCHAR
STARTCHAR 2018
ENCODING 8216
SWIDTH 600 0
DWIDTH 10 0
BBX 3 5 5 6
BITMAP
20
40
40
C0
C0
ENDCHAR
STARTCHAR 2019
ENCODING 8217
SWIDTH 600 0
DWIDTH 10 0
BBX 2 5 3 6
BITMAP
C0
C0
C0
80
80
ENDCHAR
STARTCHAR 201A
ENCODING 8218
SWIDTH 600 0
DWIDTH 10 0
BBX 3 5 3 -3
BITMAP
60
60
40
40
80
ENDCHAR
STARTCHAR 201B
ENCODING 8219
SWIDTH 600 0
DWIDTH 10 0
BBX 3 5 5 6
BITMAP
C0
C0
40
40
20
ENDCHAR
STARTCHAR 201C
ENCODING 8220
SWIDTH 600 0
DWIDTH 10 0
BBX 7 5 2 6
BITMAP
22
44
44
CC
CC
ENDCHAR
STARTCHAR 201D
ENCODING 8221
SWIDTH 600 0
DWIDTH 10 0
BBX 7 5 1 6
BITMAP
66
66
44
44
88
ENDCHAR
STARTCHAR 201E
ENCODING 8222
SWIDTH 600 0
DWIDTH 10 0
BBX 7 5 1 -3
BITMAP
66
66
44
44
88
ENDCHAR
STARTCHAR 201F
ENCODING 8223
SWIDTH 600 0
DWIDTH 10 0
BBX 7 5 2 6
BITMAP
CC
CC
44
44
22
ENDCHAR
STARTCHAR 2020
ENCODING 8224
SWIDTH 600 0
DWIDTH 10 0
BBX 7 11 2 -1
BITMAP
30
30
FE
FE
30
30
30
30
30
30
30
ENDCHAR
STARTCHAR 2021
ENCODING 8225
SWIDTH 600 0
DWIDTH 10 0
BBX 7 10 2 0
BITMAP
30
30
FE
FE
30
30
FE
FE
30
30
ENDCHAR
STARTCHAR 2022
ENCODING 8226
SWIDTH 600 0
DWIDTH 10 0
BBX 5 5 3 3
BITMAP
70
F0
F8
F0
70
ENDCHAR
STARTCHAR 2023
ENCODING 8227
SWIDTH 600 0
DWIDTH 10 0
BBX 5 5 3 2
BITMAP
80
E0
F8
E0
80
ENDCHAR
STARTCHAR 2024
ENCODING 8228
SWIDTH 600 0
DWIDTH 10 0
BBX 2 2 4 0
BITMAP
C0
C0
ENDCHAR
STARTCHAR 2025
ENCODING 8229
SWIDTH 600 0
DWIDTH 10 0
BBX 6 2 2 0
BITMAP
CC
CC
ENDCHAR
STARTCHAR 2026
ENCODING 8230
SWIDTH 600 0
DWIDTH 10 0
BBX 9 2 1 0
BITMAP
DB80
DB80
ENDCHAR
STARTCHAR 2027
ENCODING 8231
SWIDTH 600 0
DWIDTH 10 0
BBX 2 2 4 3
BITMAP
C0
C0
ENDCHAR
STARTCHAR 2028
ENCODING 8232
SWIDTH 600 0
DWIDTH 10 0
BBX 0 0 0 0
BITMAP
ENDCHAR
STARTCHAR 2029
ENCODING 8233
SWIDTH 600 0
DWIDTH 10 0
BBX 0 0 0 0
BITMAP
ENDCHAR
STARTCHAR 202A
ENCODING 8234
SWIDTH 600 0
DWIDTH 10 0
BBX 0 0 0 0
BITMAP
ENDCHAR
STARTCHAR 202B
ENCODING 8235
SWIDTH 600 0
DWIDTH 10 0
BBX 0 0 0 0
BITMAP
ENDCHAR
STARTCHAR 202C
ENCODING 8236
SWIDTH 600 0
DWIDTH 10 0
BBX 0 0 0 0
BITMAP
ENDCHAR
STARTCHAR 202D
ENCODING 8237
SWIDTH 600 0
DWIDTH 10 0
BBX 0 0 0 0
BITMAP
ENDCHAR
STARTCHAR 202E
ENCODING 8238
SWIDTH 600 0
DWIDTH 10 0
BBX 0 0 0 0
BITMAP
ENDCHAR
STARTCHAR 202F
ENCODING 8239
SWIDTH 600 0
DWIDTH 10 0
BBX 0 0 0 0
BITMAP
ENDCHAR
STARTCHAR 2030
ENCODING 8240
SWIDTH 600 0
DWIDTH 10 0
BBX 10 11 0 0
BITMAP
6000
9000
9000
6000
0700
3800
4000
39C0
2E40
2E40
39C0
ENDCHAR
STARTCHAR 2031
ENCODING 8241
SWIDTH 600 0
DWIDTH 10 0
BBX 10 11 0 0
BITMAP
7000
5000
5000
7000
0700
3800
4000
6D80
9240
9240
6D80
ENDCHAR
STARTCHAR 2032
ENCODING 8242
SWIDTH 600 0
DWIDTH 10 0
BBX 3 5 3 6
BITMAP
60
C0
C0
80
80
ENDCHAR
STARTCHAR 2033
ENCODING 8243
SWIDTH 600 0
DWIDTH 10 0
BBX 6 5 2 6
BITMAP
6C
D8
D8
90
90
ENDCHAR
STARTCHAR 2034
ENCODING 8244
SWIDTH 600 0
DWIDTH 10 0
BBX 9 5 1 6
BITMAP
6D80
DB00
DB00
9200
9200
ENDCHAR
STARTCHAR 2035
ENCODING 8245
SWIDTH 600 0
DWIDTH 10 0
BBX 3 5 3 6
BITMAP
C0
C0
40
60
20
ENDCHAR
STARTCHAR 2036
ENCODING 8246
SWIDTH 600 0
DWIDTH 10 0
BBX 6 5 2 6
BITMAP
D8
D8
48
6C
24
ENDCHAR
STARTCHAR 2037
ENCODING 8247
SWIDTH 600 0
DWIDTH 10 0
BBX 9 5 1 6
BITMAP
DB00
DB00
4900
6D80
2480
ENDCHAR
STARTCHAR 2038
ENCODING 8248
SWIDTH 600 0
DWIDTH 10 0
BBX 6 3 2 -3
BITMAP
30
78
CC
ENDCHAR
STARTCHAR 2039
ENCODING 8249
SWIDTH 600 0
DWIDTH 10 0
BBX 5 7 1 0
BITMAP
18
30
60
C0
60
10
08
ENDCHAR
STARTCHAR 203A
ENCODING 8250
SWIDTH 600 0
DWIDTH 10 0
BBX 5 6 4 0
BITMAP
C0
60
38
18
30
60
ENDCHAR
STARTCHAR 203B
ENCODING 8251
SWIDTH 600 0
DWIDTH 10 0
BBX 8 9 1 0
BITMAP
18
5B
66
DF
DB
34
66
5B
18
ENDCHAR
STARTCHAR 203C
ENCODING 8252
SWIDTH 600 0
DWIDTH 10 0
BBX 6 11 2 0
BITMAP
CC
CC
CC
CC
CC
CC
CC
CC
00
CC
CC
ENDCHAR
STARTCHAR 203D
ENCODING 8253
SWIDTH 600 0
DWIDTH 10 0
BBX 7 11 2 -1
BITMAP
78
FC
94
B6
34
3C
30
10
00
30
30
ENDCHAR
STARTCHAR 203E
ENCODING 8254
SWIDTH 600 0
DWIDTH 10 0
BBX 10 2 0 11
BITMAP
FFC0
FFC0
ENDCHAR
STARTCHAR 203F
ENCODING 8255
SWIDTH 600 0
DWIDTH 10 0
BBX 8 3 1 -3
BITMAP
C3
7F
3C
ENDCHAR
STARTCHAR 2040
ENCODING 8256
SWIDTH 600 0
DWIDTH 10 0
BBX 8 2 1 9
BITMAP
7E
FF
ENDCHAR
STARTCHAR 2041
ENCODING 8257
SWIDTH 600 0
DWIDTH 10 0
BBX 4 8 3 -3
BITMAP
10
10
20
20
60
70
D0
90
ENDCHAR
STARTCHAR 2042
ENCODING 8258
SWIDTH 600 0
DWIDTH 10 0
BBX 16 12 -3 1
BITMAP
0180
0180
0FF0
03C0
03C0
0260
1818
1818
FFFF
3C3C
3C3C
2626
ENDCHAR
STARTCHAR 2043
ENCODING 8259
SWIDTH 600 0
DWIDTH 10 0
BBX 8 8 1 0
BITMAP
08
5A
3C
FF
FF
3C
7E
18
ENDCHAR
STARTCHAR 2044
ENCODING 8260
SWIDTH 600 0
DWIDTH 10 0
BBX 10 6 0 3
BITMAP
01C0
0380
0E00
1C00
7000
E000
ENDCHAR
STARTCHAR 2045
ENCODING 8261
SWIDTH 600 0
DWIDTH 10 0
BBX 3 14 4 -3
BITMAP
60
E0
C0
C0
C0
C0
E0
E0
C0
C0
C0
C0
E0
60
ENDCHAR
STARTCHAR 2046
ENCODING 8262
SWIDTH 600 0
DWIDTH 10 0
BBX 3 14 3 -3
BITMAP
C0
E0
60
60
60
60
E0
E0
60
60
60
60
E0
C0
ENDCHAR
STARTCHAR 2047
ENCODING 8263
SWIDTH 600 0
DWIDTH 10 0
BBX 10 12 0 -1
BITMAP
7380
FFC0
DE40
9A40
1840
38C0
6180
6100
0000
6300
6380
6300
ENDCHAR
STARTCHAR 2048
ENCODING 8264
SWIDTH 600 0
DWIDTH 10 0
BBX 10 11 0 0
BITMAP
00C0
7CC0
FEC0
C6C0
06C0
0EC0
1CC0
10C0
0000
38C0
38C0
ENDCHAR
STARTCHAR 2049
ENCODING 8265
SWIDTH 600 0
DWIDTH 10 0
BBX 10 11 0 0
BITMAP
C000
EF80
FFC0
C8C0
C040
C0C0
C380
4300
0000
C300
C300
ENDCHAR
STARTCHAR 204A
ENCODING 8266
SWIDTH 600 0
DWIDTH 10 0
BBX 8 7 1 1
BITMAP
FF
FF
C2
06
04
0C
08
ENDCHAR
STARTCHAR 204B
ENCODING 8267
SWIDTH 600 0
DWIDTH 10 0
BBX 8 13 1 -3
BITMAP
FE
FF
7B
79
79
7F
7C
78
78
78
78
FE
FE
ENDCHAR
STARTCHAR 204C
ENCODING 8268
SWIDTH 600 0
DWIDTH 10 0
BBX 8 7 1 2
BITMAP
3F
7F
FA
FA
FA
7F
3F
ENDCHAR
STARTCHAR 204D
ENCODING 8269
SWIDTH 600 0
DWIDTH 10 0
BBX 8 7 1 1
BITMAP
FC
FE
5F
5F
5F
FE
FC
ENDCHAR
STARTCHAR 204E
ENCODING 8270
SWIDTH 600 0
DWIDTH 10 0
BBX 8 6 1 1
BITMAP
18
18
FF
3C
3C
26
ENDCHAR
STARTCHAR 204F
ENCODING 8271
SWIDTH 600 0
DWIDTH 10 0
BBX 3 9 3 -2
BITMAP
C0
C0
00
00
00
C0
40
60
20
ENDCHAR
STARTCHAR 2050
ENCODING 8272
SWIDTH 600 0
DWIDTH 10 0
BBX 8 11 1 0
BITMAP
7E
FF
00
00
00
00
00
00
C3
7F
3C
ENDCHAR
STARTCHAR 2051
ENCODING 8273
SWIDTH 600 0
DWIDTH 10 0
BBX 8 13 1 1
BITMAP
18
18
FF
3C
3C
26
00
18
18
FF
3C
3C
26
ENDCHAR
STARTCHAR 2052
ENCODING 8274
SWIDTH 600 0
DWIDTH 10 0
BBX 8 14 1 0
BITMAP
C3
C3
06
06
0C
0C
18
18
30
30
20
60
43
43
ENDCHAR
STARTCHAR 2053
ENCODING 8275
SWIDTH 600 0
DWIDTH 10 0
BBX 6 3 2 3
BITMAP
64
FC
98
ENDCHAR
STARTCHAR 2054
ENCODING 8276
SWIDTH 600 0
DWIDTH 10 0
BBX 8 2 1 -2
BITMAP
7E
FF
ENDCHAR
STARTCHAR 2055
ENCODING 8277
SWIDTH 600 0
DWIDTH 10 0
BBX 8 2 1 4
BITMAP
FF
FF
ENDCHAR
STARTCHAR 2056
ENCODING 8278
SWIDTH 600 0
DWIDTH 10 0
BBX 6 10 2 0
BITMAP
0C
0C
00
00
C0
C0
00
00
0C
0C
ENDCHAR
STARTCHAR 2057
ENCODING 8279
SWIDTH 600 0
DWIDTH 10 0
BBX 12 5 0 6
BITMAP
6DB0
DB60
DB60
9240
9240
ENDCHAR
STARTCHAR 2058
ENCODING 8280
SWIDTH 600 0
DWIDTH 10 0
BBX 10 12 0 0
BITMAP
0C00
0C00
0000
0000
0000
C0C0
C0C0
0000
0000
0000
0C00
0C00
ENDCHAR
STARTCHAR 2059
ENCODING 8281
SWIDTH 600 0
DWIDTH 10 0
BBX 10 10 0 0
BITMAP
C0C0
C0C0
0000
0000
0C00
0C00
0000
0000
C0C0
C0C0
ENDCHAR
STARTCHAR 205A
ENCODING 8282
SWIDTH 600 0
DWIDTH 10 0
BBX 2 13 4 0
BITMAP
C0
C0
00
00
00
00
00
00
00
00
00
C0
C0
ENDCHAR
STARTCHAR 205B
ENCODING 8283
SWIDTH 600 0
DWIDTH 10 0
BBX 10 17 0 -3
BITMAP
0C00
0C00
0000
0000
0000
0000
0000
C0C0
C0C0
0000
0000
0000
0000
0000
0000
0C00
0C00
ENDCHAR
STARTCHAR 205C
ENCODING 8284
SWIDTH 600 0
DWIDTH 10 0
BBX 8 9 1 0
BITMAP
DB
DB
18
FF
FF
18
DB
DB
18
ENDCHAR
STARTCHAR 205D
ENCODING 8285
SWIDTH 600 0
DWIDTH 10 0
BBX 2 13 4 0
BITMAP
C0
C0
00
00
00
C0
C0
00
00
00
00
C0
C0
ENDCHAR
STARTCHAR 205E
ENCODING 8286
SWIDTH 600 0
DWIDTH 10 0
BBX 2 13 4 0
BITMAP
C0
C0
00
C0
C0
00
00
C0
C0
00
00
C0
C0
ENDCHAR
STARTCHAR 205F
ENCODING 8287
SWIDTH 600 0
DWIDTH 10 0
BBX 0 0 0 0
BITMAP
ENDCHAR
STARTCHAR 2060
ENCODING 8288
SWIDTH 600 0
DWIDTH 10 0
BBX 0 0 0 0
BITMAP
ENDCHAR
STARTCHAR 2061
ENCODING 8289
SWIDTH 600 0
DWIDTH 10 0
BBX 0 0 0 0
BITMAP
ENDCHAR
STARTCHAR 2062
ENCODING 8290
SWIDTH 600 0
DWIDTH 10 0
BBX 0 0 0 0
BITMAP
ENDCHAR
STARTCHAR 2063
ENCODING 8291
SWIDTH 600 0
DWIDTH 10 0
BBX 0 0 0 0
BITMAP
ENDCHAR
STARTCHAR 2064
ENCODING 8292
SWIDTH 600 0
DWIDTH 10 0
BBX 0 0 0 0
BITMAP
ENDCHAR
STARTCHAR 2070
ENCODING 8304
SWIDTH 600 0
DWIDTH 10 0
BBX 4 6 3 7
BITMAP
70
90
90
90
90
70
ENDCHAR
STARTCHAR 2071
ENCODING 8305
SWIDTH 600 0
DWIDTH 10 0
BBX 4 8 3 6
BITMAP
60
60
00
E0
20
20
20
F0
ENDCHAR
STARTCHAR 2074
ENCODING 8308
SWIDTH 600 0
DWIDTH 10 0
BBX 5 6 2 7
BITMAP
10
30
70
50
F8
38
ENDCHAR
STARTCHAR 2075
ENCODING 8309
SWIDTH 600 0
DWIDTH 10 0
BBX 4 7 3 6
BITMAP
F0
80
E0
90
10
10
F0
ENDCHAR
STARTCHAR 2076
ENCODING 8310
SWIDTH 600 0
DWIDTH 10 0
BBX 4 8 3 6
BITMAP
30
70
C0
80
F0
90
90
70
ENDCHAR
STARTCHAR 2077
ENCODING 8311
SWIDTH 600 0
DWIDTH 10 0
BBX 4 6 3 7
BITMAP
F0
90
10
20
20
20
ENDCHAR
STARTCHAR 2078
ENCODING 8312
SWIDTH 600 0
DWIDTH 10 0
BBX 4 6 3 7
BITMAP
F0
90
F0
F0
90
F0
ENDCHAR
STARTCHAR 2079
ENCODING 8313
SWIDTH 600 0
DWIDTH 10 0
BBX 4 7 3 6
BITMAP
E0
90
90
F0
30
F0
E0
ENDCHAR
STARTCHAR 207A
ENCODING 8314
SWIDTH 600 0
DWIDTH 10 0
BBX 4 3 3 8
BITMAP
20
F0
20
ENDCHAR
STARTCHAR 207B
ENCODING 8315
SWIDTH 600 0
DWIDTH 10 0
BBX 4 1 3 9
BITMAP
F0
ENDCHAR
STARTCHAR 207C
ENCODING 8316
SWIDTH 600 0
DWIDTH 10 0
BBX 4 2 3 9
BITMAP
F0
F0
ENDCHAR
STARTCHAR 207D
ENCODING 8317
SWIDTH 600 0
DWIDTH 10 0
BBX 2 7 4 6
BITMAP
40
40
C0
C0
C0
40
40
ENDCHAR
STARTCHAR 207E
ENCODING 8318
SWIDTH 600 0
DWIDTH 10 0
BBX 2 7 4 6
BITMAP
80
80
C0
C0
C0
80
80
ENDCHAR
STARTCHAR 207F
ENCODING 8319
SWIDTH 600 0
DWIDTH 10 0
BBX 6 5 2 6
BITMAP
F8
48
48
48
EC
ENDCHAR
STARTCHAR 2080
ENCODING 8320
SWIDTH 600 0
DWIDTH 10 0
BBX 4 6 3 -2
BITMAP
60
90
90
90
90
F0
ENDCHAR
STARTCHAR 2081
ENCODING 8321
SWIDTH 600 0
DWIDTH 10 0
BBX 4 6 3 -2
BITMAP
E0
20
20
20
20
F0
ENDCHAR
STARTCHAR 2082
ENCODING 8322
SWIDTH 600 0
DWIDTH 10 0
BBX 4 6 3 -2
BITMAP
F0
90
10
20
50
F0
ENDCHAR
STARTCHAR 2083
ENCODING 8323
SWIDTH 600 0
DWIDTH 10 0
BBX 4 6 3 -2
BITMAP
F0
10
10
70
10
F0
ENDCHAR
STARTCHAR 2084
ENCODING 8324
SWIDTH 600 0
DWIDTH 10 0
BBX 5 6 2 -2
BITMAP
10
30
70
50
F8
38
ENDCHAR
STARTCHAR 2085
ENCODING 8325
SWIDTH 600 0
DWIDTH 10 0
BBX 4 7 3 -3
BITMAP
F0
80
E0
90
10
10
F0
ENDCHAR
STARTCHAR 2086
ENCODING 8326
SWIDTH 600 0
DWIDTH 10 0
BBX 4 8 3 -3
BITMAP
30
70
C0
80
E0
90
90
70
ENDCHAR
STARTCHAR 2087
ENCODING 8327
SWIDTH 600 0
DWIDTH 10 0
BBX 4 6 3 -2
BITMAP
F0
90
10
20
20
20
ENDCHAR
STARTCHAR 2088
ENCODING 8328
SWIDTH 600 0
DWIDTH 10 0
BBX 4 6 3 -2
BITMAP
70
90
F0
F0
90
F0
ENDCHAR
STARTCHAR 2089
ENCODING 8329
SWIDTH 600 0
DWIDTH 10 0
BBX 4 7 3 -3
BITMAP
E0
90
90
F0
30
F0
E0
ENDCHAR
STARTCHAR 208A
ENCODING 8330
SWIDTH 600 0
DWIDTH 10 0
BBX 4 3 3 -1
BITMAP
20
F0
20
ENDCHAR
STARTCHAR 208B
ENCODING 8331
SWIDTH 600 0
DWIDTH 10 0
BBX 4 1 3 0
BITMAP
F0
ENDCHAR
STARTCHAR 208C
ENCODING 8332
SWIDTH 600 0
DWIDTH 10 0
BBX 4 2 3 -1
BITMAP
F0
F0
ENDCHAR
STARTCHAR 208D
ENCODING 8333
SWIDTH 600 0
DWIDTH 10 0
BBX 2 7 4 -3
BITMAP
40
40
C0
C0
C0
40
40
ENDCHAR
STARTCHAR 208E
ENCODING 8334
SWIDTH 600 0
DWIDTH 10 0
BBX 2 7 4 -3
BITMAP
80
80
C0
C0
C0
80
80
ENDCHAR
STARTCHAR 2090
ENCODING 8336
SWIDTH 600 0
DWIDTH 10 0
BBX 6 7 2 -3
BITMAP
78
78
78
F8
C8
FC
7C
ENDCHAR
STARTCHAR 2091
ENCODING 8337
SWIDTH 600 0
DWIDTH 10 0
BBX 6 7 2 -3
BITMAP
30
78
CC
FC
FC
FC
78
ENDCHAR
STARTCHAR 2092
ENCODING 8338
SWIDTH 600 0
DWIDTH 10 0
BBX 6 7 2 -3
BITMAP
38
7C
CC
84
CC
7C
38
ENDCHAR
STARTCHAR 2093
ENCODING 8339
SWIDTH 600 0
DWIDTH 10 0
BBX 6 5 2 -3
BITMAP
FC
78
30
78
FC
ENDCHAR
STARTCHAR 2094
ENCODING 8340
SWIDTH 600 0
DWIDTH 10 0
BBX 6 7 2 -4
BITMAP
78
FC
FC
FC
CC
78
30
ENDCHAR
STARTCHAR 20A3
ENCODING 8355
SWIDTH 600 0
DWIDTH 10 0
BBX 9 10 0 0
BITMAP
FF80
FF80
2080
2080
FC00
2000
FC00
2000
FC00
FC00
ENDCHAR
STARTCHAR 20A4
ENCODING 8356
SWIDTH 600 0
DWIDTH 10 0
BBX 8 10 1 0
BITMAP
3C
7E
60
60
F8
20
F8
20
FF
FF
ENDCHAR
STARTCHAR 20A5
ENCODING 8357
SWIDTH 600 0
DWIDTH 10 0
BBX 11 12 0 -2
BITMAP
00C0
0180
F980
FFC0
4EC0
4CC0
5CC0
5CC0
FEE0
EEC0
6000
C000
ENDCHAR
STARTCHAR 20A6
ENCODING 8358
SWIDTH 600 0
DWIDTH 10 0
BBX 10 10 0 0
BITMAP
E3C0
F3C0
FFC0
6D80
FFC0
6780
6780
6380
F980
F980
ENDCHAR
STARTCHAR 20A9
ENCODING 8361
SWIDTH 600 0
DWIDTH 10 0
BBX 10 10 0 0
BITMAP
F3C0
F3C0
FFC0
6E80
FFC0
7F80
7B80
7380
7380
3180
ENDCHAR
STARTCHAR 20AA
ENCODING 8362
SWIDTH 600 0
DWIDTH 10 0
BBX 10 8 0 0
BITMAP
FCC0
FEC0
C6C0
C2C0
DAC0
D8C0
DFC0
DF80
ENDCHAR
STARTCHAR 20AB
ENCODING 8363
SWIDTH 600 0
DWIDTH 10 0
BBX 10 13 0 0
BITMAP
0380
0380
01C0
3DC0
7F80
6380
C180
C180
E380
7FC0
3FC0
3FC0
3FC0
ENDCHAR
STARTCHAR 20AC
ENCODING 8364
SWIDTH 600 0
DWIDTH 10 0
BBX 10 10 0 0
BITMAP
0FC0
3FC0
3080
6080
FE00
FC00
6000
3000
1FC0
0F80
ENDCHAR
STARTCHAR 20AD
ENCODING 8365
SWIDTH 600 0
DWIDTH 10 0
BBX 10 10 0 0
BITMAP
FBC0
FBC0
2700
2C00
FFC0
3600
2300
2300
F9C0
F9C0
ENDCHAR
STARTCHAR 20AE
ENCODING 8366
SWIDTH 600 0
DWIDTH 10 0
BBX 8 10 1 0
BITMAP
FF
FF
9D
1C
7C
1C
38
38
3C
3C
ENDCHAR
STARTCHAR 20B1
ENCODING 8369
SWIDTH 600 0
DWIDTH 10 0
BBX 10 10 0 0
BITMAP
FE00
FF80
FFC0
2180
FFC0
3F00
3E00
2000
FC00
FC00
ENDCHAR
STARTCHAR 20B2
ENCODING 8370
SWIDTH 600 0
DWIDTH 10 0
BBX 9 12 1 -1
BITMAP
0800
3F00
7F00
DB00
D900
9800
9F80
9F80
D900
7F00
3E00
1800
ENDCHAR
STARTCHAR 20B3
ENCODING 8371
SWIDTH 600 0
DWIDTH 10 0
BBX 10 10 0 0
BITMAP
7C00
7E00
FFC0
3300
FFC0
3F00
7F80
6180
F3C0
F3C0
ENDCHAR
STARTCHAR 20B4
ENCODING 8372
SWIDTH 600 0
DWIDTH 10 0
BBX 10 10 0 0
BITMAP
7E00
7F00
6180
0180
FFC0
FFC0
6000
6180
7F80
1E80
ENDCHAR
STARTCHAR 20B5
ENCODING 8373
SWIDTH 600 0
DWIDTH 10 0
BBX 8 12 1 -1
BITMAP
08
3F
7F
CB
CB
C8
C8
C8
C9
7F
3E
08
ENDCHAR
STARTCHAR 20B8
ENCODING 8376
SWIDTH 600 0
DWIDTH 10 0
BBX 8 10 1 0
BITMAP
FF
00
FF
FF
99
99
18
18
7E
7E
ENDCHAR
STARTCHAR 20B9
ENCODING 8377
SWIDTH 600 0
DWIDTH 10 0
BBX 8 10 1 0
BITMAP
FF
FF
FF
FF
4C
78
30
10
18
0C
ENDCHAR
STARTCHAR 2100
ENCODING 8448
SWIDTH 600 0
DWIDTH 10 0
BBX 10 14 0 0
BITMAP
1C00
3E00
0200
7C00
7E40
7FC0
0700
0C00
3FC0
6FC0
9880
1800
1F80
0F00
ENDCHAR
STARTCHAR 2101
ENCODING 8449
SWIDTH 600 0
DWIDTH 10 0
BBX 10 14 0 0
BITMAP
3C00
3E00
0600
7C00
7E40
7FC0
0700
0C00
3F80
EF80
8C80
0B80
1F80
1F00
ENDCHAR
STARTCHAR 2103
ENCODING 8451
SWIDTH 600 0
DWIDTH 10 0
BBX 10 13 0 0
BITMAP
6000
A000
A000
6E40
1FC0
30C0
30C0
2000
2000
2000
3000
1FC0
0F80
ENDCHAR
STARTCHAR 2105
ENCODING 8453
SWIDTH 600 0
DWIDTH 10 0
BBX 10 14 0 0
BITMAP
7000
FC00
8C00
8000
CDC0
7B80
0E00
1C00
7700
EF80
08C0
0840
0D80
0700
ENDCHAR
STARTCHAR 2106
ENCODING 8454
SWIDTH 600 0
DWIDTH 10 0
BBX 11 14 0 0
BITMAP
7000
FC00
8C00
8000
CDC0
7B80
0E00
1C00
7CC0
ECC0
0440
0440
06C0
03E0
ENDCHAR
STARTCHAR 2107
ENCODING 8455
SWIDTH 600 0
DWIDTH 10 0
BBX 8 10 1 0
BITMAP
3F
7F
C3
C0
7C
7C
C0
C3
FF
3D
ENDCHAR
STARTCHAR 2109
ENCODING 8457
SWIDTH 600 0
DWIDTH 10 0
BBX 10 13 0 0
BITMAP
6000
A000
A000
7FC0
1FC0
08C0
0B40
0F00
0F00
0B00
0800
1F00
1F00
ENDCHAR
STARTCHAR 210E
ENCODING 8462
SWIDTH 600 0
DWIDTH 10 0
BBX 9 11 1 0
BITMAP
7000
7000
3000
3700
3F80
3180
2180
6100
6300
F780
F780
ENDCHAR
STARTCHAR 2111
ENCODING 8465
SWIDTH 600 0
DWIDTH 10 0
BBX 8 11 1 -1
BITMAP
7F
FF
C6
04
04
06
06
06
26
3E
1C
ENDCHAR
STARTCHAR 2112
ENCODING 8466
SWIDTH 600 0
DWIDTH 10 0
BBX 8 10 1 0
BITMAP
3C
7E
60
60
60
30
30
20
FF
FF
ENDCHAR
STARTCHAR 2113
ENCODING 8467
SWIDTH 600 0
DWIDTH 10 0
BBX 9 13 1 -1
BITMAP
0300
0780
0D00
0F00
1E00
1C00
3800
7000
E000
6000
4C00
7800
7000
ENDCHAR
STARTCHAR 2116
ENCODING 8470
SWIDTH 600 0
DWIDTH 10 0
BBX 10 10 0 0
BITMAP
F3C0
F3C0
32C0
3B40
3B40
3EC0
3EC0
B6C0
B600
E200
ENDCHAR
STARTCHAR 2118
ENCODING 8472
SWIDTH 600 0
DWIDTH 10 0
BBX 10 12 0 -3
BITMAP
0700
0F80
1980
F0C0
70C0
60C0
6080
7980
5F80
D700
7000
7000
ENDCHAR
STARTCHAR 211C
ENCODING 8476
SWIDTH 600 0
DWIDTH 10 0
BBX 10 11 0 0
BITMAP
7200
FF00
DB00
5900
5F00
1E00
1E00
1B00
1B40
F1C0
7100
ENDCHAR
STARTCHAR 2120
ENCODING 8480
SWIDTH 600 0
DWIDTH 10 0
BBX 12 6 -1 4
BITMAP
7B60
7B60
63E0
7AA0
FB70
FB60
ENDCHAR
STARTCHAR 2121
ENCODING 8481
SWIDTH 600 0
DWIDTH 10 0
BBX 10 9 0 0
BITMAP
F000
F000
6F80
6B00
6D00
6D00
6D00
6B40
6FC0
ENDCHAR
STARTCHAR 2122
ENCODING 8482
SWIDTH 600 0
DWIDTH 10 0
BBX 11 6 -1 4
BITMAP
FB60
FB60
FB60
32A0
7B60
7B60
ENDCHAR
STARTCHAR 2126
ENCODING 8486
SWIDTH 600 0
DWIDTH 10 0
BBX 9 10 1 0
BITMAP
3C00
7F00
C300
8100
8180
C100
C300
BF80
FF80
FF80
ENDCHAR
STARTCHAR 2127
ENCODING 8487
SWIDTH 600 0
DWIDTH 10 0
BBX 9 10 1 0
BITMAP
FF80
FF80
BF80
C300
C100
8180
8100
C300
7F00
3C00
ENDCHAR
STARTCHAR 2129
ENCODING 8489
SWIDTH 600 0
DWIDTH 10 0
BBX 8 8 2 -1
BITMAP
F0
F8
18
08
08
08
0F
0E
ENDCHAR
STARTCHAR 212A
ENCODING 8490
SWIDTH 600 0
DWIDTH 10 0
BBX 10 10 0 0
BITMAP
FBC0
FBC0
2300
2E00
3C00
3E00
2300
2300
F9C0
F9C0
ENDCHAR
STARTCHAR 212B
ENCODING 8491
SWIDTH 600 0
DWIDTH 10 0
BBX 10 13 0 0
BITMAP
0C00
1600
0C00
7C00
7E00
1E00
1E00
3300
3300
7F80
7F80
F3C0
F3C0
ENDCHAR
STARTCHAR 212E
ENCODING 8494
SWIDTH 600 0
DWIDTH 10 0
BBX 8 8 1 0
BITMAP
3C
FE
C3
FF
FF
C0
FF
3E
ENDCHAR
STARTCHAR 2132
ENCODING 8498
SWIDTH 600 0
DWIDTH 10 0
BBX 9 10 1 0
BITMAP
1F80
1F80
0200
1200
1E00
1E00
9200
8200
FF80
FF80
ENDCHAR
STARTCHAR 2135
ENCODING 8501
SWIDTH 600 0
DWIDTH 10 0
BBX 8 8 1 0
BITMAP
C3
E3
73
7B
DE
CE
E7
E3
ENDCHAR
STARTCHAR 2136
ENCODING 8502
SWIDTH 600 0
DWIDTH 10 0
BBX 8 8 1 0
BITMAP
FC
FC
06
06
06
06
FF
FF
ENDCHAR
STARTCHAR 2137
ENCODING 8503
SWIDTH 600 0
DWIDTH 10 0
BBX 6 8 2 0
BITMAP
70
78
0C
0C
0C
7C
EC
CC
ENDCHAR
STARTCHAR 2138
ENCODING 8504
SWIDTH 600 0
DWIDTH 10 0
BBX 8 8 1 0
BITMAP
FF
FF
06
06
06
06
06
06
ENDCHAR
STARTCHAR 213A
ENCODING 8506
SWIDTH 600 0
DWIDTH 10 0
BBX 12 10 -1 -1
BITMAP
1E20
3F30
61B0
C0F0
C0F0
C0F0
C0F0
6190
3F00
0C00
ENDCHAR
STARTCHAR 213B
ENCODING 8507
SWIDTH 600 0
DWIDTH 10 0
BBX 11 9 0 0
BITMAP
E000
A000
B9E0
F8C0
B4C0
9480
9CC0
94C0
F7E0
ENDCHAR
STARTCHAR 2141
ENCODING 8513
SWIDTH 600 0
DWIDTH 10 0
BBX 9 10 0 0
BITMAP
3E00
7F00
4180
F880
F880
0080
4180
6180
7F00
7E00
ENDCHAR
STARTCHAR 2142
ENCODING 8514
SWIDTH 600 0
DWIDTH 10 0
BBX 9 10 0 0
BITMAP
FF80
FF80
C200
C200
0200
0200
0200
0200
0F80
0F80
ENDCHAR
STARTCHAR 2143
ENCODING 8515
SWIDTH 600 0
DWIDTH 10 0
BBX 10 10 0 0
BITMAP
0FC0
0F80
0200
0200
0200
0200
C200
C200
FFC0
FF80
ENDCHAR
STARTCHAR 2144
ENCODING 8516
SWIDTH 600 0
DWIDTH 10 0
BBX 10 10 0 0
BITMAP
3F00
3F00
0C00
0C00
0C00
1E00
3600
3300
F3C0
F3C0
ENDCHAR
STARTCHAR 214B
ENCODING 8523
SWIDTH 600 0
DWIDTH 10 0
BBX 8 10 1 -1
BITMAP
FE
FE
73
FB
1E
0C
06
06
3C
3C
ENDCHAR
STARTCHAR 214D
ENCODING 8525
SWIDTH 600 0
DWIDTH 10 0
BBX 10 14 0 0
BITMAP
7000
3000
7800
4800
7C00
CDC0
0380
0E00
1DC0
7240
E380
00C0
0240
03C0
ENDCHAR
STARTCHAR 214E
ENCODING 8526
SWIDTH 600 0
DWIDTH 10 0
BBX 6 7 2 0
BITMAP
3C
08
28
38
A8
88
FC
ENDCHAR
STARTCHAR 2153
ENCODING 8531
SWIDTH 600 0
DWIDTH 10 0
BBX 10 10 0 0
BITMAP
6100
6300
6200
6400
67C0
F840
1980
1040
3040
03C0
ENDCHAR
STARTCHAR 2154
ENCODING 8532
SWIDTH 600 0
DWIDTH 10 0
BBX 12 11 -1 0
BITMAP
7000
C880
0980
1100
2300
4BE0
FC30
0C60
0830
1810
01E0
ENDCHAR
STARTCHAR 2155
ENCODING 8533
SWIDTH 600 0
DWIDTH 10 0
BBX 12 10 -1 0
BITMAP
2080
6180
2100
2300
22E0
FC80
0CE0
0890
1810
01E0
ENDCHAR
STARTCHAR 2156
ENCODING 8534
SWIDTH 600 0
DWIDTH 10 0
BBX 12 11 -1 0
BITMAP
7000
C880
0980
1100
2200
4AE0
FC80
0CE0
0890
1810
01E0
ENDCHAR
STARTCHAR 2157
ENCODING 8535
SWIDTH 600 0
DWIDTH 10 0
BBX 12 11 -1 0
BITMAP
7000
0880
0980
3100
0A00
0AE0
F480
0CE0
0890
1810
01E0
ENDCHAR
STARTCHAR 2158
ENCODING 8536
SWIDTH 600 0
DWIDTH 10 0
BBX 12 11 -1 0
BITMAP
1000
3080
7180
5100
FB00
12E0
3C80
0CE0
0890
1810
01E0
ENDCHAR
STARTCHAR 2159
ENCODING 8537
SWIDTH 600 0
DWIDTH 10 0
BBX 11 10 -1 0
BITMAP
6080
2180
2160
23E0
2380
FD00
05E0
0920
1920
00E0
ENDCHAR
STARTCHAR 215A
ENCODING 8538
SWIDTH 600 0
DWIDTH 10 0
BBX 11 10 -1 0
BITMAP
7880
7980
4960
0BE0
0B80
F700
05E0
0920
1920
00E0
ENDCHAR
STARTCHAR 215B
ENCODING 8539
SWIDTH 600 0
DWIDTH 10 0
BBX 12 10 -1 0
BITMAP
2080
6180
2100
2300
22E0
FD60
0CE0
0930
1930
00E0
ENDCHAR
STARTCHAR 215C
ENCODING 8540
SWIDTH 600 0
DWIDTH 10 0
BBX 12 11 -1 0
BITMAP
7000
0880
0980
3100
1B00
0AE0
FD60
0CE0
0930
1930
00E0
ENDCHAR
STARTCHAR 215D
ENCODING 8541
SWIDTH 600 0
DWIDTH 10 0
BBX 12 10 -1 0
BITMAP
7880
7180
4900
0B00
0AE0
FF60
0CE0
0930
1930
00E0
ENDCHAR
STARTCHAR 215E
ENCODING 8542
SWIDTH 600 0
DWIDTH 10 0
BBX 11 10 0 0
BITMAP
F900
9300
1200
1600
27C0
2FC0
19C0
1260
3260
01C0
ENDCHAR
STARTCHAR 215F
ENCODING 8543
SWIDTH 600 0
DWIDTH 10 0
BBX 9 9 -1 1
BITMAP
2080
6180
2100
2300
2200
FC00
0400
0800
1800
ENDCHAR
STARTCHAR 2190
ENCODING 8592
SWIDTH 600 0
DWIDTH 10 0
BBX 9 4 1 2
BITMAP
3000
FF80
6000
1000
ENDCHAR
STARTCHAR 2191
ENCODING 8593
SWIDTH 600 0
DWIDTH 10 0
BBX 4 9 2 0
BITMAP
20
60
70
B0
20
20
20
20
20
ENDCHAR
STARTCHAR 2192
ENCODING 8594
SWIDTH 600 0
DWIDTH 10 0
BBX 9 4 0 4
BITMAP
0400
0300
FF80
0600
ENDCHAR
STARTCHAR 2193
ENCODING 8595
SWIDTH 600 0
DWIDTH 10 0
BBX 4 9 4 1
BITMAP
40
40
40
40
40
D0
E0
60
40
ENDCHAR
STARTCHAR 2194
ENCODING 8596
SWIDTH 600 0
DWIDTH 10 0
BBX 10 3 0 3
BITMAP
1300
FFC0
1300
ENDCHAR
STARTCHAR 2195
ENCODING 8597
SWIDTH 600 0
DWIDTH 10 0
BBX 3 10 4 0
BITMAP
40
40
E0
E0
40
40
E0
40
40
40
ENDCHAR
STARTCHAR 2196
ENCODING 8598
SWIDTH 600 0
DWIDTH 10 0
BBX 6 6 2 1
BITMAP
C0
F0
E0
50
48
04
ENDCHAR
STARTCHAR 2197
ENCODING 8599
SWIDTH 600 0
DWIDTH 10 0
BBX 6 6 3 1
BITMAP
1C
7C
18
28
40
80
ENDCHAR
STARTCHAR 2198
ENCODING 8600
SWIDTH 600 0
DWIDTH 10 0
BBX 6 6 2 2
BITMAP
80
48
28
1C
3C
0C
ENDCHAR
STARTCHAR 2199
ENCODING 8601
SWIDTH 600 0
DWIDTH 10 0
BBX 6 6 2 3
BITMAP
04
08
50
60
F8
E0
ENDCHAR
STARTCHAR 21A4
ENCODING 8612
SWIDTH 600 0
DWIDTH 10 0
BBX 9 5 1 2
BITMAP
1000
6080
FF80
6080
1000
ENDCHAR
STARTCHAR 21A5
ENCODING 8613
SWIDTH 600 0
DWIDTH 10 0
BBX 5 9 2 0
BITMAP
20
70
70
A8
20
20
20
20
70
ENDCHAR
STARTCHAR 21A6
ENCODING 8614
SWIDTH 600 0
DWIDTH 10 0
BBX 9 5 0 3
BITMAP
0400
8300
FF80
8300
0400
ENDCHAR
STARTCHAR 21A7
ENCODING 8615
SWIDTH 600 0
DWIDTH 10 0
BBX 5 9 3 1
BITMAP
70
20
20
20
20
A8
70
70
20
ENDCHAR
STARTCHAR 21B9
ENCODING 8633
SWIDTH 600 0
DWIDTH 10 0
BBX 10 9 0 0
BITMAP
0800
3040
7FC0
3040
0C00
8300
FF80
8300
0400
ENDCHAR
STARTCHAR 21BC
ENCODING 8636
SWIDTH 600 0
DWIDTH 10 0
BBX 8 2 2 4
BITMAP
30
FF
ENDCHAR
STARTCHAR 21BD
ENCODING 8637
SWIDTH 600 0
DWIDTH 10 0
BBX 8 2 2 2
BITMAP
FF
30
ENDCHAR
STARTCHAR 21BE
ENCODING 8638
SWIDTH 600 0
DWIDTH 10 0
BBX 2 8 5 1
BITMAP
80
80
C0
C0
80
80
80
80
ENDCHAR
STARTCHAR 21BF
ENCODING 8639
SWIDTH 600 0
DWIDTH 10 0
BBX 2 8 3 1
BITMAP
40
40
C0
C0
40
40
40
40
ENDCHAR
STARTCHAR 21C0
ENCODING 8640
SWIDTH 600 0
DWIDTH 10 0
BBX 8 2 0 4
BITMAP
0C
FF
ENDCHAR
STARTCHAR 21C1
ENCODING 8641
SWIDTH 600 0
DWIDTH 10 0
BBX 8 2 0 2
BITMAP
FF
0C
ENDCHAR
ENDFONT
